STARTFONT 2.1
COMMENT
COMMENT Converted from OpenType font "JF-Dot-Kaname12.ttf" by "otf2bdf 3.0".
COMMENT
FONT -FreeType-JF Dot Kanamecho 12-Medium-R-Normal--12-90-100-100-P-127-ISO10646-1
SIZE 9 100 100
FONTBOUNDINGBOX 13 13 0 -2
STARTPROPERTIES 19
FOUNDRY "FreeType"
FAMILY_NAME "JF Dot Kanamecho 12"
WEIGHT_NAME "Medium"
SLANT "R"
SETWIDTH_NAME "Normal"
ADD_STYLE_NAME ""
PIXEL_SIZE 12
POINT_SIZE 90
RESOLUTION_X 100
RESOLUTION_Y 100
SPACING "P"
AVERAGE_WIDTH 127
CHARSET_REGISTRY "ISO10646"
CHARSET_ENCODING "1"
FONT_ASCENT 11
FONT_DESCENT 1
COPYRIGHT "-FreeType-JF Dot Kanamecho 12-Medium-R-Normal--12-90-100-100-P-127-ISO10646-1"
_OTF_FONTFILE "JF-Dot-Kaname12.ttf"
_OTF_PSNAME "JF-Dot-Kanamecho-12"
ENDPROPERTIES
CHARS 7367
STARTCHAR 0020
ENCODING 32
SWIDTH 560 0
DWIDTH 7 0
BBX 0 0 0 0
BITMAP
ENDCHAR
STARTCHAR 0021
ENCODING 33
SWIDTH 560 0
DWIDTH 7 0
BBX 2 10 2 -1
BITMAP
C0
C0
C0
C0
80
80
80
00
80
80
ENDCHAR
STARTCHAR 0022
ENCODING 34
SWIDTH 560 0
DWIDTH 7 0
BBX 5 3 0 6
BITMAP
D8
48
90
ENDCHAR
STARTCHAR 0023
ENCODING 35
SWIDTH 560 0
DWIDTH 7 0
BBX 5 10 0 -1
BITMAP
10
50
78
D0
50
78
50
D0
50
40
ENDCHAR
STARTCHAR 0024
ENCODING 36
SWIDTH 560 0
DWIDTH 7 0
BBX 5 10 0 -1
BITMAP
20
70
A8
A0
70
28
A8
A8
70
20
ENDCHAR
STARTCHAR 0025
ENCODING 37
SWIDTH 560 0
DWIDTH 7 0
BBX 5 10 0 -1
BITMAP
40
A0
48
10
20
40
D0
90
28
10
ENDCHAR
STARTCHAR 0026
ENCODING 38
SWIDTH 560 0
DWIDTH 7 0
BBX 5 10 0 -1
BITMAP
60
90
90
60
40
A8
B0
90
90
68
ENDCHAR
STARTCHAR 0027
ENCODING 39
SWIDTH 560 0
DWIDTH 7 0
BBX 2 3 2 6
BITMAP
C0
40
80
ENDCHAR
STARTCHAR 0028
ENCODING 40
SWIDTH 560 0
DWIDTH 7 0
BBX 2 10 3 -1
BITMAP
40
40
80
80
80
80
80
80
40
40
ENDCHAR
STARTCHAR 0029
ENCODING 41
SWIDTH 560 0
DWIDTH 7 0
BBX 2 10 1 -1
BITMAP
80
80
40
40
40
40
40
40
80
80
ENDCHAR
STARTCHAR 002A
ENCODING 42
SWIDTH 560 0
DWIDTH 7 0
BBX 5 6 0 2
BITMAP
20
A8
70
A8
20
20
ENDCHAR
STARTCHAR 002B
ENCODING 43
SWIDTH 560 0
DWIDTH 7 0
BBX 5 6 0 2
BITMAP
20
20
F8
20
20
20
ENDCHAR
STARTCHAR 002C
ENCODING 44
SWIDTH 560 0
DWIDTH 7 0
BBX 2 3 1 -2
BITMAP
C0
40
80
ENDCHAR
STARTCHAR 002D
ENCODING 45
SWIDTH 560 0
DWIDTH 7 0
BBX 5 1 0 5
BITMAP
F8
ENDCHAR
STARTCHAR 002E
ENCODING 46
SWIDTH 560 0
DWIDTH 7 0
BBX 2 2 1 -1
BITMAP
C0
C0
ENDCHAR
STARTCHAR 002F
ENCODING 47
SWIDTH 560 0
DWIDTH 7 0
BBX 5 10 0 -1
BITMAP
08
08
10
10
20
40
40
40
80
80
ENDCHAR
STARTCHAR 0030
ENCODING 48
SWIDTH 560 0
DWIDTH 7 0
BBX 5 10 0 -1
BITMAP
70
88
88
98
A8
C8
88
88
88
70
ENDCHAR
STARTCHAR 0031
ENCODING 49
SWIDTH 560 0
DWIDTH 7 0
BBX 3 10 1 -1
BITMAP
40
C0
40
40
40
40
40
40
40
E0
ENDCHAR
STARTCHAR 0032
ENCODING 50
SWIDTH 560 0
DWIDTH 7 0
BBX 5 10 0 -1
BITMAP
70
88
08
08
10
20
40
40
80
F8
ENDCHAR
STARTCHAR 0033
ENCODING 51
SWIDTH 560 0
DWIDTH 7 0
BBX 5 10 0 -1
BITMAP
70
88
08
08
30
08
08
08
88
70
ENDCHAR
STARTCHAR 0034
ENCODING 52
SWIDTH 560 0
DWIDTH 7 0
BBX 5 10 0 -1
BITMAP
10
30
30
50
50
90
98
F8
10
10
ENDCHAR
STARTCHAR 0035
ENCODING 53
SWIDTH 560 0
DWIDTH 7 0
BBX 5 10 0 -1
BITMAP
F8
80
80
F0
08
08
08
08
88
70
ENDCHAR
STARTCHAR 0036
ENCODING 54
SWIDTH 560 0
DWIDTH 7 0
BBX 5 10 0 -1
BITMAP
70
88
80
80
F0
88
88
88
88
70
ENDCHAR
STARTCHAR 0037
ENCODING 55
SWIDTH 560 0
DWIDTH 7 0
BBX 5 10 0 -1
BITMAP
F8
88
08
10
20
20
20
20
20
20
ENDCHAR
STARTCHAR 0038
ENCODING 56
SWIDTH 560 0
DWIDTH 7 0
BBX 5 10 0 -1
BITMAP
70
88
88
88
70
88
88
88
88
70
ENDCHAR
STARTCHAR 0039
ENCODING 57
SWIDTH 560 0
DWIDTH 7 0
BBX 5 10 0 -1
BITMAP
70
88
88
88
78
08
88
88
88
70
ENDCHAR
STARTCHAR 003A
ENCODING 58
SWIDTH 560 0
DWIDTH 7 0
BBX 2 7 2 1
BITMAP
C0
C0
00
00
C0
C0
C0
ENDCHAR
STARTCHAR 003B
ENCODING 59
SWIDTH 560 0
DWIDTH 7 0
BBX 2 8 2 0
BITMAP
C0
C0
00
00
C0
C0
40
80
ENDCHAR
STARTCHAR 003C
ENCODING 60
SWIDTH 560 0
DWIDTH 7 0
BBX 4 8 1 1
BITMAP
10
20
40
80
40
20
30
10
ENDCHAR
STARTCHAR 003D
ENCODING 61
SWIDTH 560 0
DWIDTH 7 0
BBX 5 3 0 4
BITMAP
F8
00
F8
ENDCHAR
STARTCHAR 003E
ENCODING 62
SWIDTH 560 0
DWIDTH 7 0
BBX 4 8 1 1
BITMAP
80
40
20
10
20
40
C0
80
ENDCHAR
STARTCHAR 003F
ENCODING 63
SWIDTH 560 0
DWIDTH 7 0
BBX 5 10 0 -1
BITMAP
70
88
88
10
20
20
20
00
20
20
ENDCHAR
STARTCHAR 0040
ENCODING 64
SWIDTH 560 0
DWIDTH 7 0
BBX 5 10 0 -1
BITMAP
70
88
A8
A8
A8
A8
B0
90
88
70
ENDCHAR
STARTCHAR 0041
ENCODING 65
SWIDTH 560 0
DWIDTH 7 0
BBX 5 10 0 -1
BITMAP
20
50
88
88
88
F8
88
88
88
88
ENDCHAR
STARTCHAR 0042
ENCODING 66
SWIDTH 560 0
DWIDTH 7 0
BBX 5 10 0 -1
BITMAP
F0
88
88
88
F0
88
88
88
88
F0
ENDCHAR
STARTCHAR 0043
ENCODING 67
SWIDTH 560 0
DWIDTH 7 0
BBX 5 10 0 -1
BITMAP
30
48
80
80
80
80
80
80
48
30
ENDCHAR
STARTCHAR 0044
ENCODING 68
SWIDTH 560 0
DWIDTH 7 0
BBX 5 10 0 -1
BITMAP
E0
90
88
88
88
88
88
88
90
E0
ENDCHAR
STARTCHAR 0045
ENCODING 69
SWIDTH 560 0
DWIDTH 7 0
BBX 5 10 0 -1
BITMAP
F8
80
80
80
F0
80
80
80
80
F8
ENDCHAR
STARTCHAR 0046
ENCODING 70
SWIDTH 560 0
DWIDTH 7 0
BBX 5 10 0 -1
BITMAP
F8
80
80
80
F0
80
80
80
80
80
ENDCHAR
STARTCHAR 0047
ENCODING 71
SWIDTH 560 0
DWIDTH 7 0
BBX 5 10 0 -1
BITMAP
30
48
80
80
B8
88
88
88
58
28
ENDCHAR
STARTCHAR 0048
ENCODING 72
SWIDTH 560 0
DWIDTH 7 0
BBX 5 10 0 -1
BITMAP
88
88
88
88
F8
88
88
88
88
88
ENDCHAR
STARTCHAR 0049
ENCODING 73
SWIDTH 560 0
DWIDTH 7 0
BBX 3 10 1 -1
BITMAP
E0
40
40
40
40
40
40
40
40
E0
ENDCHAR
STARTCHAR 004A
ENCODING 74
SWIDTH 560 0
DWIDTH 7 0
BBX 5 10 0 -1
BITMAP
38
10
10
10
10
10
90
90
90
60
ENDCHAR
STARTCHAR 004B
ENCODING 75
SWIDTH 560 0
DWIDTH 7 0
BBX 5 10 0 -1
BITMAP
88
90
90
A0
C0
E0
90
90
88
88
ENDCHAR
STARTCHAR 004C
ENCODING 76
SWIDTH 560 0
DWIDTH 7 0
BBX 5 10 0 -1
BITMAP
80
80
80
80
80
80
80
80
80
F8
ENDCHAR
STARTCHAR 004D
ENCODING 77
SWIDTH 560 0
DWIDTH 7 0
BBX 5 10 0 -1
BITMAP
88
88
D8
D8
F8
A8
A8
A8
88
88
ENDCHAR
STARTCHAR 004E
ENCODING 78
SWIDTH 560 0
DWIDTH 7 0
BBX 5 10 0 -1
BITMAP
88
C8
C8
A8
A8
A8
A8
98
98
88
ENDCHAR
STARTCHAR 004F
ENCODING 79
SWIDTH 560 0
DWIDTH 7 0
BBX 5 10 0 -1
BITMAP
70
88
88
88
88
88
88
88
88
70
ENDCHAR
STARTCHAR 0050
ENCODING 80
SWIDTH 560 0
DWIDTH 7 0
BBX 5 10 0 -1
BITMAP
F0
88
88
88
F0
80
80
80
80
80
ENDCHAR
STARTCHAR 0051
ENCODING 81
SWIDTH 560 0
DWIDTH 7 0
BBX 5 10 0 -1
BITMAP
70
88
88
88
88
88
A8
A8
70
08
ENDCHAR
STARTCHAR 0052
ENCODING 82
SWIDTH 560 0
DWIDTH 7 0
BBX 5 10 0 -1
BITMAP
F0
88
88
88
F0
90
98
88
88
88
ENDCHAR
STARTCHAR 0053
ENCODING 83
SWIDTH 560 0
DWIDTH 7 0
BBX 5 10 0 -1
BITMAP
70
88
80
80
70
08
08
08
88
70
ENDCHAR
STARTCHAR 0054
ENCODING 84
SWIDTH 560 0
DWIDTH 7 0
BBX 5 10 0 -1
BITMAP
F8
20
20
20
20
20
20
20
20
20
ENDCHAR
STARTCHAR 0055
ENCODING 85
SWIDTH 560 0
DWIDTH 7 0
BBX 5 10 0 -1
BITMAP
88
88
88
88
88
88
88
88
88
70
ENDCHAR
STARTCHAR 0056
ENCODING 86
SWIDTH 560 0
DWIDTH 7 0
BBX 5 10 0 -1
BITMAP
88
88
88
88
88
88
D0
50
50
20
ENDCHAR
STARTCHAR 0057
ENCODING 87
SWIDTH 560 0
DWIDTH 7 0
BBX 5 10 0 -1
BITMAP
A8
A8
A8
A8
A8
A8
A8
A8
50
50
ENDCHAR
STARTCHAR 0058
ENCODING 88
SWIDTH 560 0
DWIDTH 7 0
BBX 5 10 0 -1
BITMAP
88
88
50
50
20
50
50
50
88
88
ENDCHAR
STARTCHAR 0059
ENCODING 89
SWIDTH 560 0
DWIDTH 7 0
BBX 5 10 0 -1
BITMAP
88
88
50
50
20
20
20
20
20
20
ENDCHAR
STARTCHAR 005A
ENCODING 90
SWIDTH 560 0
DWIDTH 7 0
BBX 5 10 0 -1
BITMAP
F8
08
10
10
20
40
40
40
80
F8
ENDCHAR
STARTCHAR 005B
ENCODING 91
SWIDTH 560 0
DWIDTH 7 0
BBX 3 10 2 -1
BITMAP
E0
80
80
80
80
80
80
80
80
E0
ENDCHAR
STARTCHAR 005C
ENCODING 92
SWIDTH 560 0
DWIDTH 7 0
BBX 5 10 0 -1
BITMAP
88
50
20
F8
20
F8
E0
20
20
20
ENDCHAR
STARTCHAR 005D
ENCODING 93
SWIDTH 560 0
DWIDTH 7 0
BBX 3 10 1 -1
BITMAP
E0
20
20
20
20
20
20
20
20
E0
ENDCHAR
STARTCHAR 005E
ENCODING 94
SWIDTH 560 0
DWIDTH 7 0
BBX 5 3 0 6
BITMAP
20
50
88
ENDCHAR
STARTCHAR 005F
ENCODING 95
SWIDTH 560 0
DWIDTH 7 0
BBX 5 1 0 -1
BITMAP
F8
ENDCHAR
STARTCHAR 0060
ENCODING 96
SWIDTH 560 0
DWIDTH 7 0
BBX 3 3 1 6
BITMAP
80
40
20
ENDCHAR
STARTCHAR 0061
ENCODING 97
SWIDTH 560 0
DWIDTH 7 0
BBX 5 7 0 -1
BITMAP
70
88
78
88
88
98
68
ENDCHAR
STARTCHAR 0062
ENCODING 98
SWIDTH 560 0
DWIDTH 7 0
BBX 5 10 0 -1
BITMAP
80
80
80
B0
C8
88
88
88
C8
B0
ENDCHAR
STARTCHAR 0063
ENCODING 99
SWIDTH 560 0
DWIDTH 7 0
BBX 5 7 0 -1
BITMAP
70
88
80
80
80
88
70
ENDCHAR
STARTCHAR 0064
ENCODING 100
SWIDTH 560 0
DWIDTH 7 0
BBX 5 10 0 -1
BITMAP
08
08
08
68
98
88
88
88
98
68
ENDCHAR
STARTCHAR 0065
ENCODING 101
SWIDTH 560 0
DWIDTH 7 0
BBX 5 7 0 -1
BITMAP
70
88
F8
80
80
88
70
ENDCHAR
STARTCHAR 0066
ENCODING 102
SWIDTH 560 0
DWIDTH 7 0
BBX 5 10 0 -1
BITMAP
10
28
20
20
F8
20
20
20
20
20
ENDCHAR
STARTCHAR 0067
ENCODING 103
SWIDTH 560 0
DWIDTH 7 0
BBX 5 8 0 -2
BITMAP
78
88
88
88
88
78
88
70
ENDCHAR
STARTCHAR 0068
ENCODING 104
SWIDTH 560 0
DWIDTH 7 0
BBX 5 10 0 -1
BITMAP
80
80
80
B0
C8
88
88
88
88
88
ENDCHAR
STARTCHAR 0069
ENCODING 105
SWIDTH 560 0
DWIDTH 7 0
BBX 3 9 1 -1
BITMAP
40
00
C0
40
40
40
40
40
E0
ENDCHAR
STARTCHAR 006A
ENCODING 106
SWIDTH 560 0
DWIDTH 7 0
BBX 5 10 0 -2
BITMAP
08
00
18
08
08
08
08
08
88
70
ENDCHAR
STARTCHAR 006B
ENCODING 107
SWIDTH 560 0
DWIDTH 7 0
BBX 5 10 0 -1
BITMAP
80
80
80
88
90
A0
A0
E0
90
88
ENDCHAR
STARTCHAR 006C
ENCODING 108
SWIDTH 560 0
DWIDTH 7 0
BBX 2 10 1 -1
BITMAP
C0
40
40
40
40
40
40
40
40
40
ENDCHAR
STARTCHAR 006D
ENCODING 109
SWIDTH 560 0
DWIDTH 7 0
BBX 5 7 0 -1
BITMAP
F0
A8
A8
A8
A8
A8
A8
ENDCHAR
STARTCHAR 006E
ENCODING 110
SWIDTH 560 0
DWIDTH 7 0
BBX 5 7 0 -1
BITMAP
B0
C8
88
88
88
88
88
ENDCHAR
STARTCHAR 006F
ENCODING 111
SWIDTH 560 0
DWIDTH 7 0
BBX 5 7 0 -1
BITMAP
70
88
88
88
88
88
70
ENDCHAR
STARTCHAR 0070
ENCODING 112
SWIDTH 560 0
DWIDTH 7 0
BBX 5 8 0 -2
BITMAP
B0
C8
88
C8
C8
B0
80
80
ENDCHAR
STARTCHAR 0071
ENCODING 113
SWIDTH 560 0
DWIDTH 7 0
BBX 5 8 0 -2
BITMAP
68
98
88
88
98
68
08
08
ENDCHAR
STARTCHAR 0072
ENCODING 114
SWIDTH 560 0
DWIDTH 7 0
BBX 5 7 0 -1
BITMAP
B0
C8
80
80
80
80
80
ENDCHAR
STARTCHAR 0073
ENCODING 115
SWIDTH 560 0
DWIDTH 7 0
BBX 5 7 0 -1
BITMAP
70
88
60
70
10
88
70
ENDCHAR
STARTCHAR 0074
ENCODING 116
SWIDTH 560 0
DWIDTH 7 0
BBX 5 9 0 -1
BITMAP
20
20
F8
20
20
20
20
28
30
ENDCHAR
STARTCHAR 0075
ENCODING 117
SWIDTH 560 0
DWIDTH 7 0
BBX 5 7 0 -1
BITMAP
88
88
88
88
88
98
68
ENDCHAR
STARTCHAR 0076
ENCODING 118
SWIDTH 560 0
DWIDTH 7 0
BBX 5 7 0 -1
BITMAP
88
88
50
50
50
20
20
ENDCHAR
STARTCHAR 0077
ENCODING 119
SWIDTH 560 0
DWIDTH 7 0
BBX 5 7 0 -1
BITMAP
88
A8
A8
A8
A8
A8
50
ENDCHAR
STARTCHAR 0078
ENCODING 120
SWIDTH 560 0
DWIDTH 7 0
BBX 5 7 0 -1
BITMAP
88
50
20
20
20
50
88
ENDCHAR
STARTCHAR 0079
ENCODING 121
SWIDTH 560 0
DWIDTH 7 0
BBX 5 8 0 -2
BITMAP
88
88
88
88
78
08
88
70
ENDCHAR
STARTCHAR 007A
ENCODING 122
SWIDTH 560 0
DWIDTH 7 0
BBX 5 7 0 -1
BITMAP
F8
10
20
60
40
80
F8
ENDCHAR
STARTCHAR 007B
ENCODING 123
SWIDTH 560 0
DWIDTH 7 0
BBX 3 10 2 -1
BITMAP
20
40
40
40
80
40
40
40
40
20
ENDCHAR
STARTCHAR 007C
ENCODING 124
SWIDTH 560 0
DWIDTH 7 0
BBX 1 10 2 -1
BITMAP
80
80
80
80
80
80
80
80
80
80
ENDCHAR
STARTCHAR 007D
ENCODING 125
SWIDTH 560 0
DWIDTH 7 0
BBX 3 10 1 -1
BITMAP
80
40
40
40
20
40
40
40
40
80
ENDCHAR
STARTCHAR 00A0
ENCODING 160
SWIDTH 560 0
DWIDTH 7 0
BBX 0 0 0 0
BITMAP
ENDCHAR
STARTCHAR 00A2
ENCODING 162
SWIDTH 1040 0
DWIDTH 13 0
BBX 7 10 3 -2
BITMAP
04
3C
5A
98
B0
B2
B2
72
3C
40
ENDCHAR
STARTCHAR 00A3
ENCODING 163
SWIDTH 1040 0
DWIDTH 13 0
BBX 11 11 1 -1
BITMAP
0F80
1040
2000
2000
1000
FF00
1000
1000
7000
9C20
67C0
ENDCHAR
STARTCHAR 00A5
ENCODING 165
SWIDTH 560 0
DWIDTH 7 0
BBX 5 10 0 -1
BITMAP
88
50
20
F8
20
F8
E0
20
20
20
ENDCHAR
STARTCHAR 00A7
ENCODING 167
SWIDTH 1040 0
DWIDTH 13 0
BBX 7 13 3 -2
BITMAP
7C
82
82
70
5C
82
82
74
74
1C
82
82
7C
ENDCHAR
STARTCHAR 00A8
ENCODING 168
SWIDTH 1040 0
DWIDTH 13 0
BBX 7 2 3 9
BITMAP
C6
C6
ENDCHAR
STARTCHAR 00AC
ENCODING 172
SWIDTH 1040 0
DWIDTH 13 0
BBX 11 5 1 1
BITMAP
FFE0
0020
0020
0020
0020
ENDCHAR
STARTCHAR 00B0
ENCODING 176
SWIDTH 1040 0
DWIDTH 13 0
BBX 4 4 1 6
BITMAP
60
90
90
60
ENDCHAR
STARTCHAR 00B1
ENCODING 177
SWIDTH 1040 0
DWIDTH 13 0
BBX 10 11 1 -1
BITMAP
0C00
0C00
0C00
0C00
FFC0
0C00
0C00
0C00
0C00
0000
FFC0
ENDCHAR
STARTCHAR 00B4
ENCODING 180
SWIDTH 1040 0
DWIDTH 13 0
BBX 4 3 4 8
BITMAP
30
60
80
ENDCHAR
STARTCHAR 00B6
ENCODING 182
SWIDTH 1040 0
DWIDTH 13 0
BBX 9 13 2 -2
BITMAP
7F80
F900
F900
F900
7900
1900
1900
1900
1900
1900
1900
1900
1900
ENDCHAR
STARTCHAR 00D7
ENCODING 215
SWIDTH 1040 0
DWIDTH 13 0
BBX 9 9 2 0
BITMAP
8080
4100
2200
1C00
1C00
2200
4300
4100
8080
ENDCHAR
STARTCHAR 00F7
ENCODING 247
SWIDTH 1040 0
DWIDTH 13 0
BBX 11 10 1 -1
BITMAP
0E00
0E00
0000
0000
FFE0
0000
0000
0000
0E00
0E00
ENDCHAR
STARTCHAR 0391
ENCODING 913
SWIDTH 1040 0
DWIDTH 13 0
BBX 10 11 1 -1
BITMAP
0C00
0C00
1600
1600
2100
2100
3F00
4080
4080
4080
E1C0
ENDCHAR
STARTCHAR 0392
ENCODING 914
SWIDTH 1040 0
DWIDTH 13 0
BBX 9 11 2 -1
BITMAP
FE00
4100
4080
4100
7E00
4100
4080
4080
4080
4100
FE00
ENDCHAR
STARTCHAR 0393
ENCODING 915
SWIDTH 1040 0
DWIDTH 13 0
BBX 9 11 2 -1
BITMAP
FF00
4080
4080
4000
4000
4000
4000
4000
4000
4000
E000
ENDCHAR
STARTCHAR 0394
ENCODING 916
SWIDTH 1040 0
DWIDTH 13 0
BBX 11 11 1 -1
BITMAP
0C00
0E00
0E00
1100
1100
2080
2080
40C0
4040
7FC0
FFE0
ENDCHAR
STARTCHAR 0395
ENCODING 917
SWIDTH 1040 0
DWIDTH 13 0
BBX 10 11 1 -1
BITMAP
FF80
4040
4000
4100
7F00
4100
4000
4040
4040
4040
FF80
ENDCHAR
STARTCHAR 0396
ENCODING 918
SWIDTH 1040 0
DWIDTH 13 0
BBX 11 11 1 -1
BITMAP
7FE0
4040
8080
0100
0600
0C00
1000
2020
2020
4020
FFC0
ENDCHAR
STARTCHAR 0397
ENCODING 919
SWIDTH 1040 0
DWIDTH 13 0
BBX 11 11 1 -1
BITMAP
E0E0
4040
4040
4040
7FC0
4040
4040
4040
4040
4040
E0E0
ENDCHAR
STARTCHAR 0398
ENCODING 920
SWIDTH 1040 0
DWIDTH 13 0
BBX 11 11 1 -1
BITMAP
1F00
2080
4040
9120
9F20
9120
9120
D160
4040
2080
1F00
ENDCHAR
STARTCHAR 0399
ENCODING 921
SWIDTH 1040 0
DWIDTH 13 0
BBX 4 11 4 -1
BITMAP
F0
60
60
60
60
60
60
60
60
60
F0
ENDCHAR
STARTCHAR 039A
ENCODING 922
SWIDTH 1040 0
DWIDTH 13 0
BBX 10 11 2 -1
BITMAP
E380
4100
4200
4C00
7800
4C00
4200
4300
4100
4080
E1C0
ENDCHAR
STARTCHAR 039B
ENCODING 923
SWIDTH 1040 0
DWIDTH 13 0
BBX 10 11 1 -1
BITMAP
0C00
0C00
1600
1600
2100
2100
2100
4180
4080
4080
E1C0
ENDCHAR
STARTCHAR 039C
ENCODING 924
SWIDTH 1040 0
DWIDTH 13 0
BBX 12 11 0 -1
BITMAP
C030
4020
6060
6060
50A0
50A0
4B20
4B20
4B20
4620
E670
ENDCHAR
STARTCHAR 039D
ENCODING 925
SWIDTH 1040 0
DWIDTH 13 0
BBX 10 11 1 -1
BITMAP
C1C0
6080
5080
5080
4C80
4680
4680
4680
4180
4080
E080
ENDCHAR
STARTCHAR 039E
ENCODING 926
SWIDTH 1040 0
DWIDTH 13 0
BBX 9 11 2 -1
BITMAP
FF80
8080
0000
4100
7F00
4100
0000
8080
8080
8080
FF80
ENDCHAR
STARTCHAR 039F
ENCODING 927
SWIDTH 1040 0
DWIDTH 13 0
BBX 11 11 1 -1
BITMAP
1F00
2080
4040
8020
8020
8020
8020
C060
4040
2080
1F00
ENDCHAR
STARTCHAR 03A0
ENCODING 928
SWIDTH 1040 0
DWIDTH 13 0
BBX 10 11 1 -1
BITMAP
FFC0
4080
4080
4080
4080
4080
4080
4080
4080
4080
E1C0
ENDCHAR
STARTCHAR 03A1
ENCODING 929
SWIDTH 1040 0
DWIDTH 13 0
BBX 9 11 2 -1
BITMAP
FE00
4100
4080
4080
4100
7E00
4000
4000
4000
4000
E000
ENDCHAR
STARTCHAR 03A3
ENCODING 931
SWIDTH 1040 0
DWIDTH 13 0
BBX 11 11 1 -1
BITMAP
FF80
4080
2040
1000
0C00
0C00
1000
2020
2020
4020
FFC0
ENDCHAR
STARTCHAR 03A4
ENCODING 932
SWIDTH 1040 0
DWIDTH 13 0
BBX 10 11 1 -1
BITMAP
FFC0
8C40
8C40
0C00
0C00
0C00
0C00
0C00
0C00
0C00
1E00
ENDCHAR
STARTCHAR 03A5
ENCODING 933
SWIDTH 1040 0
DWIDTH 13 0
BBX 10 11 1 -1
BITMAP
7780
8C40
8C40
0C00
0C00
0C00
0C00
0C00
0C00
0C00
1E00
ENDCHAR
STARTCHAR 03A6
ENCODING 934
SWIDTH 1040 0
DWIDTH 13 0
BBX 10 11 1 -1
BITMAP
1E00
0C00
3F00
4C80
8C40
8C40
4C80
4F80
3F00
0C00
1E00
ENDCHAR
STARTCHAR 03A7
ENCODING 935
SWIDTH 1040 0
DWIDTH 13 0
BBX 11 11 1 -1
BITMAP
E0E0
4040
2080
1100
0E00
0E00
1100
2180
2080
4040
E0E0
ENDCHAR
STARTCHAR 03A8
ENCODING 936
SWIDTH 1040 0
DWIDTH 13 0
BBX 12 11 0 -1
BITMAP
0F00
4660
A650
2640
2640
2640
1F80
1E00
0600
0600
0F00
ENDCHAR
STARTCHAR 03A9
ENCODING 937
SWIDTH 1040 0
DWIDTH 13 0
BBX 11 11 1 -1
BITMAP
1F00
2080
4040
4040
4040
4040
2080
B1A0
9120
9120
F1E0
ENDCHAR
STARTCHAR 03B1
ENCODING 945
SWIDTH 1040 0
DWIDTH 13 0
BBX 9 8 2 -1
BITMAP
3C80
4280
8300
8200
8E00
8C00
9A00
6180
ENDCHAR
STARTCHAR 03B2
ENCODING 946
SWIDTH 1040 0
DWIDTH 13 0
BBX 10 12 1 -2
BITMAP
0700
0C80
0C40
1080
1F00
2100
2080
6080
4080
6100
5E00
8000
ENDCHAR
STARTCHAR 03B3
ENCODING 947
SWIDTH 1040 0
DWIDTH 13 0
BBX 9 9 2 -2
BITMAP
6180
9A00
0C00
1800
1800
1800
2000
2000
4000
ENDCHAR
STARTCHAR 03B4
ENCODING 948
SWIDTH 1040 0
DWIDTH 13 0
BBX 9 11 2 -1
BITMAP
1E00
2100
1880
0C00
3A00
4100
8100
8300
8200
4C00
3800
ENDCHAR
STARTCHAR 03B5
ENCODING 949
SWIDTH 1040 0
DWIDTH 13 0
BBX 8 8 2 -1
BITMAP
3E
41
40
7C
81
81
82
7C
ENDCHAR
STARTCHAR 03B6
ENCODING 950
SWIDTH 1040 0
DWIDTH 13 0
BBX 9 12 2 -2
BITMAP
2000
2180
1F00
0C00
3800
4000
8000
8000
8000
7C00
0200
7C00
ENDCHAR
STARTCHAR 03B7
ENCODING 951
SWIDTH 1040 0
DWIDTH 13 0
BBX 9 9 2 -2
BITMAP
4F00
B880
2080
4080
4180
4100
8100
0200
0200
ENDCHAR
STARTCHAR 03B8
ENCODING 952
SWIDTH 1040 0
DWIDTH 13 0
BBX 9 11 2 -1
BITMAP
0F00
1880
2080
4080
7F80
8100
8100
8200
8200
4C00
3800
ENDCHAR
STARTCHAR 03B9
ENCODING 953
SWIDTH 1040 0
DWIDTH 13 0
BBX 7 8 3 -1
BITMAP
30
40
40
80
82
82
9C
70
ENDCHAR
STARTCHAR 03BA
ENCODING 954
SWIDTH 1040 0
DWIDTH 13 0
BBX 10 8 1 -1
BITMAP
10C0
1100
3E00
2C00
6C80
4C80
4C80
8700
ENDCHAR
STARTCHAR 03BB
ENCODING 955
SWIDTH 1040 0
DWIDTH 13 0
BBX 9 11 2 -1
BITMAP
3800
0C00
0C00
0C00
0C00
1C00
2C00
4E00
4200
8200
8180
ENDCHAR
STARTCHAR 03BC
ENCODING 956
SWIDTH 1040 0
DWIDTH 13 0
BBX 10 9 1 -2
BITMAP
1080
1080
2080
2100
6100
4100
6700
9CC0
8000
ENDCHAR
STARTCHAR 03BD
ENCODING 957
SWIDTH 1040 0
DWIDTH 13 0
BBX 8 8 2 -1
BITMAP
41
21
22
42
44
4C
58
E0
ENDCHAR
STARTCHAR 03BE
ENCODING 958
SWIDTH 1040 0
DWIDTH 13 0
BBX 8 12 2 -2
BITMAP
20
3E
40
40
7C
80
80
FE
7E
01
41
3E
ENDCHAR
STARTCHAR 03BF
ENCODING 959
SWIDTH 1040 0
DWIDTH 13 0
BBX 8 8 2 -1
BITMAP
3E
41
81
81
81
81
82
7C
ENDCHAR
STARTCHAR 03C0
ENCODING 960
SWIDTH 1040 0
DWIDTH 13 0
BBX 10 9 1 -1
BITMAP
0040
3F80
5100
1600
2600
2480
2C80
4C80
8700
ENDCHAR
STARTCHAR 03C1
ENCODING 961
SWIDTH 1040 0
DWIDTH 13 0
BBX 9 9 2 -2
BITMAP
1F00
2080
4080
4080
6180
6100
9E00
8000
8000
ENDCHAR
STARTCHAR 03C3
ENCODING 963
SWIDTH 1040 0
DWIDTH 13 0
BBX 10 9 2 -1
BITMAP
0040
1FC0
6200
8100
8100
8100
8100
4200
3C00
ENDCHAR
STARTCHAR 03C4
ENCODING 964
SWIDTH 1040 0
DWIDTH 13 0
BBX 9 9 2 -1
BITMAP
0080
7F00
9800
2000
2000
4000
4000
4200
3C00
ENDCHAR
STARTCHAR 03C5
ENCODING 965
SWIDTH 1040 0
DWIDTH 13 0
BBX 10 8 1 -1
BITMAP
4080
A040
2040
2080
6080
4080
4700
3C00
ENDCHAR
STARTCHAR 03C6
ENCODING 966
SWIDTH 1040 0
DWIDTH 13 0
BBX 9 12 2 -2
BITMAP
0200
0200
0C00
3E00
4D00
8C80
9880
9980
9900
7E00
2000
2000
ENDCHAR
STARTCHAR 03C7
ENCODING 967
SWIDTH 1040 0
DWIDTH 13 0
BBX 8 10 2 -2
BITMAP
01
41
A2
9C
18
18
38
58
8D
82
ENDCHAR
STARTCHAR 03C8
ENCODING 968
SWIDTH 1040 0
DWIDTH 13 0
BBX 9 12 2 -2
BITMAP
0200
0200
0200
8D00
4C80
4C80
9880
9980
9900
7E00
2000
2000
ENDCHAR
STARTCHAR 03C9
ENCODING 969
SWIDTH 1040 0
DWIDTH 13 0
BBX 10 8 2 -1
BITMAP
2080
4040
4040
8C40
8C40
8C40
9C80
6300
ENDCHAR
STARTCHAR 0401
ENCODING 1025
SWIDTH 1040 0
DWIDTH 13 0
BBX 10 12 1 -1
BITMAP
6700
2600
FF80
4040
4000
4100
7F00
4100
4140
4040
4040
FF80
ENDCHAR
STARTCHAR 0410
ENCODING 1040
SWIDTH 1040 0
DWIDTH 13 0
BBX 10 11 1 -1
BITMAP
0C00
0C00
1600
1600
2100
2100
3F00
4080
4080
4080
E1C0
ENDCHAR
STARTCHAR 0411
ENCODING 1041
SWIDTH 1040 0
DWIDTH 13 0
BBX 9 11 2 -1
BITMAP
FF80
4080
4080
4000
7E00
4100
4080
4080
4080
4100
FE00
ENDCHAR
STARTCHAR 0412
ENCODING 1042
SWIDTH 1040 0
DWIDTH 13 0
BBX 9 11 2 -1
BITMAP
FE00
4100
4080
4100
7E00
4100
4080
4080
4080
4100
FE00
ENDCHAR
STARTCHAR 0413
ENCODING 1043
SWIDTH 1040 0
DWIDTH 13 0
BBX 9 11 2 -1
BITMAP
FF80
4080
4080
4000
4000
4000
4000
4000
4000
4000
E000
ENDCHAR
STARTCHAR 0414
ENCODING 1044
SWIDTH 1040 0
DWIDTH 13 0
BBX 11 12 1 -2
BITMAP
3FE0
0C80
0C80
0C80
0C80
1080
1080
1080
1080
2080
FFE0
8020
ENDCHAR
STARTCHAR 0415
ENCODING 1045
SWIDTH 1040 0
DWIDTH 13 0
BBX 10 11 1 -1
BITMAP
FF80
4040
4000
4100
7F00
4100
4000
4040
4040
4040
FF80
ENDCHAR
STARTCHAR 0416
ENCODING 1046
SWIDTH 1040 0
DWIDTH 13 0
BBX 12 11 0 -1
BITMAP
4F20
A650
2640
2640
1F80
2640
2640
4660
4620
4620
EF70
ENDCHAR
STARTCHAR 0417
ENCODING 1047
SWIDTH 1040 0
DWIDTH 13 0
BBX 9 11 2 -1
BITMAP
3E00
4100
8080
0100
1E00
0100
0080
8080
8080
C100
BE00
ENDCHAR
STARTCHAR 0418
ENCODING 1048
SWIDTH 1040 0
DWIDTH 13 0
BBX 10 11 1 -1
BITMAP
E1C0
4080
4080
4180
4680
4C80
5080
7080
6080
4080
E1C0
ENDCHAR
STARTCHAR 0419
ENCODING 1049
SWIDTH 1040 0
DWIDTH 13 0
BBX 10 12 1 -1
BITMAP
1600
CCC0
4080
4080
4180
4680
4C80
5080
7080
6080
4080
E1C0
ENDCHAR
STARTCHAR 041A
ENCODING 1050
SWIDTH 1040 0
DWIDTH 13 0
BBX 11 11 1 -1
BITMAP
E080
4140
4600
4C00
7000
4C00
4600
4700
4100
4080
E0E0
ENDCHAR
STARTCHAR 041B
ENCODING 1051
SWIDTH 1040 0
DWIDTH 13 0
BBX 11 11 1 -1
BITMAP
3FE0
0C40
0C40
0C40
0C40
1040
1040
1040
1040
A040
40E0
ENDCHAR
STARTCHAR 041C
ENCODING 1052
SWIDTH 1040 0
DWIDTH 13 0
BBX 12 11 0 -1
BITMAP
6060
2040
30C0
30C0
2B40
4B20
4620
4620
4620
4620
E070
ENDCHAR
STARTCHAR 041D
ENCODING 1053
SWIDTH 1040 0
DWIDTH 13 0
BBX 10 11 1 -1
BITMAP
E1C0
4080
4080
4080
7F80
4080
4080
4080
4080
4080
E1C0
ENDCHAR
STARTCHAR 041E
ENCODING 1054
SWIDTH 1040 0
DWIDTH 13 0
BBX 11 11 1 -1
BITMAP
1F00
2080
4040
8020
8020
8020
8020
C060
4040
2080
1F00
ENDCHAR
STARTCHAR 041F
ENCODING 1055
SWIDTH 1040 0
DWIDTH 13 0
BBX 10 11 1 -1
BITMAP
FFC0
4080
4080
4080
4080
4080
4080
4080
4080
4080
E1C0
ENDCHAR
STARTCHAR 0420
ENCODING 1056
SWIDTH 1040 0
DWIDTH 13 0
BBX 9 11 2 -1
BITMAP
FE00
4100
4080
4080
4100
7E00
4000
4000
4000
4000
E000
ENDCHAR
STARTCHAR 0421
ENCODING 1057
SWIDTH 1040 0
DWIDTH 13 0
BBX 10 11 1 -1
BITMAP
1F40
20C0
4040
8000
8000
8000
8000
C040
4040
2080
1F00
ENDCHAR
STARTCHAR 0422
ENCODING 1058
SWIDTH 1040 0
DWIDTH 13 0
BBX 10 11 1 -1
BITMAP
7F80
8C40
8C40
0C00
0C00
0C00
0C00
0C00
0C00
0C00
1E00
ENDCHAR
STARTCHAR 0423
ENCODING 1059
SWIDTH 1040 0
DWIDTH 13 0
BBX 11 11 1 -1
BITMAP
E0E0
4040
2080
2080
1100
1100
0E00
0E00
0600
4C00
3000
ENDCHAR
STARTCHAR 0424
ENCODING 1060
SWIDTH 1040 0
DWIDTH 13 0
BBX 10 11 1 -1
BITMAP
1E00
0C00
3F00
4C80
8C40
8C40
4C80
4F80
3F00
0C00
1E00
ENDCHAR
STARTCHAR 0425
ENCODING 1061
SWIDTH 1040 0
DWIDTH 13 0
BBX 11 11 1 -1
BITMAP
E0E0
4040
2080
1100
0E00
0E00
1100
2180
2080
4040
E0E0
ENDCHAR
STARTCHAR 0426
ENCODING 1062
SWIDTH 1040 0
DWIDTH 13 0
BBX 11 12 1 -2
BITMAP
E1C0
4080
4080
4080
4080
4080
4080
4080
4080
4080
FFE0
0020
ENDCHAR
STARTCHAR 0427
ENCODING 1063
SWIDTH 1040 0
DWIDTH 13 0
BBX 10 11 1 -1
BITMAP
E1C0
4080
4080
4080
4080
2180
1E80
1E80
0080
0080
01C0
ENDCHAR
STARTCHAR 0428
ENCODING 1064
SWIDTH 1040 0
DWIDTH 13 0
BBX 12 11 0 -1
BITMAP
EF70
4620
4620
4620
4620
4620
4620
4620
4620
4620
FFF0
ENDCHAR
STARTCHAR 0429
ENCODING 1065
SWIDTH 1040 0
DWIDTH 13 0
BBX 13 12 0 -2
BITMAP
EF70
4620
4620
4620
4620
4620
4620
4620
4620
4620
FFF8
0008
ENDCHAR
STARTCHAR 042A
ENCODING 1066
SWIDTH 1040 0
DWIDTH 13 0
BBX 12 11 0 -1
BITMAP
7800
8800
0800
0FC0
0820
0810
0810
0810
0810
0820
1FC0
ENDCHAR
STARTCHAR 042B
ENCODING 1067
SWIDTH 1040 0
DWIDTH 13 0
BBX 12 11 0 -1
BITMAP
E070
4020
4020
7E20
4320
40A0
40A0
40A0
40A0
4320
FE70
ENDCHAR
STARTCHAR 042C
ENCODING 1068
SWIDTH 1040 0
DWIDTH 13 0
BBX 9 11 2 -1
BITMAP
E000
4000
4000
7E00
4100
4080
4080
4080
4080
4100
FE00
ENDCHAR
STARTCHAR 042D
ENCODING 1069
SWIDTH 1040 0
DWIDTH 13 0
BBX 9 11 2 -1
BITMAP
BE00
C100
8080
0080
3980
4E80
0080
8080
8080
4100
3E00
ENDCHAR
STARTCHAR 042E
ENCODING 1070
SWIDTH 1040 0
DWIDTH 13 0
BBX 13 11 0 -1
BITMAP
E3E0
4610
4808
4808
7808
4808
4808
4808
4808
4610
E3E0
ENDCHAR
STARTCHAR 042F
ENCODING 1071
SWIDTH 1040 0
DWIDTH 13 0
BBX 11 11 1 -1
BITMAP
1FE0
2040
4040
2040
1FC0
0C40
0C40
1C40
1040
2040
C0E0
ENDCHAR
STARTCHAR 0430
ENCODING 1072
SWIDTH 1040 0
DWIDTH 13 0
BBX 10 8 2 -1
BITMAP
3E00
4100
1F00
6100
8100
8100
8240
7D80
ENDCHAR
STARTCHAR 0431
ENCODING 1073
SWIDTH 1040 0
DWIDTH 13 0
BBX 9 12 2 -1
BITMAP
0100
3E00
4000
8000
BE00
C100
8080
8080
8080
8080
4100
3E00
ENDCHAR
STARTCHAR 0432
ENCODING 1074
SWIDTH 1040 0
DWIDTH 13 0
BBX 8 8 2 -1
BITMAP
FE
41
41
7E
41
41
41
FE
ENDCHAR
STARTCHAR 0433
ENCODING 1075
SWIDTH 1040 0
DWIDTH 13 0
BBX 8 8 2 -1
BITMAP
FE
41
40
40
40
40
40
E0
ENDCHAR
STARTCHAR 0434
ENCODING 1076
SWIDTH 1040 0
DWIDTH 13 0
BBX 9 9 2 -2
BITMAP
3F80
1900
1900
1900
2100
2100
2100
FF80
8080
ENDCHAR
STARTCHAR 0435
ENCODING 1077
SWIDTH 1040 0
DWIDTH 13 0
BBX 9 8 2 -1
BITMAP
3E00
4100
8080
FF80
8000
8000
4080
3F00
ENDCHAR
STARTCHAR 0436
ENCODING 1078
SWIDTH 1040 0
DWIDTH 13 0
BBX 12 8 0 -1
BITMAP
4F20
A650
1680
0F00
0F80
1F80
2640
EF70
ENDCHAR
STARTCHAR 0437
ENCODING 1079
SWIDTH 1040 0
DWIDTH 13 0
BBX 7 8 3 -1
BITMAP
BC
C2
02
3E
BE
82
82
7C
ENDCHAR
STARTCHAR 0438
ENCODING 1080
SWIDTH 1040 0
DWIDTH 13 0
BBX 9 8 2 -1
BITMAP
E380
4300
4D00
5900
7900
6100
4100
E380
ENDCHAR
STARTCHAR 0439
ENCODING 1081
SWIDTH 1040 0
DWIDTH 13 0
BBX 9 11 2 -1
BITMAP
4100
3E00
0000
E380
4300
4D00
5900
7900
6100
4100
E380
ENDCHAR
STARTCHAR 043A
ENCODING 1082
SWIDTH 1040 0
DWIDTH 13 0
BBX 9 8 2 -1
BITMAP
E200
4D00
5800
7800
4C00
4C00
4200
E380
ENDCHAR
STARTCHAR 043B
ENCODING 1083
SWIDTH 1040 0
DWIDTH 13 0
BBX 9 8 2 -1
BITMAP
3F80
1900
1900
1900
3900
2100
A100
4380
ENDCHAR
STARTCHAR 043C
ENCODING 1084
SWIDTH 1040 0
DWIDTH 13 0
BBX 10 8 1 -1
BITMAP
C0C0
6180
6180
5680
5680
5680
4C80
EDC0
ENDCHAR
STARTCHAR 043D
ENCODING 1085
SWIDTH 1040 0
DWIDTH 13 0
BBX 9 8 2 -1
BITMAP
E380
4100
4100
7F00
4100
4100
4100
E380
ENDCHAR
STARTCHAR 043E
ENCODING 1086
SWIDTH 1040 0
DWIDTH 13 0
BBX 9 8 2 -1
BITMAP
3E00
4100
8080
8080
8080
8080
4100
3E00
ENDCHAR
STARTCHAR 043F
ENCODING 1087
SWIDTH 1040 0
DWIDTH 13 0
BBX 9 8 2 -1
BITMAP
FF80
4100
4100
4100
4100
4100
4100
E380
ENDCHAR
STARTCHAR 0440
ENCODING 1088
SWIDTH 1040 0
DWIDTH 13 0
BBX 9 9 2 -2
BITMAP
DE00
6100
4080
4080
6180
6100
5E00
4000
E000
ENDCHAR
STARTCHAR 0441
ENCODING 1089
SWIDTH 1040 0
DWIDTH 13 0
BBX 8 8 2 -1
BITMAP
3E
41
80
80
80
80
41
3E
ENDCHAR
STARTCHAR 0442
ENCODING 1090
SWIDTH 1040 0
DWIDTH 13 0
BBX 8 8 2 -1
BITMAP
7E
99
18
18
18
18
18
3C
ENDCHAR
STARTCHAR 0443
ENCODING 1091
SWIDTH 1040 0
DWIDTH 13 0
BBX 9 9 2 -2
BITMAP
E380
4100
2100
1A00
1A00
0E00
0C00
4C00
3800
ENDCHAR
STARTCHAR 0444
ENCODING 1092
SWIDTH 1040 0
DWIDTH 13 0
BBX 10 12 1 -2
BITMAP
1E00
0C00
3F00
5E80
8C40
8C40
8C40
CEC0
5E80
3F00
0C00
1E00
ENDCHAR
STARTCHAR 0445
ENCODING 1093
SWIDTH 1040 0
DWIDTH 13 0
BBX 8 8 2 -1
BITMAP
EF
42
2C
18
3C
2C
42
EF
ENDCHAR
STARTCHAR 0446
ENCODING 1094
SWIDTH 1040 0
DWIDTH 13 0
BBX 9 9 2 -2
BITMAP
E380
4100
4100
4100
4100
4100
4100
FF80
0080
ENDCHAR
STARTCHAR 0447
ENCODING 1095
SWIDTH 1040 0
DWIDTH 13 0
BBX 9 8 2 -1
BITMAP
E380
4100
4100
3F00
3F00
0100
0100
0380
ENDCHAR
STARTCHAR 0448
ENCODING 1096
SWIDTH 1040 0
DWIDTH 13 0
BBX 8 8 2 -1
BITMAP
99
99
99
99
99
99
99
FF
ENDCHAR
STARTCHAR 0449
ENCODING 1097
SWIDTH 1040 0
DWIDTH 13 0
BBX 10 9 2 -2
BITMAP
9900
9900
9900
9900
9900
9900
9900
FFC0
0040
ENDCHAR
STARTCHAR 044A
ENCODING 1098
SWIDTH 1040 0
DWIDTH 13 0
BBX 11 8 1 -1
BITMAP
7C00
8C00
0FC0
0C20
0C20
0C20
0C20
1FC0
ENDCHAR
STARTCHAR 044B
ENCODING 1099
SWIDTH 1040 0
DWIDTH 13 0
BBX 11 8 1 -1
BITMAP
E0E0
4040
4040
7C40
4640
4640
4640
FCE0
ENDCHAR
STARTCHAR 044C
ENCODING 1100
SWIDTH 1040 0
DWIDTH 13 0
BBX 8 8 2 -1
BITMAP
E0
40
7E
41
41
41
41
FE
ENDCHAR
STARTCHAR 044D
ENCODING 1101
SWIDTH 1040 0
DWIDTH 13 0
BBX 8 8 2 -1
BITMAP
7E
81
23
5D
5D
01
81
7E
ENDCHAR
STARTCHAR 044E
ENCODING 1102
SWIDTH 1040 0
DWIDTH 13 0
BBX 11 8 1 -1
BITMAP
E780
4C40
5020
7020
5020
5020
4C40
E780
ENDCHAR
STARTCHAR 044F
ENCODING 1103
SWIDTH 1040 0
DWIDTH 13 0
BBX 9 8 2 -1
BITMAP
3F80
4100
4100
3F00
2100
2100
4100
E380
ENDCHAR
STARTCHAR 0451
ENCODING 1105
SWIDTH 1040 0
DWIDTH 13 0
BBX 9 11 2 -1
BITMAP
6300
6300
0000
3E00
4100
8080
FF80
8000
8000
4080
3F00
ENDCHAR
STARTCHAR 2000
ENCODING 8192
SWIDTH 1040 0
DWIDTH 13 0
BBX 0 0 0 0
BITMAP
ENDCHAR
STARTCHAR 2001
ENCODING 8193
SWIDTH 1040 0
DWIDTH 13 0
BBX 0 0 0 0
BITMAP
ENDCHAR
STARTCHAR 2002
ENCODING 8194
SWIDTH 1040 0
DWIDTH 13 0
BBX 0 0 0 0
BITMAP
ENDCHAR
STARTCHAR 2003
ENCODING 8195
SWIDTH 1040 0
DWIDTH 13 0
BBX 0 0 0 0
BITMAP
ENDCHAR
STARTCHAR 2004
ENCODING 8196
SWIDTH 1040 0
DWIDTH 13 0
BBX 0 0 0 0
BITMAP
ENDCHAR
STARTCHAR 2005
ENCODING 8197
SWIDTH 1040 0
DWIDTH 13 0
BBX 0 0 0 0
BITMAP
ENDCHAR
STARTCHAR 2006
ENCODING 8198
SWIDTH 1040 0
DWIDTH 13 0
BBX 0 0 0 0
BITMAP
ENDCHAR
STARTCHAR 2007
ENCODING 8199
SWIDTH 1040 0
DWIDTH 13 0
BBX 0 0 0 0
BITMAP
ENDCHAR
STARTCHAR 2008
ENCODING 8200
SWIDTH 1040 0
DWIDTH 13 0
BBX 0 0 0 0
BITMAP
ENDCHAR
STARTCHAR 2009
ENCODING 8201
SWIDTH 1040 0
DWIDTH 13 0
BBX 0 0 0 0
BITMAP
ENDCHAR
STARTCHAR 200A
ENCODING 8202
SWIDTH 1040 0
DWIDTH 13 0
BBX 0 0 0 0
BITMAP
ENDCHAR
STARTCHAR 200B
ENCODING 8203
SWIDTH 560 0
DWIDTH 7 0
BBX 0 0 0 0
BITMAP
ENDCHAR
STARTCHAR 200C
ENCODING 8204
SWIDTH 560 0
DWIDTH 7 0
BBX 0 0 0 0
BITMAP
ENDCHAR
STARTCHAR 200D
ENCODING 8205
SWIDTH 560 0
DWIDTH 7 0
BBX 0 0 0 0
BITMAP
ENDCHAR
STARTCHAR 200E
ENCODING 8206
SWIDTH 560 0
DWIDTH 7 0
BBX 0 0 0 0
BITMAP
ENDCHAR
STARTCHAR 200F
ENCODING 8207
SWIDTH 560 0
DWIDTH 7 0
BBX 0 0 0 0
BITMAP
ENDCHAR
STARTCHAR 2010
ENCODING 8208
SWIDTH 1040 0
DWIDTH 13 0
BBX 5 1 4 4
BITMAP
F8
ENDCHAR
STARTCHAR 2015
ENCODING 8213
SWIDTH 1040 0
DWIDTH 13 0
BBX 13 1 0 4
BITMAP
FFF8
ENDCHAR
STARTCHAR 2016
ENCODING 8214
SWIDTH 1040 0
DWIDTH 13 0
BBX 5 13 4 -2
BITMAP
88
88
88
88
88
88
88
88
88
88
88
88
88
ENDCHAR
STARTCHAR 2018
ENCODING 8216
SWIDTH 1040 0
DWIDTH 13 0
BBX 3 3 9 8
BITMAP
60
C0
C0
ENDCHAR
STARTCHAR 2019
ENCODING 8217
SWIDTH 1040 0
DWIDTH 13 0
BBX 3 3 1 8
BITMAP
60
60
C0
ENDCHAR
STARTCHAR 201C
ENCODING 8220
SWIDTH 1040 0
DWIDTH 13 0
BBX 7 3 5 8
BITMAP
76
EC
EC
ENDCHAR
STARTCHAR 201D
ENCODING 8221
SWIDTH 1040 0
DWIDTH 13 0
BBX 7 3 1 8
BITMAP
6E
6E
DC
ENDCHAR
STARTCHAR 2020
ENCODING 8224
SWIDTH 1040 0
DWIDTH 13 0
BBX 10 13 1 -2
BITMAP
1E00
1E00
4C80
FFC0
4C80
1E00
1E00
1E00
1E00
1E00
0C00
0C00
0C00
ENDCHAR
STARTCHAR 2021
ENCODING 8225
SWIDTH 1040 0
DWIDTH 13 0
BBX 10 13 1 -2
BITMAP
1E00
1E00
4C80
FFC0
4C80
0C00
0C00
4C80
4CC0
FFC0
4C80
1E00
1E00
ENDCHAR
STARTCHAR 2025
ENCODING 8229
SWIDTH 1040 0
DWIDTH 13 0
BBX 9 2 2 4
BITMAP
C180
C180
ENDCHAR
STARTCHAR 2026
ENCODING 8230
SWIDTH 1040 0
DWIDTH 13 0
BBX 11 2 1 4
BITMAP
CE60
CE60
ENDCHAR
STARTCHAR 2030
ENCODING 8240
SWIDTH 1040 0
DWIDTH 13 0
BBX 13 13 0 -2
BITMAP
6300
9600
9600
9800
6800
1000
1000
2E30
3F48
3348
5348
5348
8E30
ENDCHAR
STARTCHAR 2032
ENCODING 8242
SWIDTH 1040 0
DWIDTH 13 0
BBX 3 3 2 7
BITMAP
60
40
80
ENDCHAR
STARTCHAR 2033
ENCODING 8243
SWIDTH 1040 0
DWIDTH 13 0
BBX 7 3 0 7
BITMAP
6E
48
90
ENDCHAR
STARTCHAR 203B
ENCODING 8251
SWIDTH 1040 0
DWIDTH 13 0
BBX 11 11 1 -1
BITMAP
8E20
4E40
2080
1100
CE60
CE60
1100
3180
2080
4E40
8E20
ENDCHAR
STARTCHAR 203E
ENCODING 8254
SWIDTH 560 0
DWIDTH 7 0
BBX 5 1 0 8
BITMAP
F8
ENDCHAR
STARTCHAR 2103
ENCODING 8451
SWIDTH 1040 0
DWIDTH 13 0
BBX 12 12 0 -2
BITMAP
43D0
A630
4810
1000
1000
1000
1000
1000
1000
0810
0620
03C0
ENDCHAR
STARTCHAR 212B
ENCODING 8491
SWIDTH 1040 0
DWIDTH 13 0
BBX 10 12 1 -1
BITMAP
0C00
1600
1600
0C00
1600
1600
2100
3F00
4080
4080
4080
E1C0
ENDCHAR
STARTCHAR 2190
ENCODING 8592
SWIDTH 1040 0
DWIDTH 13 0
BBX 13 6 0 2
BITMAP
0E00
3000
FFF8
3000
0E00
0E00
ENDCHAR
STARTCHAR 2191
ENCODING 8593
SWIDTH 1040 0
DWIDTH 13 0
BBX 6 13 3 -2
BITMAP
30
30
78
78
B4
B4
30
30
30
30
30
30
30
ENDCHAR
STARTCHAR 2192
ENCODING 8594
SWIDTH 1040 0
DWIDTH 13 0
BBX 13 6 0 2
BITMAP
0380
0060
FFF8
0060
0380
0380
ENDCHAR
STARTCHAR 2193
ENCODING 8595
SWIDTH 1040 0
DWIDTH 13 0
BBX 6 13 3 -2
BITMAP
30
30
30
30
30
30
B4
B4
B8
78
78
30
30
ENDCHAR
STARTCHAR 21D2
ENCODING 8658
SWIDTH 1040 0
DWIDTH 13 0
BBX 13 9 0 0
BITMAP
0040
0020
FFF0
0008
0008
FFF0
FFE0
0020
0040
ENDCHAR
STARTCHAR 21D4
ENCODING 8660
SWIDTH 1040 0
DWIDTH 13 0
BBX 13 9 0 0
BITMAP
1040
2020
7FF0
8008
8008
7FF0
6020
2020
1040
ENDCHAR
STARTCHAR 2200
ENCODING 8704
SWIDTH 1040 0
DWIDTH 13 0
BBX 10 11 1 -1
BITMAP
8040
8040
4080
7F80
2100
2100
1600
1600
1600
0C00
0C00
ENDCHAR
STARTCHAR 2202
ENCODING 8706
SWIDTH 1040 0
DWIDTH 13 0
BBX 9 11 2 -1
BITMAP
1F00
2080
0080
1C80
2280
4100
8100
8300
8200
4C00
3800
ENDCHAR
STARTCHAR 2203
ENCODING 8707
SWIDTH 1040 0
DWIDTH 13 0
BBX 9 10 2 0
BITMAP
FF80
0080
0080
0080
FF80
0080
0080
0080
0080
FF80
ENDCHAR
STARTCHAR 2207
ENCODING 8711
SWIDTH 1040 0
DWIDTH 13 0
BBX 12 12 0 -2
BITMAP
FFF0
7FE0
6020
3040
3040
1880
1880
1900
0F00
0F00
0600
0600
ENDCHAR
STARTCHAR 2208
ENCODING 8712
SWIDTH 1040 0
DWIDTH 13 0
BBX 9 8 2 1
BITMAP
3F80
4000
8000
FF80
8000
4000
7F80
3F80
ENDCHAR
STARTCHAR 220B
ENCODING 8715
SWIDTH 1040 0
DWIDTH 13 0
BBX 9 8 2 1
BITMAP
FE00
0100
0080
FF80
0080
0100
FF00
FE00
ENDCHAR
STARTCHAR 2212
ENCODING 8722
SWIDTH 1040 0
DWIDTH 13 0
BBX 10 1 1 5
BITMAP
FFC0
ENDCHAR
STARTCHAR 221D
ENCODING 8733
SWIDTH 1040 0
DWIDTH 13 0
BBX 11 7 0 1
BITMAP
30C0
4B20
8600
8600
4B20
5340
30C0
ENDCHAR
STARTCHAR 221E
ENCODING 8734
SWIDTH 1040 0
DWIDTH 13 0
BBX 12 7 0 1
BITMAP
30C0
4B20
8610
8610
4B20
5340
30C0
ENDCHAR
STARTCHAR 2227
ENCODING 8743
SWIDTH 1040 0
DWIDTH 13 0
BBX 10 11 1 -1
BITMAP
0C00
0C00
1600
1600
2100
2100
4080
4080
4080
8040
8040
ENDCHAR
STARTCHAR 2228
ENCODING 8744
SWIDTH 1040 0
DWIDTH 13 0
BBX 10 11 1 -1
BITMAP
8040
8040
4080
4080
2100
2100
1600
1600
1600
0C00
0C00
ENDCHAR
STARTCHAR 222C
ENCODING 8748
SWIDTH 1040 0
DWIDTH 13 0
BBX 9 13 2 -2
BITMAP
2100
5A80
4200
4200
4200
4200
2100
2100
2100
2100
2100
AD00
4200
ENDCHAR
STARTCHAR 2234
ENCODING 8756
SWIDTH 1040 0
DWIDTH 13 0
BBX 9 9 2 0
BITMAP
1C00
1C00
0000
0000
0000
0000
C180
C180
C180
ENDCHAR
STARTCHAR 223D
ENCODING 8765
SWIDTH 1040 0
DWIDTH 13 0
BBX 12 7 0 1
BITMAP
30C0
4320
8610
8610
4820
50E0
30C0
ENDCHAR
STARTCHAR 2260
ENCODING 8800
SWIDTH 1040 0
DWIDTH 13 0
BBX 11 11 1 -1
BITMAP
0080
0100
0100
FFE0
0600
0C00
FFE0
F000
1000
1000
2000
ENDCHAR
STARTCHAR 2266
ENCODING 8806
SWIDTH 1040 0
DWIDTH 13 0
BBX 11 12 1 -2
BITMAP
0060
0780
3C00
C000
3C00
0780
0060
0060
0000
FFE0
0000
FFE0
ENDCHAR
STARTCHAR 2267
ENCODING 8807
SWIDTH 1040 0
DWIDTH 13 0
BBX 11 12 1 -2
BITMAP
C000
3C00
0780
0060
0780
3C00
C000
C000
0000
FFE0
0000
FFE0
ENDCHAR
STARTCHAR 226A
ENCODING 8810
SWIDTH 1040 0
DWIDTH 13 0
BBX 10 10 1 -1
BITMAP
0C40
1080
2100
4600
8C00
4600
6700
2100
1080
0C40
ENDCHAR
STARTCHAR 226B
ENCODING 8811
SWIDTH 1040 0
DWIDTH 13 0
BBX 10 10 2 -1
BITMAP
8C00
4200
2100
1880
0C40
1880
3980
2100
4200
8C00
ENDCHAR
STARTCHAR 2282
ENCODING 8834
SWIDTH 1040 0
DWIDTH 13 0
BBX 11 9 1 0
BITMAP
3FE0
4000
8000
8000
8000
8000
C000
4000
3FE0
ENDCHAR
STARTCHAR 2283
ENCODING 8835
SWIDTH 1040 0
DWIDTH 13 0
BBX 11 9 1 0
BITMAP
FF80
0040
0020
0020
0020
0020
0060
0040
FF80
ENDCHAR
STARTCHAR 2286
ENCODING 8838
SWIDTH 1040 0
DWIDTH 13 0
BBX 11 10 1 -1
BITMAP
3FE0
4000
8000
8000
4000
3FE0
3FE0
0000
0000
7FE0
ENDCHAR
STARTCHAR 2287
ENCODING 8839
SWIDTH 1040 0
DWIDTH 13 0
BBX 11 10 1 -1
BITMAP
FF80
0040
0020
0020
0040
FF80
FF80
0000
0000
FFC0
ENDCHAR
STARTCHAR 2312
ENCODING 8978
SWIDTH 1040 0
DWIDTH 13 0
BBX 11 3 1 8
BITMAP
1F00
60C0
8020
ENDCHAR
STARTCHAR 2583
ENCODING 9603
SWIDTH 1040 0
DWIDTH 13 0
BBX 6 11 1 -1
BITMAP
8C
4C
2C
10
EC
EC
10
3C
2C
4C
8C
ENDCHAR
STARTCHAR 2584
ENCODING 9604
SWIDTH 1040 0
DWIDTH 13 0
BBX 6 11 1 -1
BITMAP
8C
4C
2C
10
EC
EC
10
3C
2C
4C
8C
ENDCHAR
STARTCHAR 2585
ENCODING 9605
SWIDTH 1040 0
DWIDTH 13 0
BBX 6 11 1 -1
BITMAP
8C
4C
2C
10
EC
EC
10
3C
2C
4C
8C
ENDCHAR
STARTCHAR 2586
ENCODING 9606
SWIDTH 1040 0
DWIDTH 13 0
BBX 6 11 1 -1
BITMAP
8C
4C
2C
10
EC
EC
10
3C
2C
4C
8C
ENDCHAR
STARTCHAR 2587
ENCODING 9607
SWIDTH 1040 0
DWIDTH 13 0
BBX 6 11 1 -1
BITMAP
8C
4C
2C
10
EC
EC
10
3C
2C
4C
8C
ENDCHAR
STARTCHAR 2588
ENCODING 9608
SWIDTH 1040 0
DWIDTH 13 0
BBX 6 11 1 -1
BITMAP
8C
4C
2C
10
EC
EC
10
3C
2C
4C
8C
ENDCHAR
STARTCHAR 2589
ENCODING 9609
SWIDTH 1040 0
DWIDTH 13 0
BBX 6 11 1 -1
BITMAP
8C
4C
2C
10
EC
EC
10
3C
2C
4C
8C
ENDCHAR
STARTCHAR 258A
ENCODING 9610
SWIDTH 1040 0
DWIDTH 13 0
BBX 6 11 1 -1
BITMAP
8C
4C
2C
10
EC
EC
10
3C
2C
4C
8C
ENDCHAR
STARTCHAR 258B
ENCODING 9611
SWIDTH 1040 0
DWIDTH 13 0
BBX 6 11 1 -1
BITMAP
8C
4C
2C
10
EC
EC
10
3C
2C
4C
8C
ENDCHAR
STARTCHAR 258C
ENCODING 9612
SWIDTH 1040 0
DWIDTH 13 0
BBX 6 11 1 -1
BITMAP
8C
4C
2C
10
EC
EC
10
3C
2C
4C
8C
ENDCHAR
STARTCHAR 258D
ENCODING 9613
SWIDTH 1040 0
DWIDTH 13 0
BBX 6 11 1 -1
BITMAP
8C
4C
2C
10
EC
EC
10
3C
2C
4C
8C
ENDCHAR
STARTCHAR 258E
ENCODING 9614
SWIDTH 1040 0
DWIDTH 13 0
BBX 6 11 1 -1
BITMAP
8C
4C
2C
10
EC
EC
10
3C
2C
4C
8C
ENDCHAR
STARTCHAR 258F
ENCODING 9615
SWIDTH 1040 0
DWIDTH 13 0
BBX 6 11 1 -1
BITMAP
8C
4C
2C
10
EC
EC
10
3C
2C
4C
8C
ENDCHAR
STARTCHAR 25A0
ENCODING 9632
SWIDTH 1040 0
DWIDTH 13 0
BBX 13 13 0 -2
BITMAP
FFF8
FFF8
FFF8
FFF8
FFF8
FFF8
FFF8
FFF8
FFF8
FFF8
FFF8
FFF8
FFF8
ENDCHAR
STARTCHAR 25A1
ENCODING 9633
SWIDTH 1040 0
DWIDTH 13 0
BBX 13 13 0 -2
BITMAP
FFF8
8008
8008
8008
8008
8008
8008
8008
8008
8008
8008
8008
FFF8
ENDCHAR
STARTCHAR 25B2
ENCODING 9650
SWIDTH 1040 0
DWIDTH 13 0
BBX 12 12 0 -2
BITMAP
0600
0600
0F00
0F00
1F80
1F80
3FC0
3FC0
3FC0
7FE0
7FE0
FFF0
ENDCHAR
STARTCHAR 25B3
ENCODING 9651
SWIDTH 1040 0
DWIDTH 13 0
BBX 12 12 0 -2
BITMAP
0600
0600
0B00
0B00
1080
1080
2040
2040
2040
4020
4020
FFF0
ENDCHAR
STARTCHAR 25BC
ENCODING 9660
SWIDTH 1040 0
DWIDTH 13 0
BBX 12 12 0 -2
BITMAP
FFF0
7FE0
7FE0
3FC0
3FC0
1F80
1F80
1F00
0F00
0F00
0600
0600
ENDCHAR
STARTCHAR 25BD
ENCODING 9661
SWIDTH 1040 0
DWIDTH 13 0
BBX 12 12 0 -2
BITMAP
FFF0
4020
4020
2040
2040
1080
1080
1900
0B00
0B00
0600
0600
ENDCHAR
STARTCHAR 25C6
ENCODING 9670
SWIDTH 1040 0
DWIDTH 13 0
BBX 13 13 0 -2
BITMAP
0700
0F80
1FC0
3FE0
7FF0
FFF8
FFF8
7FF0
7FE0
3FE0
1FC0
0F80
0700
ENDCHAR
STARTCHAR 25C7
ENCODING 9671
SWIDTH 1040 0
DWIDTH 13 0
BBX 13 13 0 -2
BITMAP
0700
0880
1040
2020
4010
8008
8008
4010
6020
2020
1040
0880
0700
ENDCHAR
STARTCHAR 25CB
ENCODING 9675
SWIDTH 1040 0
DWIDTH 13 0
BBX 13 13 0 -2
BITMAP
0F80
3060
4010
4010
8008
8008
8008
8008
C018
4010
4010
3060
0F80
ENDCHAR
STARTCHAR 25CE
ENCODING 9678
SWIDTH 1040 0
DWIDTH 13 0
BBX 13 13 0 -2
BITMAP
0F80
3060
4F90
5050
A028
A028
A028
A028
F078
5050
4F90
3060
0F80
ENDCHAR
STARTCHAR 25CF
ENCODING 9679
SWIDTH 1040 0
DWIDTH 13 0
BBX 13 13 0 -2
BITMAP
0F80
3FE0
7FF0
7FF0
FFF8
FFF8
FFF8
FFF8
FFF0
7FF0
7FF0
3FE0
0F80
ENDCHAR
STARTCHAR 25EF
ENCODING 9711
SWIDTH 1040 0
DWIDTH 13 0
BBX 13 13 0 -2
BITMAP
1FC0
2020
4010
8008
8008
8008
8008
8008
8008
8008
4010
2020
1FC0
ENDCHAR
STARTCHAR 2605
ENCODING 9733
SWIDTH 1040 0
DWIDTH 13 0
BBX 12 11 0 -1
BITMAP
0600
0600
0F00
FFF0
7FE0
3FC0
1F80
1FC0
3FC0
3BC0
6060
ENDCHAR
STARTCHAR 2606
ENCODING 9734
SWIDTH 1040 0
DWIDTH 13 0
BBX 12 11 0 -1
BITMAP
0600
0600
0B00
FBF0
4020
2040
1080
36C0
2640
3BC0
6060
ENDCHAR
STARTCHAR 2640
ENCODING 9792
SWIDTH 1040 0
DWIDTH 13 0
BBX 8 12 2 -2
BITMAP
3C
42
42
42
3C
18
18
1F
FF
18
18
18
ENDCHAR
STARTCHAR 2642
ENCODING 9794
SWIDTH 1040 0
DWIDTH 13 0
BBX 11 11 1 -1
BITMAP
07E0
0060
00A0
0120
0620
7C00
8C00
8C00
8C00
8C00
7000
ENDCHAR
STARTCHAR 266A
ENCODING 9834
SWIDTH 1040 0
DWIDTH 13 0
BBX 9 13 2 -2
BITMAP
0C00
0E00
0F00
0D80
0C80
0C80
0C80
0D00
0D00
0C00
7C00
FC00
F800
ENDCHAR
STARTCHAR 266D
ENCODING 9837
SWIDTH 1040 0
DWIDTH 13 0
BBX 6 13 4 -2
BITMAP
80
80
80
80
B8
E4
84
84
84
84
88
B0
E0
ENDCHAR
STARTCHAR 266F
ENCODING 9839
SWIDTH 1040 0
DWIDTH 13 0
BBX 9 12 2 -2
BITMAP
0200
2200
2380
3E00
E200
2200
2380
2200
3E00
E200
2200
2000
ENDCHAR
STARTCHAR 3000
ENCODING 12288
SWIDTH 1040 0
DWIDTH 13 0
BBX 0 0 0 0
BITMAP
ENDCHAR
STARTCHAR 3001
ENCODING 12289
SWIDTH 1040 0
DWIDTH 13 0
BBX 3 3 1 -2
BITMAP
80
60
60
ENDCHAR
STARTCHAR 3002
ENCODING 12290
SWIDTH 1040 0
DWIDTH 13 0
BBX 4 3 1 -2
BITMAP
60
90
60
ENDCHAR
STARTCHAR 3003
ENCODING 12291
SWIDTH 1040 0
DWIDTH 13 0
BBX 6 8 3 0
BITMAP
44
44
44
44
44
88
98
98
ENDCHAR
STARTCHAR 3005
ENCODING 12293
SWIDTH 1040 0
DWIDTH 13 0
BBX 8 10 2 -1
BITMAP
20
3F
21
41
81
3A
3E
0C
02
02
ENDCHAR
STARTCHAR 3006
ENCODING 12294
SWIDTH 1040 0
DWIDTH 13 0
BBX 11 10 1 0
BITMAP
0060
0080
0100
3600
4C00
9600
A100
A100
A000
C000
ENDCHAR
STARTCHAR 3007
ENCODING 12295
SWIDTH 1040 0
DWIDTH 13 0
BBX 13 11 0 -1
BITMAP
0F80
3060
4010
8008
8008
8008
8008
C018
4010
3060
0F80
ENDCHAR
STARTCHAR 3008
ENCODING 12296
SWIDTH 1040 0
DWIDTH 13 0
BBX 5 13 6 -2
BITMAP
08
10
10
20
20
C0
C0
20
20
20
10
10
08
ENDCHAR
STARTCHAR 3009
ENCODING 12297
SWIDTH 1040 0
DWIDTH 13 0
BBX 5 13 2 -2
BITMAP
80
40
40
20
20
18
18
20
20
20
40
40
80
ENDCHAR
STARTCHAR 300A
ENCODING 12298
SWIDTH 1040 0
DWIDTH 13 0
BBX 8 13 4 -2
BITMAP
09
32
32
64
64
88
88
64
64
64
32
32
09
ENDCHAR
STARTCHAR 300B
ENCODING 12299
SWIDTH 1040 0
DWIDTH 13 0
BBX 8 13 1 -2
BITMAP
90
4C
4C
26
26
11
11
26
26
26
4C
4C
90
ENDCHAR
STARTCHAR 300C
ENCODING 12300
SWIDTH 1040 0
DWIDTH 13 0
BBX 5 9 6 2
BITMAP
F8
C0
C0
C0
C0
C0
C0
C0
C0
ENDCHAR
STARTCHAR 300D
ENCODING 12301
SWIDTH 1040 0
DWIDTH 13 0
BBX 5 9 2 -2
BITMAP
18
18
18
18
18
18
18
18
F8
ENDCHAR
STARTCHAR 300E
ENCODING 12302
SWIDTH 1040 0
DWIDTH 13 0
BBX 6 9 6 2
BITMAP
FC
C4
DC
D0
D0
D0
D0
F0
F0
ENDCHAR
STARTCHAR 300F
ENCODING 12303
SWIDTH 1040 0
DWIDTH 13 0
BBX 6 9 1 -2
BITMAP
3C
2C
2C
2C
2C
2C
EC
8C
FC
ENDCHAR
STARTCHAR 3010
ENCODING 12304
SWIDTH 1040 0
DWIDTH 13 0
BBX 5 13 6 -2
BITMAP
F8
F0
F0
E0
E0
E0
E0
E0
E0
E0
F0
F0
F8
ENDCHAR
STARTCHAR 3011
ENCODING 12305
SWIDTH 1040 0
DWIDTH 13 0
BBX 5 13 2 -2
BITMAP
F8
78
78
38
38
38
38
38
38
38
78
78
F8
ENDCHAR
STARTCHAR 3012
ENCODING 12306
SWIDTH 1040 0
DWIDTH 13 0
BBX 13 12 0 -2
BITMAP
7FF0
7FF0
0000
FFF8
FFF8
0700
0700
0700
0700
0700
0700
0700
ENDCHAR
STARTCHAR 3013
ENCODING 12307
SWIDTH 1040 0
DWIDTH 13 0
BBX 13 9 0 0
BITMAP
FFF8
FFF8
FFF8
0000
0000
FFF8
FFF8
FFF8
FFF8
ENDCHAR
STARTCHAR 3014
ENCODING 12308
SWIDTH 1040 0
DWIDTH 13 0
BBX 5 13 6 -2
BITMAP
18
E0
C0
C0
C0
C0
C0
C0
C0
C0
C0
E0
18
ENDCHAR
STARTCHAR 3015
ENCODING 12309
SWIDTH 1040 0
DWIDTH 13 0
BBX 5 13 2 -2
BITMAP
C0
38
18
18
18
18
18
18
18
18
18
38
C0
ENDCHAR
STARTCHAR 301C
ENCODING 12316
SWIDTH 1040 0
DWIDTH 13 0
BBX 13 5 0 2
BITMAP
7000
8E00
0388
0070
0070
ENDCHAR
STARTCHAR 3041
ENCODING 12353
SWIDTH 1040 0
DWIDTH 13 0
BBX 9 10 2 -2
BITMAP
2000
2000
FF00
2200
7E00
E300
A300
AC80
9880
6300
ENDCHAR
STARTCHAR 3042
ENCODING 12354
SWIDTH 1040 0
DWIDTH 13 0
BBX 12 13 0 -2
BITMAP
0800
0800
7FC0
0800
0880
1FC0
28A0
4B10
8B10
8B10
8E10
9810
6620
ENDCHAR
STARTCHAR 3043
ENCODING 12355
SWIDTH 1040 0
DWIDTH 13 0
BBX 9 8 2 -2
BITMAP
8000
8100
8080
8080
8080
8080
A080
4000
ENDCHAR
STARTCHAR 3044
ENCODING 12356
SWIDTH 1040 0
DWIDTH 13 0
BBX 12 12 0 -2
BITMAP
8000
8040
8020
8020
8010
8010
8070
C070
4010
4000
2800
1000
ENDCHAR
STARTCHAR 3045
ENCODING 12357
SWIDTH 1040 0
DWIDTH 13 0
BBX 7 10 3 -2
BITMAP
38
04
00
FC
02
02
02
02
04
38
ENDCHAR
STARTCHAR 3046
ENCODING 12358
SWIDTH 1040 0
DWIDTH 13 0
BBX 8 13 2 -2
BITMAP
60
1E
00
3E
C1
01
01
01
01
01
02
0C
38
ENDCHAR
STARTCHAR 3047
ENCODING 12359
SWIDTH 1040 0
DWIDTH 13 0
BBX 9 10 2 -2
BITMAP
2000
1C00
0000
3E00
0C00
1C00
1800
3800
4C80
8300
ENDCHAR
STARTCHAR 3048
ENCODING 12360
SWIDTH 1040 0
DWIDTH 13 0
BBX 11 13 1 -2
BITMAP
1C00
0700
0000
3F00
0100
0600
0C00
1000
1000
3000
4C00
8620
01C0
ENDCHAR
STARTCHAR 3049
ENCODING 12361
SWIDTH 1040 0
DWIDTH 13 0
BBX 10 10 1 -2
BITMAP
1000
1080
7E40
1000
1F80
1040
7040
9040
9040
7180
ENDCHAR
STARTCHAR 304A
ENCODING 12362
SWIDTH 1040 0
DWIDTH 13 0
BBX 12 13 0 -2
BITMAP
1000
1000
1060
7E10
1000
1F80
3040
5020
9020
9020
9020
5040
3380
ENDCHAR
STARTCHAR 304B
ENCODING 12363
SWIDTH 1040 0
DWIDTH 13 0
BBX 13 13 0 -2
BITMAP
0800
0800
0800
FF20
1090
1088
1088
2098
2098
2080
4300
8B00
0600
ENDCHAR
STARTCHAR 304C
ENCODING 12364
SWIDTH 1040 0
DWIDTH 13 0
BBX 13 13 0 -2
BITMAP
0810
0828
0810
FF20
1090
1088
1088
2098
2098
2080
4300
8B00
0600
ENDCHAR
STARTCHAR 304D
ENCODING 12365
SWIDTH 1040 0
DWIDTH 13 0
BBX 9 13 2 -2
BITMAP
1800
1800
FF00
0C00
7F80
0C00
0200
7E00
8100
8100
8000
4000
3E00
ENDCHAR
STARTCHAR 304E
ENCODING 12366
SWIDTH 1040 0
DWIDTH 13 0
BBX 11 13 2 -2
BITMAP
1840
1820
FF40
0C20
7F80
0C00
0200
7E00
8100
8100
8000
4000
3E00
ENDCHAR
STARTCHAR 304F
ENCODING 12367
SWIDTH 1040 0
DWIDTH 13 0
BBX 6 13 3 -2
BITMAP
04
04
18
30
40
80
40
30
38
18
18
04
04
ENDCHAR
STARTCHAR 3050
ENCODING 12368
SWIDTH 1040 0
DWIDTH 13 0
BBX 10 13 3 -2
BITMAP
0080
0440
0500
1880
3000
4000
8000
4000
7000
3000
1800
0400
0200
ENDCHAR
STARTCHAR 3051
ENCODING 12369
SWIDTH 1040 0
DWIDTH 13 0
BBX 12 13 1 -2
BITMAP
8040
8040
8040
8FF0
8040
8040
8040
8040
A040
A040
A040
4080
4080
ENDCHAR
STARTCHAR 3052
ENCODING 12370
SWIDTH 1040 0
DWIDTH 13 0
BBX 13 13 0 -2
BITMAP
8050
8048
8050
8FE8
8040
8040
8040
8040
A040
A040
A040
4080
4080
ENDCHAR
STARTCHAR 3053
ENCODING 12371
SWIDTH 1040 0
DWIDTH 13 0
BBX 10 12 1 -2
BITMAP
3F00
0080
0100
0000
0000
0000
4000
8000
8000
8000
4040
3F80
ENDCHAR
STARTCHAR 3054
ENCODING 12372
SWIDTH 1040 0
DWIDTH 13 0
BBX 13 13 0 -2
BITMAP
0010
3F08
00A0
0310
0000
0000
0000
4000
8000
8000
8000
4040
3F80
ENDCHAR
STARTCHAR 3055
ENCODING 12373
SWIDTH 1040 0
DWIDTH 13 0
BBX 9 13 2 -2
BITMAP
1800
1800
FF80
0C00
0200
0200
3F00
4100
8100
8000
8000
4000
3E00
ENDCHAR
STARTCHAR 3056
ENCODING 12374
SWIDTH 1040 0
DWIDTH 13 0
BBX 12 13 1 -2
BITMAP
1020
1010
FF40
0C20
0600
0600
3F00
4100
8100
8000
8000
4000
3E00
ENDCHAR
STARTCHAR 3057
ENCODING 12375
SWIDTH 1040 0
DWIDTH 13 0
BBX 8 13 2 -2
BITMAP
80
80
80
80
80
80
80
80
80
80
81
42
3C
ENDCHAR
STARTCHAR 3058
ENCODING 12376
SWIDTH 1040 0
DWIDTH 13 0
BBX 9 13 3 -2
BITMAP
8100
8480
8200
8000
8000
8000
8000
8000
8000
8000
8100
4200
3C00
ENDCHAR
STARTCHAR 3059
ENCODING 12377
SWIDTH 1040 0
DWIDTH 13 0
BBX 12 13 0 -2
BITMAP
0300
0300
FFF0
0300
1F00
2300
2300
2300
2300
1F00
0600
0600
0800
ENDCHAR
STARTCHAR 305A
ENCODING 12378
SWIDTH 1040 0
DWIDTH 13 0
BBX 13 13 0 -2
BITMAP
0350
0328
FFF0
0300
1F00
2300
2300
2300
2300
1F00
0600
0600
0800
ENDCHAR
STARTCHAR 305B
ENCODING 12379
SWIDTH 1040 0
DWIDTH 13 0
BBX 13 13 0 -2
BITMAP
0080
2080
2080
2080
FFF8
2080
2080
2080
2080
2380
2000
1000
0FE0
ENDCHAR
STARTCHAR 305C
ENCODING 12380
SWIDTH 1040 0
DWIDTH 13 0
BBX 13 13 0 -2
BITMAP
00D0
20A8
2080
2080
FFF8
2080
2080
2080
2080
2380
2000
1000
0FE0
ENDCHAR
STARTCHAR 305D
ENCODING 12381
SWIDTH 1040 0
DWIDTH 13 0
BBX 11 13 1 -2
BITMAP
3F80
0600
0C00
1000
2000
FFE0
0C00
1000
1000
1000
1000
0C00
0780
ENDCHAR
STARTCHAR 305E
ENCODING 12382
SWIDTH 1040 0
DWIDTH 13 0
BBX 12 13 1 -2
BITMAP
3F80
0620
0C90
1040
2000
FFE0
0C00
1000
1000
1000
1000
0C00
0780
ENDCHAR
STARTCHAR 305F
ENCODING 12383
SWIDTH 1040 0
DWIDTH 13 0
BBX 11 13 1 -2
BITMAP
1000
1000
FE00
2000
2000
41C0
4020
8000
8000
8000
0000
0C00
07E0
ENDCHAR
STARTCHAR 3060
ENCODING 12384
SWIDTH 1040 0
DWIDTH 13 0
BBX 12 13 1 -2
BITMAP
1020
1090
FE40
2000
2000
41C0
4020
8000
8000
8000
0000
0C00
07E0
ENDCHAR
STARTCHAR 3061
ENCODING 12385
SWIDTH 1040 0
DWIDTH 13 0
BBX 10 13 1 -2
BITMAP
1000
1000
FF00
1000
1000
2000
2F80
7040
4040
4040
0040
0080
0F00
ENDCHAR
STARTCHAR 3062
ENCODING 12386
SWIDTH 1040 0
DWIDTH 13 0
BBX 12 13 1 -2
BITMAP
1020
1090
FF40
1000
1000
2000
2F80
7040
4040
4040
0040
0080
0F00
ENDCHAR
STARTCHAR 3063
ENCODING 12387
SWIDTH 1040 0
DWIDTH 13 0
BBX 9 7 2 -2
BITMAP
3E00
C100
C180
0080
0080
0100
0E00
ENDCHAR
STARTCHAR 3064
ENCODING 12388
SWIDTH 1040 0
DWIDTH 13 0
BBX 11 10 1 -1
BITMAP
1F80
E040
0020
0020
0020
0040
00C0
0080
0700
3C00
ENDCHAR
STARTCHAR 3065
ENCODING 12389
SWIDTH 1040 0
DWIDTH 13 0
BBX 12 12 1 -1
BITMAP
00A0
0050
1F80
E040
0020
0020
0020
0040
00C0
0080
0700
3C00
ENDCHAR
STARTCHAR 3066
ENCODING 12390
SWIDTH 1040 0
DWIDTH 13 0
BBX 12 12 0 -2
BITMAP
00F0
FF80
0300
0600
0800
0800
0800
0800
0800
0600
0700
00C0
ENDCHAR
STARTCHAR 3067
ENCODING 12391
SWIDTH 1040 0
DWIDTH 13 0
BBX 13 12 0 -2
BITMAP
00F0
FF80
0310
0648
0820
0800
0800
0800
0800
0600
0700
00C0
ENDCHAR
STARTCHAR 3068
ENCODING 12392
SWIDTH 1040 0
DWIDTH 13 0
BBX 9 13 2 -2
BITMAP
4000
4000
4000
4000
2380
3C00
4000
4000
8000
8000
8000
4000
3F80
ENDCHAR
STARTCHAR 3069
ENCODING 12393
SWIDTH 1040 0
DWIDTH 13 0
BBX 11 13 2 -2
BITMAP
4040
4120
4080
4000
2380
3C00
4000
4000
8000
8000
8000
4000
3F80
ENDCHAR
STARTCHAR 306A
ENCODING 12394
SWIDTH 1040 0
DWIDTH 13 0
BBX 12 13 0 -2
BITMAP
1000
1000
FF00
2060
2010
4080
4080
8080
8080
0080
0FC0
10A0
0F00
ENDCHAR
STARTCHAR 306B
ENCODING 12395
SWIDTH 1040 0
DWIDTH 13 0
BBX 12 12 0 -2
BITMAP
47F0
4820
8040
8000
8000
8000
8000
8800
8800
A800
4600
43F0
ENDCHAR
STARTCHAR 306C
ENCODING 12396
SWIDTH 1040 0
DWIDTH 13 0
BBX 13 12 0 -1
BITMAP
0600
0600
4600
47E0
5E10
6608
A608
A808
A8F8
98F0
8B10
70E8
ENDCHAR
STARTCHAR 306D
ENCODING 12397
SWIDTH 1040 0
DWIDTH 13 0
BBX 13 13 0 -2
BITMAP
1000
1000
1000
F3C0
1620
1810
3010
3010
50D0
50D0
5330
90D8
1000
ENDCHAR
STARTCHAR 306E
ENCODING 12398
SWIDTH 1040 0
DWIDTH 13 0
BBX 13 11 0 -1
BITMAP
0780
1B60
2310
4308
4308
8608
8608
8818
9810
6010
00E0
ENDCHAR
STARTCHAR 306F
ENCODING 12399
SWIDTH 1040 0
DWIDTH 13 0
BBX 12 13 0 -2
BITMAP
8080
8080
8080
8FF0
8080
8080
8080
8080
80C0
87C0
88A0
A890
4700
ENDCHAR
STARTCHAR 3070
ENCODING 12400
SWIDTH 1040 0
DWIDTH 13 0
BBX 13 13 0 -2
BITMAP
8090
8088
8090
8FE8
8080
8080
8080
8080
80C0
87C0
88A0
A890
4700
ENDCHAR
STARTCHAR 3071
ENCODING 12401
SWIDTH 1040 0
DWIDTH 13 0
BBX 13 13 0 -2
BITMAP
8090
80A8
8090
8FE0
8080
8080
8080
8080
80C0
87C0
88A0
A890
4700
ENDCHAR
STARTCHAR 3072
ENCODING 12402
SWIDTH 1040 0
DWIDTH 13 0
BBX 13 12 0 -2
BITMAP
1000
F000
2040
2060
4050
4048
4040
4080
4080
4080
2300
1E00
ENDCHAR
STARTCHAR 3073
ENCODING 12403
SWIDTH 1040 0
DWIDTH 13 0
BBX 13 13 0 -2
BITMAP
0050
1028
F000
2040
2060
4050
4048
4040
4080
4080
4080
2300
1E00
ENDCHAR
STARTCHAR 3074
ENCODING 12404
SWIDTH 1040 0
DWIDTH 13 0
BBX 13 13 0 -2
BITMAP
0030
1048
F030
2040
2060
4050
4048
4040
4080
4080
4080
2300
1E00
ENDCHAR
STARTCHAR 3075
ENCODING 12405
SWIDTH 1040 0
DWIDTH 13 0
BBX 13 13 0 -2
BITMAP
0800
0600
0300
0300
0000
0800
0600
0310
8318
8308
8308
4308
4E10
ENDCHAR
STARTCHAR 3076
ENCODING 12406
SWIDTH 1040 0
DWIDTH 13 0
BBX 13 13 0 -2
BITMAP
0810
0648
0320
0300
0000
0800
0600
0310
8318
8308
8308
4308
4E10
ENDCHAR
STARTCHAR 3077
ENCODING 12407
SWIDTH 1040 0
DWIDTH 13 0
BBX 13 13 0 -2
BITMAP
0830
0648
0330
0300
0000
0800
0600
0310
8318
8308
8308
4308
4E10
ENDCHAR
STARTCHAR 3078
ENCODING 12408
SWIDTH 1040 0
DWIDTH 13 0
BBX 13 8 0 1
BITMAP
0800
1600
2300
4080
8040
0020
0038
0018
ENDCHAR
STARTCHAR 3079
ENCODING 12409
SWIDTH 1040 0
DWIDTH 13 0
BBX 13 10 0 1
BITMAP
0020
0090
0840
1600
2300
4080
8040
0020
0038
0018
ENDCHAR
STARTCHAR 307A
ENCODING 12410
SWIDTH 1040 0
DWIDTH 13 0
BBX 13 10 0 1
BITMAP
0020
0050
0850
1620
2300
4080
8040
0020
0038
0018
ENDCHAR
STARTCHAR 307B
ENCODING 12411
SWIDTH 1040 0
DWIDTH 13 0
BBX 12 13 0 -2
BITMAP
4FE0
4080
8080
8880
87E0
8080
8080
8080
80C0
87C0
A8A0
4890
4700
ENDCHAR
STARTCHAR 307C
ENCODING 12412
SWIDTH 1040 0
DWIDTH 13 0
BBX 13 13 0 -2
BITMAP
4FD0
4088
80A0
8890
87E0
8080
8080
8080
80C0
87C0
A8A0
4890
4700
ENDCHAR
STARTCHAR 307D
ENCODING 12413
SWIDTH 1040 0
DWIDTH 13 0
BBX 13 13 0 -2
BITMAP
4FD0
40A8
80A8
8890
87E0
8080
8080
8080
80C0
87C0
A8A0
4890
4700
ENDCHAR
STARTCHAR 307E
ENCODING 12414
SWIDTH 1040 0
DWIDTH 13 0
BBX 11 13 1 -2
BITMAP
0600
0600
7FC0
0600
4600
3F80
0600
0600
0700
7F00
86C0
8620
7C00
ENDCHAR
STARTCHAR 307F
ENCODING 12415
SWIDTH 1040 0
DWIDTH 13 0
BBX 13 11 0 -1
BITMAP
3F00
0300
0300
0620
0620
3FF8
4820
8820
8820
9040
6040
ENDCHAR
STARTCHAR 3080
ENCODING 12416
SWIDTH 1040 0
DWIDTH 13 0
BBX 13 13 0 -2
BITMAP
1000
1000
1030
FE08
1000
3000
5000
5018
5038
3020
1020
1020
0FC0
ENDCHAR
STARTCHAR 3081
ENCODING 12417
SWIDTH 1040 0
DWIDTH 13 0
BBX 13 12 0 -1
BITMAP
0600
0600
4600
47E0
5E10
6608
A608
A808
A808
9808
8810
70E0
ENDCHAR
STARTCHAR 3082
ENCODING 12418
SWIDTH 1040 0
DWIDTH 13 0
BBX 11 13 1 -2
BITMAP
0C00
0C00
7F00
0C00
1000
1000
FE00
2000
2020
2020
2020
1040
0F80
ENDCHAR
STARTCHAR 3083
ENCODING 12419
SWIDTH 1040 0
DWIDTH 13 0
BBX 10 10 1 -2
BITMAP
0C00
4600
2780
3C40
D040
D0C0
1080
0C00
0C00
0C00
ENDCHAR
STARTCHAR 3084
ENCODING 12420
SWIDTH 1040 0
DWIDTH 13 0
BBX 13 13 0 -2
BITMAP
0600
2300
20E0
1710
3808
C808
0830
0600
0600
0600
0300
0300
0080
ENDCHAR
STARTCHAR 3085
ENCODING 12421
SWIDTH 1040 0
DWIDTH 13 0
BBX 10 10 1 -2
BITMAP
0C00
0600
8F80
9640
6640
4640
4640
4F80
0600
0C00
ENDCHAR
STARTCHAR 3086
ENCODING 12422
SWIDTH 1040 0
DWIDTH 13 0
BBX 13 13 0 -2
BITMAP
0080
4080
47E0
8890
9088
9088
A088
A090
C0B0
40A0
47C0
0080
0300
ENDCHAR
STARTCHAR 3087
ENCODING 12423
SWIDTH 1040 0
DWIDTH 13 0
BBX 8 9 2 -2
BITMAP
18
18
1F
18
18
18
7C
9B
60
ENDCHAR
STARTCHAR 3088
ENCODING 12424
SWIDTH 1040 0
DWIDTH 13 0
BBX 10 13 1 -2
BITMAP
0C00
0C00
0C00
0FC0
0C00
0C00
0C00
0C00
0E00
7E00
8D80
8C40
7000
ENDCHAR
STARTCHAR 3089
ENCODING 12425
SWIDTH 1040 0
DWIDTH 13 0
BBX 10 13 2 -2
BITMAP
3800
0C00
0C00
0000
8000
8000
9F80
E040
8040
8040
0040
0180
1E00
ENDCHAR
STARTCHAR 308A
ENCODING 12426
SWIDTH 1040 0
DWIDTH 13 0
BBX 8 13 3 -2
BITMAP
01
81
81
81
81
81
81
41
43
02
02
04
38
ENDCHAR
STARTCHAR 308B
ENCODING 12427
SWIDTH 1040 0
DWIDTH 13 0
BBX 10 13 2 -2
BITMAP
3F00
0200
0C00
1800
3F00
4080
8040
0040
3840
3840
4C40
4380
3E00
ENDCHAR
STARTCHAR 308C
ENCODING 12428
SWIDTH 1040 0
DWIDTH 13 0
BBX 13 13 0 -2
BITMAP
2000
2000
2380
A640
6840
3040
3040
2040
2040
6040
A048
2030
2000
ENDCHAR
STARTCHAR 308D
ENCODING 12429
SWIDTH 1040 0
DWIDTH 13 0
BBX 10 13 2 -2
BITMAP
3F00
0200
0C00
1800
3F00
4080
8040
0040
0040
0040
0040
0180
3E00
ENDCHAR
STARTCHAR 308E
ENCODING 12430
SWIDTH 1040 0
DWIDTH 13 0
BBX 9 9 2 -2
BITMAP
2000
2000
AE00
7900
6180
2080
2080
6080
A300
ENDCHAR
STARTCHAR 308F
ENCODING 12431
SWIDTH 1040 0
DWIDTH 13 0
BBX 12 13 0 -2
BITMAP
1000
1000
1000
93C0
5620
3810
1010
3010
3010
3010
5020
90C0
1000
ENDCHAR
STARTCHAR 3090
ENCODING 12432
SWIDTH 1040 0
DWIDTH 13 0
BBX 11 11 1 -1
BITMAP
3E00
0600
0600
1F80
2C40
4C20
9020
9720
9720
ACA0
47C0
ENDCHAR
STARTCHAR 3091
ENCODING 12433
SWIDTH 1040 0
DWIDTH 13 0
BBX 11 13 1 -2
BITMAP
3F00
0100
0600
1F80
2040
4E40
1180
0E00
0E00
0000
4CC0
8620
8620
ENDCHAR
STARTCHAR 3092
ENCODING 12434
SWIDTH 1040 0
DWIDTH 13 0
BBX 9 13 1 -2
BITMAP
1000
7F00
1000
2000
4180
7600
8C00
1600
2600
2600
4000
4000
3F80
ENDCHAR
STARTCHAR 3093
ENCODING 12435
SWIDTH 1040 0
DWIDTH 13 0
BBX 13 13 0 -2
BITMAP
0600
0600
0600
0800
0800
1000
1000
2E00
2F08
2308
4308
4310
80E0
ENDCHAR
STARTCHAR 309B
ENCODING 12443
SWIDTH 1040 0
DWIDTH 13 0
BBX 4 4 0 7
BITMAP
20
90
50
40
ENDCHAR
STARTCHAR 309C
ENCODING 12444
SWIDTH 1040 0
DWIDTH 13 0
BBX 3 4 0 6
BITMAP
40
A0
A0
40
ENDCHAR
STARTCHAR 309D
ENCODING 12445
SWIDTH 1040 0
DWIDTH 13 0
BBX 4 7 4 1
BITMAP
80
60
30
30
70
80
80
ENDCHAR
STARTCHAR 309E
ENCODING 12446
SWIDTH 1040 0
DWIDTH 13 0
BBX 7 9 4 1
BITMAP
04
32
88
60
30
30
70
80
80
ENDCHAR
STARTCHAR 30A1
ENCODING 12449
SWIDTH 1040 0
DWIDTH 13 0
BBX 9 9 2 -2
BITMAP
FF80
0080
1900
1A00
1A00
1800
1800
2000
2000
ENDCHAR
STARTCHAR 30A2
ENCODING 12450
SWIDTH 1040 0
DWIDTH 13 0
BBX 11 12 1 -2
BITMAP
FFE0
0020
0020
0C40
0C40
0D80
0C00
0C00
0C00
1000
1000
2000
ENDCHAR
STARTCHAR 30A3
ENCODING 12451
SWIDTH 1040 0
DWIDTH 13 0
BBX 7 10 2 -2
BITMAP
02
02
0C
18
38
F8
D8
18
18
18
ENDCHAR
STARTCHAR 30A4
ENCODING 12452
SWIDTH 1040 0
DWIDTH 13 0
BBX 8 13 1 -2
BITMAP
01
01
06
0C
3C
CC
0C
0C
0C
0C
0C
0C
0C
ENDCHAR
STARTCHAR 30A5
ENCODING 12453
SWIDTH 1040 0
DWIDTH 13 0
BBX 8 10 3 -2
BITMAP
18
18
FF
81
81
82
02
02
04
38
ENDCHAR
STARTCHAR 30A6
ENCODING 12454
SWIDTH 1040 0
DWIDTH 13 0
BBX 10 13 1 -2
BITMAP
0C00
0C00
FFC0
8040
8040
0040
0040
0080
0080
0080
0100
0600
1C00
ENDCHAR
STARTCHAR 30A7
ENCODING 12455
SWIDTH 1040 0
DWIDTH 13 0
BBX 10 7 1 -1
BITMAP
7F80
0C00
0C00
0C00
0C00
0C00
FFC0
ENDCHAR
STARTCHAR 30A8
ENCODING 12456
SWIDTH 1040 0
DWIDTH 13 0
BBX 12 11 0 -1
BITMAP
7FE0
0600
0600
0600
0600
0600
0600
0600
0600
0600
FFF0
ENDCHAR
STARTCHAR 30A9
ENCODING 12457
SWIDTH 1040 0
DWIDTH 13 0
BBX 9 10 2 -2
BITMAP
0C00
0C00
FF80
0C00
1C00
1C00
1C00
2C00
4C00
8C00
ENDCHAR
STARTCHAR 30AA
ENCODING 12458
SWIDTH 1040 0
DWIDTH 13 0
BBX 12 13 0 -2
BITMAP
0300
0300
0300
FFF0
0700
0700
0B00
0B00
1B00
1300
2300
4300
8300
ENDCHAR
STARTCHAR 30AB
ENCODING 12459
SWIDTH 1040 0
DWIDTH 13 0
BBX 10 13 1 -2
BITMAP
1000
1000
1000
FFC0
1040
1040
1040
2040
2040
2040
4040
4080
8780
ENDCHAR
STARTCHAR 30AC
ENCODING 12460
SWIDTH 1040 0
DWIDTH 13 0
BBX 12 13 1 -2
BITMAP
1020
1090
1040
FFC0
1040
1040
1040
2040
2040
2040
4040
4080
8780
ENDCHAR
STARTCHAR 30AD
ENCODING 12461
SWIDTH 1040 0
DWIDTH 13 0
BBX 10 13 1 -2
BITMAP
1000
1000
1000
FF80
1000
1000
FFC0
0C00
0C00
0C00
0C00
0C00
0C00
ENDCHAR
STARTCHAR 30AE
ENCODING 12462
SWIDTH 1040 0
DWIDTH 13 0
BBX 12 13 1 -2
BITMAP
10A0
1050
1000
FF80
1000
1000
FFC0
0C00
0C00
0C00
0C00
0C00
0C00
ENDCHAR
STARTCHAR 30AF
ENCODING 12463
SWIDTH 1040 0
DWIDTH 13 0
BBX 10 13 1 -2
BITMAP
0C00
0C00
0FC0
1C40
2040
C080
0080
0100
0700
0600
0C00
3000
C000
ENDCHAR
STARTCHAR 30B0
ENCODING 12464
SWIDTH 1040 0
DWIDTH 13 0
BBX 13 13 0 -2
BITMAP
0850
0828
0FC0
1840
2040
C080
0080
0300
0700
0600
0800
3000
C000
ENDCHAR
STARTCHAR 30B1
ENCODING 12465
SWIDTH 1040 0
DWIDTH 13 0
BBX 11 13 1 -2
BITMAP
2000
2000
2000
3FE0
4080
8080
0080
0100
0100
0100
0600
0C00
3000
ENDCHAR
STARTCHAR 30B2
ENCODING 12466
SWIDTH 1040 0
DWIDTH 13 0
BBX 12 13 1 -2
BITMAP
20A0
2050
2000
3FE0
4080
8080
0080
0100
0100
0100
0600
0C00
3000
ENDCHAR
STARTCHAR 30B3
ENCODING 12467
SWIDTH 1040 0
DWIDTH 13 0
BBX 10 11 1 -1
BITMAP
FFC0
0040
0040
0040
0040
0040
0040
0040
0040
0040
FFC0
ENDCHAR
STARTCHAR 30B4
ENCODING 12468
SWIDTH 1040 0
DWIDTH 13 0
BBX 13 12 0 -1
BITMAP
0010
FFC8
0060
0050
0040
0040
0040
0040
0040
0040
0040
FFC0
ENDCHAR
STARTCHAR 30B5
ENCODING 12469
SWIDTH 1040 0
DWIDTH 13 0
BBX 13 13 0 -2
BITMAP
0080
1080
1080
FFF8
1080
1080
1080
1080
1080
0080
0300
0600
1800
ENDCHAR
STARTCHAR 30B6
ENCODING 12470
SWIDTH 1040 0
DWIDTH 13 0
BBX 13 13 0 -2
BITMAP
00D0
10A8
1080
FFF8
1080
1080
1080
1080
1080
0080
0300
0600
1800
ENDCHAR
STARTCHAR 30B7
ENCODING 12471
SWIDTH 1040 0
DWIDTH 13 0
BBX 11 11 1 -1
BITMAP
6000
1000
0020
C020
2040
0080
0100
0700
0600
1C00
6000
ENDCHAR
STARTCHAR 30B8
ENCODING 12472
SWIDTH 1040 0
DWIDTH 13 0
BBX 12 12 1 -1
BITMAP
00A0
6050
1000
0020
C020
2040
0080
0100
0700
0600
1C00
6000
ENDCHAR
STARTCHAR 30B9
ENCODING 12473
SWIDTH 1040 0
DWIDTH 13 0
BBX 12 10 0 -1
BITMAP
3FE0
0040
0040
0080
0300
0680
0EC0
0840
3020
C010
ENDCHAR
STARTCHAR 30BA
ENCODING 12474
SWIDTH 1040 0
DWIDTH 13 0
BBX 13 12 0 -1
BITMAP
0050
0028
3FE0
0040
0040
0080
0300
0680
0EC0
0840
3020
C010
ENDCHAR
STARTCHAR 30BB
ENCODING 12475
SWIDTH 1040 0
DWIDTH 13 0
BBX 12 12 0 -1
BITMAP
1000
1000
1000
FFF0
1020
1040
1000
1000
1000
1000
1000
0FE0
ENDCHAR
STARTCHAR 30BC
ENCODING 12476
SWIDTH 1040 0
DWIDTH 13 0
BBX 13 12 0 -1
BITMAP
1050
1028
1000
FFF0
1020
1040
1000
1000
1000
1000
1000
0FE0
ENDCHAR
STARTCHAR 30BD
ENCODING 12477
SWIDTH 1040 0
DWIDTH 13 0
BBX 10 12 1 -2
BITMAP
0040
8040
4040
2080
0080
0100
0100
0700
0600
0C00
1000
2000
ENDCHAR
STARTCHAR 30BE
ENCODING 12478
SWIDTH 1040 0
DWIDTH 13 0
BBX 13 13 0 -2
BITMAP
0010
0048
8050
4048
2080
0080
0300
0300
0700
0600
0800
1000
2000
ENDCHAR
STARTCHAR 30BF
ENCODING 12479
SWIDTH 1040 0
DWIDTH 13 0
BBX 10 13 1 -2
BITMAP
0C00
0C00
1FC0
1040
2040
D080
0D80
0D00
0F00
0600
0C00
3000
C000
ENDCHAR
STARTCHAR 30C0
ENCODING 12480
SWIDTH 1040 0
DWIDTH 13 0
BBX 12 13 1 -2
BITMAP
0CA0
0C50
1FC0
1040
2040
D080
0D80
0D00
0F00
0600
0C00
3000
C000
ENDCHAR
STARTCHAR 30C1
ENCODING 12481
SWIDTH 1040 0
DWIDTH 13 0
BBX 13 13 0 -2
BITMAP
0040
0380
3F00
0300
0300
FFF8
0300
0300
0300
0300
0600
0800
3000
ENDCHAR
STARTCHAR 30C2
ENCODING 12482
SWIDTH 1040 0
DWIDTH 13 0
BBX 13 13 0 -2
BITMAP
0050
0388
3F20
0310
0300
FFF8
0300
0300
0300
0300
0600
0800
3000
ENDCHAR
STARTCHAR 30C3
ENCODING 12483
SWIDTH 1040 0
DWIDTH 13 0
BBX 9 9 2 -2
BITMAP
1880
9880
8C80
4100
4100
0100
0200
0C00
3800
ENDCHAR
STARTCHAR 30C4
ENCODING 12484
SWIDTH 1040 0
DWIDTH 13 0
BBX 11 12 0 -2
BITMAP
0820
8820
8620
4620
4020
0040
0040
00C0
0080
0300
0600
1800
ENDCHAR
STARTCHAR 30C5
ENCODING 12485
SWIDTH 1040 0
DWIDTH 13 0
BBX 13 13 0 -2
BITMAP
0010
0848
8860
8650
4640
4040
0080
0080
0380
0300
0600
0800
3000
ENDCHAR
STARTCHAR 30C6
ENCODING 12486
SWIDTH 1040 0
DWIDTH 13 0
BBX 12 12 0 -2
BITMAP
7FE0
0000
0000
FFF0
0600
0600
0600
0600
0600
0800
0800
1000
ENDCHAR
STARTCHAR 30C7
ENCODING 12487
SWIDTH 1040 0
DWIDTH 13 0
BBX 13 13 0 -2
BITMAP
0010
7FC8
0020
0010
FFF0
0600
0600
0600
0600
0600
0800
0800
1000
ENDCHAR
STARTCHAR 30C8
ENCODING 12488
SWIDTH 1040 0
DWIDTH 13 0
BBX 6 13 4 -2
BITMAP
80
80
80
80
80
F0
88
84
84
80
80
80
80
ENDCHAR
STARTCHAR 30C9
ENCODING 12489
SWIDTH 1040 0
DWIDTH 13 0
BBX 9 13 4 -2
BITMAP
8100
8480
8200
8000
8000
F000
8800
8400
8400
8000
8000
8000
8000
ENDCHAR
STARTCHAR 30CA
ENCODING 12490
SWIDTH 1040 0
DWIDTH 13 0
BBX 13 13 0 -2
BITMAP
0300
0300
0300
0300
FFF8
0300
0300
0300
0200
0600
0600
0800
1000
ENDCHAR
STARTCHAR 30CB
ENCODING 12491
SWIDTH 1040 0
DWIDTH 13 0
BBX 12 9 0 0
BITMAP
3FC0
0000
0000
0000
0000
0000
0000
0000
FFF0
ENDCHAR
STARTCHAR 30CC
ENCODING 12492
SWIDTH 1040 0
DWIDTH 13 0
BBX 10 11 1 -2
BITMAP
FFC0
0080
0080
3100
0D00
0600
0F00
0D00
1080
2080
C000
ENDCHAR
STARTCHAR 30CD
ENCODING 12493
SWIDTH 1040 0
DWIDTH 13 0
BBX 11 13 1 -2
BITMAP
0C00
0600
0600
7F80
0100
0700
0EC0
3620
F620
C620
0600
0600
0600
ENDCHAR
STARTCHAR 30CE
ENCODING 12494
SWIDTH 1040 0
DWIDTH 13 0
BBX 9 11 1 -1
BITMAP
0080
0080
0080
0100
0100
0600
0C00
1C00
1000
2000
C000
ENDCHAR
STARTCHAR 30CF
ENCODING 12495
SWIDTH 1040 0
DWIDTH 13 0
BBX 13 9 0 0
BITMAP
0840
0820
0820
1010
1010
2008
4008
4008
8008
ENDCHAR
STARTCHAR 30D0
ENCODING 12496
SWIDTH 1040 0
DWIDTH 13 0
BBX 13 11 0 0
BITMAP
0050
0028
0800
0820
0820
1010
1010
2008
4008
4008
8008
ENDCHAR
STARTCHAR 30D1
ENCODING 12497
SWIDTH 1040 0
DWIDTH 13 0
BBX 13 11 0 0
BITMAP
0030
0048
0830
0820
0820
1010
1010
2008
4008
4008
8008
ENDCHAR
STARTCHAR 30D2
ENCODING 12498
SWIDTH 1040 0
DWIDTH 13 0
BBX 9 13 2 -2
BITMAP
8000
8000
8000
8000
8F80
FC00
8000
8000
8000
8000
8000
4000
3F80
ENDCHAR
STARTCHAR 30D3
ENCODING 12499
SWIDTH 1040 0
DWIDTH 13 0
BBX 11 13 2 -2
BITMAP
8040
8120
8080
8000
8F80
FC00
8000
8000
8000
8000
8000
4000
3F80
ENDCHAR
STARTCHAR 30D4
ENCODING 12500
SWIDTH 1040 0
DWIDTH 13 0
BBX 11 13 2 -2
BITMAP
80C0
8120
80C0
8000
8F80
FC00
8000
8000
8000
8000
8000
4000
3F80
ENDCHAR
STARTCHAR 30D5
ENCODING 12501
SWIDTH 1040 0
DWIDTH 13 0
BBX 10 11 1 -1
BITMAP
FFC0
0040
0040
0040
0080
0080
0100
0700
0600
0C00
3000
ENDCHAR
STARTCHAR 30D6
ENCODING 12502
SWIDTH 1040 0
DWIDTH 13 0
BBX 13 12 0 -1
BITMAP
0010
FFC8
0060
0050
0040
0080
0080
0300
0700
0600
0800
3000
ENDCHAR
STARTCHAR 30D7
ENCODING 12503
SWIDTH 1040 0
DWIDTH 13 0
BBX 13 12 0 -1
BITMAP
0010
FFE8
0068
0050
0040
0080
0080
0300
0700
0600
0800
3000
ENDCHAR
STARTCHAR 30D8
ENCODING 12504
SWIDTH 1040 0
DWIDTH 13 0
BBX 13 8 0 1
BITMAP
0800
1600
2300
C080
0040
0020
0038
0018
ENDCHAR
STARTCHAR 30D9
ENCODING 12505
SWIDTH 1040 0
DWIDTH 13 0
BBX 13 10 0 1
BITMAP
0020
0090
0840
1600
2300
C080
0040
0020
0038
0018
ENDCHAR
STARTCHAR 30DA
ENCODING 12506
SWIDTH 1040 0
DWIDTH 13 0
BBX 13 10 0 1
BITMAP
0020
0050
0850
1620
2300
C080
0040
0020
0038
0018
ENDCHAR
STARTCHAR 30DB
ENCODING 12507
SWIDTH 1040 0
DWIDTH 13 0
BBX 12 13 0 -2
BITMAP
0600
0600
0600
7FE0
0600
0600
0600
4620
4620
4620
4620
8610
8610
ENDCHAR
STARTCHAR 30DC
ENCODING 12508
SWIDTH 1040 0
DWIDTH 13 0
BBX 13 13 0 -2
BITMAP
0650
0628
0600
7FE0
0600
0600
0600
4620
4620
4620
4620
8610
8610
ENDCHAR
STARTCHAR 30DD
ENCODING 12509
SWIDTH 1040 0
DWIDTH 13 0
BBX 13 13 0 -2
BITMAP
0630
0648
0630
7FE0
0600
0600
0600
4620
4620
4620
4620
8610
8610
ENDCHAR
STARTCHAR 30DE
ENCODING 12510
SWIDTH 1040 0
DWIDTH 13 0
BBX 12 9 0 -1
BITMAP
FFF0
0020
0040
0080
1B00
1A00
0600
0300
0080
ENDCHAR
STARTCHAR 30DF
ENCODING 12511
SWIDTH 1040 0
DWIDTH 13 0
BBX 9 13 2 -2
BITMAP
4000
3800
0E00
4100
3800
0E00
0000
C000
F800
3800
0E00
0100
0080
ENDCHAR
STARTCHAR 30E0
ENCODING 12512
SWIDTH 1040 0
DWIDTH 13 0
BBX 12 12 0 -2
BITMAP
0600
0600
0600
0600
0800
0840
0820
1820
1020
1070
1F90
E010
ENDCHAR
STARTCHAR 30E1
ENCODING 12513
SWIDTH 1040 0
DWIDTH 13 0
BBX 10 11 0 -1
BITMAP
0040
0040
1040
0880
0680
0300
0680
0EC0
0840
1040
E000
ENDCHAR
STARTCHAR 30E2
ENCODING 12514
SWIDTH 1040 0
DWIDTH 13 0
BBX 11 11 1 -1
BITMAP
7F80
0C00
0C00
0C00
FFE0
0C00
0C00
0C00
0C00
0C00
07C0
ENDCHAR
STARTCHAR 30E3
ENCODING 12515
SWIDTH 1040 0
DWIDTH 13 0
BBX 11 9 1 -2
BITMAP
1000
11E0
1E40
EC80
EC80
0C00
0600
0600
0600
ENDCHAR
STARTCHAR 30E4
ENCODING 12516
SWIDTH 1040 0
DWIDTH 13 0
BBX 12 13 0 -2
BITMAP
2000
2000
2000
10F0
1F10
F010
0820
0840
0840
0800
0600
0600
0600
ENDCHAR
STARTCHAR 30E5
ENCODING 12517
SWIDTH 1040 0
DWIDTH 13 0
BBX 10 6 1 -1
BITMAP
3F00
0100
0100
0100
0600
FFC0
ENDCHAR
STARTCHAR 30E6
ENCODING 12518
SWIDTH 1040 0
DWIDTH 13 0
BBX 13 9 0 0
BITMAP
3F80
0080
0080
0080
0300
0300
0300
0300
FFF8
ENDCHAR
STARTCHAR 30E7
ENCODING 12519
SWIDTH 1040 0
DWIDTH 13 0
BBX 7 8 3 -2
BITMAP
FE
02
02
02
7E
02
02
FE
ENDCHAR
STARTCHAR 30E8
ENCODING 12520
SWIDTH 1040 0
DWIDTH 13 0
BBX 8 11 2 -1
BITMAP
FF
01
01
01
7F
01
01
01
01
01
FF
ENDCHAR
STARTCHAR 30E9
ENCODING 12521
SWIDTH 1040 0
DWIDTH 13 0
BBX 10 12 1 -2
BITMAP
7FC0
0000
0000
FFC0
0040
0040
0080
0080
0080
0100
0E00
3000
ENDCHAR
STARTCHAR 30EA
ENCODING 12522
SWIDTH 1040 0
DWIDTH 13 0
BBX 8 13 2 -2
BITMAP
01
81
81
81
81
81
81
01
03
02
02
0C
38
ENDCHAR
STARTCHAR 30EB
ENCODING 12523
SWIDTH 1040 0
DWIDTH 13 0
BBX 12 13 0 -2
BITMAP
0300
0300
2300
2300
2300
2300
2300
2310
2310
2310
4320
4340
8380
ENDCHAR
STARTCHAR 30EC
ENCODING 12524
SWIDTH 1040 0
DWIDTH 13 0
BBX 8 13 2 -2
BITMAP
80
80
80
80
80
80
80
80
81
81
82
9C
E0
ENDCHAR
STARTCHAR 30ED
ENCODING 12525
SWIDTH 1040 0
DWIDTH 13 0
BBX 10 9 1 0
BITMAP
FFC0
8040
8040
8040
8040
8040
8040
8040
FFC0
ENDCHAR
STARTCHAR 30EE
ENCODING 12526
SWIDTH 1040 0
DWIDTH 13 0
BBX 8 9 3 -2
BITMAP
FF
81
81
01
02
02
02
04
38
ENDCHAR
STARTCHAR 30EF
ENCODING 12527
SWIDTH 1040 0
DWIDTH 13 0
BBX 10 12 2 -2
BITMAP
FFC0
8040
8040
0040
0040
0040
0080
0080
0080
0100
0200
1C00
ENDCHAR
STARTCHAR 30F0
ENCODING 12528
SWIDTH 1040 0
DWIDTH 13 0
BBX 13 13 0 -2
BITMAP
0080
0080
0080
7FE0
1080
1080
1080
FFF8
FF80
0080
0080
0080
0080
ENDCHAR
STARTCHAR 30F1
ENCODING 12529
SWIDTH 1040 0
DWIDTH 13 0
BBX 12 10 0 -1
BITMAP
7FC0
0040
0080
0700
0600
0600
0600
0600
0600
FFF0
ENDCHAR
STARTCHAR 30F2
ENCODING 12530
SWIDTH 1040 0
DWIDTH 13 0
BBX 9 11 2 -1
BITMAP
FF80
0080
0080
0080
FF80
0100
0100
0200
0200
0C00
3800
ENDCHAR
STARTCHAR 30F3
ENCODING 12531
SWIDTH 1040 0
DWIDTH 13 0
BBX 10 10 2 -1
BITMAP
C000
2040
0040
0080
0080
0100
0300
0200
1C00
E000
ENDCHAR
STARTCHAR 30F4
ENCODING 12532
SWIDTH 1040 0
DWIDTH 13 0
BBX 13 13 0 -2
BITMAP
0850
0828
FFC0
8040
8040
0040
0040
0080
0080
0080
0300
0600
1800
ENDCHAR
STARTCHAR 30F5
ENCODING 12533
SWIDTH 1040 0
DWIDTH 13 0
BBX 9 10 2 -2
BITMAP
0C00
0C00
7F80
1880
1880
2080
2080
2080
4100
8F00
ENDCHAR
STARTCHAR 30F6
ENCODING 12534
SWIDTH 1040 0
DWIDTH 13 0
BBX 9 10 2 -2
BITMAP
2000
2000
2000
7F80
8200
8200
0200
0C00
1800
6000
ENDCHAR
STARTCHAR 30FB
ENCODING 12539
SWIDTH 1040 0
DWIDTH 13 0
BBX 3 2 5 4
BITMAP
E0
E0
ENDCHAR
STARTCHAR 30FC
ENCODING 12540
SWIDTH 1040 0
DWIDTH 13 0
BBX 12 2 0 4
BITMAP
C000
3FF0
ENDCHAR
STARTCHAR 30FD
ENCODING 12541
SWIDTH 1040 0
DWIDTH 13 0
BBX 4 6 4 1
BITMAP
80
60
30
30
30
30
ENDCHAR
STARTCHAR 30FE
ENCODING 12542
SWIDTH 1040 0
DWIDTH 13 0
BBX 7 8 4 1
BITMAP
04
32
88
60
30
30
30
30
ENDCHAR
STARTCHAR 4E00
ENCODING 19968
SWIDTH 1040 0
DWIDTH 13 0
BBX 12 1 0 5
BITMAP
FFF0
ENDCHAR
STARTCHAR 4E01
ENCODING 19969
SWIDTH 1040 0
DWIDTH 13 0
BBX 12 12 0 -2
BITMAP
FFF0
0600
0600
0600
0600
0600
0600
0600
0600
0600
0600
1E00
ENDCHAR
STARTCHAR 4E03
ENCODING 19971
SWIDTH 1040 0
DWIDTH 13 0
BBX 13 13 0 -2
BITMAP
1000
1000
1000
1000
10F8
FF80
1000
1000
1000
1000
1020
1020
0FE0
ENDCHAR
STARTCHAR 4E07
ENCODING 19975
SWIDTH 1040 0
DWIDTH 13 0
BBX 13 12 0 -2
BITMAP
FFF8
0800
0800
0FE0
0820
0820
0820
1020
1020
1020
2040
C3C0
ENDCHAR
STARTCHAR 4E08
ENCODING 19976
SWIDTH 1040 0
DWIDTH 13 0
BBX 13 13 0 -2
BITMAP
0600
0600
0600
FFF0
0600
0600
2600
1600
1600
0E00
0B00
30C0
C038
ENDCHAR
STARTCHAR 4E09
ENCODING 19977
SWIDTH 1040 0
DWIDTH 13 0
BBX 13 11 0 -1
BITMAP
7FF0
0000
0000
0000
3FE0
0000
0000
0000
0000
0000
FFF8
ENDCHAR
STARTCHAR 4E0A
ENCODING 19978
SWIDTH 1040 0
DWIDTH 13 0
BBX 13 13 0 -2
BITMAP
0600
0600
0600
0600
0600
07F0
0600
0600
0600
0600
0600
0600
FFF8
ENDCHAR
STARTCHAR 4E0B
ENCODING 19979
SWIDTH 1040 0
DWIDTH 13 0
BBX 13 12 0 -2
BITMAP
FFF8
0600
0700
0680
0640
0620
0600
0600
0600
0600
0600
0600
ENDCHAR
STARTCHAR 4E0D
ENCODING 19981
SWIDTH 1040 0
DWIDTH 13 0
BBX 13 12 0 -2
BITMAP
FFF8
0600
0600
0EC0
1620
2610
C610
C610
0600
0600
0600
0600
ENDCHAR
STARTCHAR 4E0E
ENCODING 19982
SWIDTH 1040 0
DWIDTH 13 0
BBX 13 13 0 -2
BITMAP
1000
1000
1FE0
1000
1000
1FC0
2040
0040
0078
FFF8
0080
0080
0F00
ENDCHAR
STARTCHAR 4E10
ENCODING 19984
SWIDTH 1040 0
DWIDTH 13 0
BBX 12 13 0 -2
BITMAP
FFF0
0600
0600
27E0
2600
2600
7FF0
4010
4010
0010
0010
0020
00E0
ENDCHAR
STARTCHAR 4E11
ENCODING 19985
SWIDTH 1040 0
DWIDTH 13 0
BBX 13 13 0 -2
BITMAP
7FC0
0840
0840
0840
0840
FFF8
1040
1040
1040
1040
1040
1040
FFF8
ENDCHAR
STARTCHAR 4E14
ENCODING 19988
SWIDTH 1040 0
DWIDTH 13 0
BBX 12 13 0 -2
BITMAP
3FC0
2040
2040
2040
3FC0
2040
2040
3FC0
2040
2040
2040
2040
FFF0
ENDCHAR
STARTCHAR 4E15
ENCODING 19989
SWIDTH 1040 0
DWIDTH 13 0
BBX 12 12 0 -2
BITMAP
FFF0
0300
0700
0E80
3640
C630
0600
0600
0600
0600
0000
FFF0
ENDCHAR
STARTCHAR 4E16
ENCODING 19990
SWIDTH 1040 0
DWIDTH 13 0
BBX 13 13 0 -2
BITMAP
2640
2640
2640
2640
FFF8
2640
2640
27C0
2600
2600
2000
2000
3FF0
ENDCHAR
STARTCHAR 4E17
ENCODING 19991
SWIDTH 1040 0
DWIDTH 13 0
BBX 13 13 0 -2
BITMAP
4620
4620
4620
4620
4620
FFF8
4620
4620
4620
4620
4620
4620
7FE0
ENDCHAR
STARTCHAR 4E18
ENCODING 19992
SWIDTH 1040 0
DWIDTH 13 0
BBX 13 12 0 -2
BITMAP
00C0
3F00
2000
2000
3FE0
2080
2080
2080
2080
2080
2080
FFF8
ENDCHAR
STARTCHAR 4E19
ENCODING 19993
SWIDTH 1040 0
DWIDTH 13 0
BBX 13 13 0 -2
BITMAP
FFF8
0600
0600
7FF0
4610
4710
4890
5050
6050
6050
4010
4010
4030
ENDCHAR
STARTCHAR 4E1E
ENCODING 19998
SWIDTH 1040 0
DWIDTH 13 0
BBX 13 13 0 -2
BITMAP
1FC0
0080
0310
F6A0
16C0
1680
2640
C638
C638
0600
0E00
0000
FFF8
ENDCHAR
STARTCHAR 4E21
ENCODING 20001
SWIDTH 1040 0
DWIDTH 13 0
BBX 12 13 0 -2
BITMAP
FFF0
0600
0600
FFF0
8610
8610
A650
A650
A650
A650
BFD0
A010
8030
ENDCHAR
STARTCHAR 4E26
ENCODING 20006
SWIDTH 1040 0
DWIDTH 13 0
BBX 13 13 0 -2
BITMAP
2020
1040
0880
7FF0
0880
8890
4890
4890
48B0
48A0
0880
0880
FFF8
ENDCHAR
STARTCHAR 4E2A
ENCODING 20010
SWIDTH 1040 0
DWIDTH 13 0
BBX 13 13 0 -2
BITMAP
0600
0700
0880
1040
2620
C618
0600
0600
0600
0600
0600
0600
0600
ENDCHAR
STARTCHAR 4E2D
ENCODING 20013
SWIDTH 1040 0
DWIDTH 13 0
BBX 10 13 1 -2
BITMAP
0C00
0C00
0C00
FFC0
8C40
8C40
8C40
FFC0
8C00
8C00
0C00
0C00
0C00
ENDCHAR
STARTCHAR 4E31
ENCODING 20017
SWIDTH 1040 0
DWIDTH 13 0
BBX 11 13 1 -2
BITMAP
1100
1100
9120
9120
9120
9120
9120
F1E0
9120
9120
1100
2100
C100
ENDCHAR
STARTCHAR 4E32
ENCODING 20018
SWIDTH 1040 0
DWIDTH 13 0
BBX 12 13 0 -2
BITMAP
0600
0600
7FE0
4620
7FE0
0600
FFF0
8610
8610
FFF0
8600
0600
0600
ENDCHAR
STARTCHAR 4E36
ENCODING 20022
SWIDTH 1040 0
DWIDTH 13 0
BBX 5 8 4 0
BITMAP
80
60
30
30
08
08
08
08
ENDCHAR
STARTCHAR 4E38
ENCODING 20024
SWIDTH 1040 0
DWIDTH 13 0
BBX 13 13 0 -2
BITMAP
0800
0800
0800
FFC0
0840
0840
2840
1840
1E40
0E40
1348
2348
C038
ENDCHAR
STARTCHAR 4E39
ENCODING 20025
SWIDTH 1040 0
DWIDTH 13 0
BBX 13 13 0 -2
BITMAP
3FE0
2020
2620
2320
2320
2020
FFF8
2020
2020
2020
4020
4020
8060
ENDCHAR
STARTCHAR 4E3B
ENCODING 20027
SWIDTH 1040 0
DWIDTH 13 0
BBX 12 13 0 -2
BITMAP
0800
0600
0600
FFF0
0600
0600
0600
7FE0
7E00
0600
0600
0600
FFF0
ENDCHAR
STARTCHAR 4E3C
ENCODING 20028
SWIDTH 1040 0
DWIDTH 13 0
BBX 13 13 0 -2
BITMAP
1040
1040
7FF0
1040
1640
1340
1040
FFF8
F040
1040
1040
2040
4040
ENDCHAR
STARTCHAR 4E3F
ENCODING 20031
SWIDTH 1040 0
DWIDTH 13 0
BBX 5 13 3 -2
BITMAP
18
18
18
18
18
18
18
18
38
30
30
40
80
ENDCHAR
STARTCHAR 4E42
ENCODING 20034
SWIDTH 1040 0
DWIDTH 13 0
BBX 13 13 0 -2
BITMAP
0020
2020
2020
5020
9040
0840
0680
0300
0780
0680
0840
3020
C018
ENDCHAR
STARTCHAR 4E43
ENCODING 20035
SWIDTH 1040 0
DWIDTH 13 0
BBX 13 13 0 -2
BITMAP
FFC0
1040
1040
1040
1040
10F8
1008
1008
1008
1008
2008
2010
C070
ENDCHAR
STARTCHAR 4E45
ENCODING 20037
SWIDTH 1040 0
DWIDTH 13 0
BBX 13 13 0 -2
BITMAP
0800
0800
0F80
1080
1080
2300
C300
0680
0E80
0880
1040
2020
C018
ENDCHAR
STARTCHAR 4E4B
ENCODING 20043
SWIDTH 1040 0
DWIDTH 13 0
BBX 12 13 1 -2
BITMAP
0C00
0C00
FFC0
0040
0080
0100
0600
4C00
5C00
5000
A000
9C00
87F0
ENDCHAR
STARTCHAR 4E4D
ENCODING 20045
SWIDTH 1040 0
DWIDTH 13 0
BBX 12 13 0 -2
BITMAP
2000
2000
3FF0
2600
4600
47E0
8600
0600
07E0
07E0
0600
0600
0600
ENDCHAR
STARTCHAR 4E4E
ENCODING 20046
SWIDTH 1040 0
DWIDTH 13 0
BBX 12 13 0 -2
BITMAP
0070
7F80
0620
4620
2620
2640
FFF0
0600
0600
0600
0600
0600
0E00
ENDCHAR
STARTCHAR 4E4F
ENCODING 20047
SWIDTH 1040 0
DWIDTH 13 0
BBX 12 13 0 -2
BITMAP
03E0
7F00
0600
0600
7FE0
0040
0080
4700
5F00
5800
6000
9800
87F0
ENDCHAR
STARTCHAR 4E55
ENCODING 20053
SWIDTH 1040 0
DWIDTH 13 0
BBX 12 13 0 -2
BITMAP
00F0
7F80
4300
5FE0
4300
5FE0
4300
5FF0
5310
5310
9310
9330
0300
ENDCHAR
STARTCHAR 4E56
ENCODING 20054
SWIDTH 1040 0
DWIDTH 13 0
BBX 13 13 0 -2
BITMAP
03E0
7F00
0600
FFF0
0600
1680
F698
16E0
1688
1688
F688
1678
0600
ENDCHAR
STARTCHAR 4E57
ENCODING 20055
SWIDTH 1040 0
DWIDTH 13 0
BBX 12 13 0 -2
BITMAP
03C0
3F00
0600
FFF0
2640
7FE0
2640
FFF0
FE00
0600
0F00
36C0
C630
ENDCHAR
STARTCHAR 4E58
ENCODING 20056
SWIDTH 1040 0
DWIDTH 13 0
BBX 13 13 0 -2
BITMAP
03E0
3F00
0600
FFF0
1680
7698
16E0
3688
F688
D678
0F00
36C0
C638
ENDCHAR
STARTCHAR 4E59
ENCODING 20057
SWIDTH 1040 0
DWIDTH 13 0
BBX 11 12 1 -2
BITMAP
7F80
0100
0600
0C00
1000
2000
4000
8000
8000
8020
4020
3FC0
ENDCHAR
STARTCHAR 4E5D
ENCODING 20061
SWIDTH 1040 0
DWIDTH 13 0
BBX 13 13 0 -2
BITMAP
0800
0800
0800
FFC0
0840
0840
0840
0840
1040
1040
1048
2048
C038
ENDCHAR
STARTCHAR 4E5E
ENCODING 20062
SWIDTH 1040 0
DWIDTH 13 0
BBX 13 13 0 -2
BITMAP
1000
1000
1FF0
2000
DFC0
0080
0300
0E00
1000
1000
2010
2010
1FF8
ENDCHAR
STARTCHAR 4E5F
ENCODING 20063
SWIDTH 1040 0
DWIDTH 13 0
BBX 13 13 0 -2
BITMAP
0600
2600
2600
26E0
3F20
E620
2620
2620
2620
2660
2008
2008
1FF8
ENDCHAR
STARTCHAR 4E62
ENCODING 20066
SWIDTH 1040 0
DWIDTH 13 0
BBX 13 13 0 -2
BITMAP
2300
2300
2300
AB00
AB00
AB00
AB00
AB00
AB00
AB00
FB08
8308
00F8
ENDCHAR
STARTCHAR 4E71
ENCODING 20081
SWIDTH 1040 0
DWIDTH 13 0
BBX 13 13 0 -2
BITMAP
1E80
F080
1080
1080
FE80
1080
1080
7E80
4680
4680
4688
4688
7E78
ENDCHAR
STARTCHAR 4E73
ENCODING 20083
SWIDTH 1040 0
DWIDTH 13 0
BBX 13 13 0 -2
BITMAP
0F40
F340
9640
5640
0040
7E40
0840
1040
1F40
FF40
1048
1048
7038
ENDCHAR
STARTCHAR 4E7E
ENCODING 20094
SWIDTH 1040 0
DWIDTH 13 0
BBX 13 13 0 -2
BITMAP
2080
F880
20F8
FB00
8800
FBF0
8820
F8C0
E3C8
2308
FB08
2308
20F8
ENDCHAR
STARTCHAR 4E80
ENCODING 20096
SWIDTH 1040 0
DWIDTH 13 0
BBX 13 13 0 -2
BITMAP
1F80
2300
FFC0
2640
3FC0
2640
7FE0
4620
4620
7FE0
4628
7FE8
07F8
ENDCHAR
STARTCHAR 4E82
ENCODING 20098
SWIDTH 1040 0
DWIDTH 13 0
BBX 13 13 0 -2
BITMAP
0F40
F640
5640
9340
7E40
2840
FF40
AB40
AB40
FB40
AB48
9348
EF38
ENDCHAR
STARTCHAR 4E85
ENCODING 20101
SWIDTH 1040 0
DWIDTH 13 0
BBX 3 13 4 -2
BITMAP
60
60
60
60
60
60
60
60
60
60
60
60
E0
ENDCHAR
STARTCHAR 4E86
ENCODING 20102
SWIDTH 1040 0
DWIDTH 13 0
BBX 11 12 1 -2
BITMAP
FFE0
0040
0080
0700
0600
0600
0600
0600
0600
0600
0600
1E00
ENDCHAR
STARTCHAR 4E88
ENCODING 20104
SWIDTH 1040 0
DWIDTH 13 0
BBX 12 13 0 -2
BITMAP
7FC0
0080
1B00
0600
FFF0
0620
0640
0600
0600
0600
0600
0600
1E00
ENDCHAR
STARTCHAR 4E89
ENCODING 20105
SWIDTH 1040 0
DWIDTH 13 0
BBX 13 13 0 -2
BITMAP
0800
0F80
3080
0300
7FE0
0620
FFF8
0620
0620
7FE0
0600
0600
0E00
ENDCHAR
STARTCHAR 4E8A
ENCODING 20106
SWIDTH 1040 0
DWIDTH 13 0
BBX 13 13 0 -2
BITMAP
0600
FFF0
2640
1680
7FF0
0610
FFF8
0610
0610
7FF0
0600
0600
0E00
ENDCHAR
STARTCHAR 4E8B
ENCODING 20107
SWIDTH 1040 0
DWIDTH 13 0
BBX 13 13 0 -2
BITMAP
0600
FFF0
0600
3FC0
2640
7FE0
0620
FFF8
FE20
0620
7FE0
0600
0600
ENDCHAR
STARTCHAR 4E8C
ENCODING 20108
SWIDTH 1040 0
DWIDTH 13 0
BBX 13 9 0 0
BITMAP
7FF0
0000
0000
0000
0000
0000
0000
0000
FFF8
ENDCHAR
STARTCHAR 4E8E
ENCODING 20110
SWIDTH 1040 0
DWIDTH 13 0
BBX 12 12 0 -2
BITMAP
7FE0
0600
0600
0600
FFF0
0600
0600
0600
0600
0600
0600
1E00
ENDCHAR
STARTCHAR 4E91
ENCODING 20113
SWIDTH 1040 0
DWIDTH 13 0
BBX 13 12 0 -2
BITMAP
7FF0
0000
0000
FFF8
0600
0800
0820
1020
1020
27F0
FE10
0010
ENDCHAR
STARTCHAR 4E92
ENCODING 20114
SWIDTH 1040 0
DWIDTH 13 0
BBX 13 12 0 -2
BITMAP
7FF0
0800
0800
0FC0
1040
1040
1040
1FC0
1F80
1080
0080
FFF8
ENDCHAR
STARTCHAR 4E94
ENCODING 20116
SWIDTH 1040 0
DWIDTH 13 0
BBX 13 12 0 -2
BITMAP
7FF0
0800
0800
0800
7FC0
0840
0840
1040
1040
1040
1040
FFF8
ENDCHAR
STARTCHAR 4E95
ENCODING 20117
SWIDTH 1040 0
DWIDTH 13 0
BBX 13 13 0 -2
BITMAP
1040
1040
1040
FFF8
1040
1040
1040
FFF8
F040
1040
1040
2040
4040
ENDCHAR
STARTCHAR 4E98
ENCODING 20120
SWIDTH 1040 0
DWIDTH 13 0
BBX 12 12 0 -2
BITMAP
7FE0
0000
3FC0
2040
2040
3FC0
2040
2040
2040
3FC0
0000
FFF0
ENDCHAR
STARTCHAR 4E99
ENCODING 20121
SWIDTH 1040 0
DWIDTH 13 0
BBX 13 12 0 -2
BITMAP
FFF8
0800
0FE0
0820
1720
10C0
2040
2EC0
2E80
0380
0080
FFF8
ENDCHAR
STARTCHAR 4E9B
ENCODING 20123
SWIDTH 1040 0
DWIDTH 13 0
BBX 13 13 0 -2
BITMAP
1080
5080
5EB0
50E0
5088
5E88
F078
0000
7FF0
7FF0
0000
0000
FFF8
ENDCHAR
STARTCHAR 4E9C
ENCODING 20124
SWIDTH 1040 0
DWIDTH 13 0
BBX 13 13 0 -2
BITMAP
FFF8
0880
0880
7FF0
4890
4890
4890
7FF0
7880
0880
0880
0880
FFF8
ENDCHAR
STARTCHAR 4E9E
ENCODING 20126
SWIDTH 1040 0
DWIDTH 13 0
BBX 13 12 0 -2
BITMAP
FFF8
0880
0880
78F0
4010
4010
78F0
4890
4890
0880
0880
FFF8
ENDCHAR
STARTCHAR 4E9F
ENCODING 20127
SWIDTH 1040 0
DWIDTH 13 0
BBX 13 12 0 -2
BITMAP
7FF0
0600
0600
E878
AF08
A328
A310
A338
E328
8B48
0600
FFF8
ENDCHAR
STARTCHAR 4EA0
ENCODING 20128
SWIDTH 1040 0
DWIDTH 13 0
BBX 12 4 0 4
BITMAP
0600
0600
0600
FFF0
ENDCHAR
STARTCHAR 4EA1
ENCODING 20129
SWIDTH 1040 0
DWIDTH 13 0
BBX 13 13 0 -2
BITMAP
0300
0300
0300
FFF8
2000
2000
2000
2000
2000
2000
2000
2000
1FF0
ENDCHAR
STARTCHAR 4EA2
ENCODING 20130
SWIDTH 1040 0
DWIDTH 13 0
BBX 13 13 0 -2
BITMAP
0600
0600
FFF8
0000
1F80
1080
1080
1080
1080
1080
2088
2088
C078
ENDCHAR
STARTCHAR 4EA4
ENCODING 20132
SWIDTH 1040 0
DWIDTH 13 0
BBX 13 13 0 -2
BITMAP
0600
0600
FFF0
1080
1080
2040
D0B0
0B00
0F00
0600
0B00
30C0
C038
ENDCHAR
STARTCHAR 4EA5
ENCODING 20133
SWIDTH 1040 0
DWIDTH 13 0
BBX 13 13 0 -2
BITMAP
0600
FFF8
0600
0800
3040
0880
0720
0E40
7EC0
7080
0380
0E40
7030
ENDCHAR
STARTCHAR 4EA6
ENCODING 20134
SWIDTH 1040 0
DWIDTH 13 0
BBX 13 13 0 -2
BITMAP
0600
0600
FFF8
0880
0880
48A0
4890
4890
C890
8890
1080
1080
2380
ENDCHAR
STARTCHAR 4EA8
ENCODING 20136
SWIDTH 1040 0
DWIDTH 13 0
BBX 10 13 1 -2
BITMAP
0C00
FFC0
0000
7F80
4080
7F80
0000
FFC0
FF80
0180
0E00
0C00
3C00
ENDCHAR
STARTCHAR 4EAB
ENCODING 20139
SWIDTH 1040 0
DWIDTH 13 0
BBX 12 13 0 -2
BITMAP
0600
FFF0
0000
3FC0
2040
3FC0
0000
3FC0
3F80
0080
FFF0
0600
0E00
ENDCHAR
STARTCHAR 4EAC
ENCODING 20140
SWIDTH 1040 0
DWIDTH 13 0
BBX 12 13 0 -2
BITMAP
0600
0600
FFF0
0000
3FC0
2040
2040
3FC0
3E00
0600
2640
2620
4E20
ENDCHAR
STARTCHAR 4EAD
ENCODING 20141
SWIDTH 1040 0
DWIDTH 13 0
BBX 12 13 0 -2
BITMAP
0600
FFF0
0000
3FC0
2040
FFF0
8010
7FE0
7E00
0600
0600
0600
0E00
ENDCHAR
STARTCHAR 4EAE
ENCODING 20142
SWIDTH 1040 0
DWIDTH 13 0
BBX 13 13 0 -2
BITMAP
0600
FFF0
0000
7FE0
4020
7FE0
0000
FFF0
9090
9090
1080
2088
C078
ENDCHAR
STARTCHAR 4EB0
ENCODING 20144
SWIDTH 1040 0
DWIDTH 13 0
BBX 12 13 0 -2
BITMAP
0600
FFF0
0000
3FC0
2040
3FC0
2040
3FC0
3E00
0600
4640
4620
8E20
ENDCHAR
STARTCHAR 4EB3
ENCODING 20147
SWIDTH 1040 0
DWIDTH 13 0
BBX 12 13 0 -2
BITMAP
0600
FFF0
0000
3FC0
2040
FFF0
8010
3FC0
3E00
0600
7FC0
0610
03F0
ENDCHAR
STARTCHAR 4EB6
ENCODING 20150
SWIDTH 1040 0
DWIDTH 13 0
BBX 13 13 0 -2
BITMAP
0700
FFF8
2FA0
28A0
2FA0
3FE0
0000
1FC0
1040
1040
1FC0
1040
FFF8
ENDCHAR
STARTCHAR 4EBA
ENCODING 20154
SWIDTH 1040 0
DWIDTH 13 0
BBX 13 13 0 -2
BITMAP
0600
0600
0600
0600
0600
0600
0B00
0B00
1B80
1080
1080
2040
C038
ENDCHAR
STARTCHAR 4EC0
ENCODING 20160
SWIDTH 1040 0
DWIDTH 13 0
BBX 12 13 0 -2
BITMAP
1080
1080
2080
2080
6FF0
6080
A080
2080
2080
2080
2080
2080
2080
ENDCHAR
STARTCHAR 4EC1
ENCODING 20161
SWIDTH 1040 0
DWIDTH 13 0
BBX 13 13 0 -2
BITMAP
1000
1000
27F0
2000
6000
A000
2000
2000
2000
2000
2000
2FF8
2000
ENDCHAR
STARTCHAR 4EC2
ENCODING 20162
SWIDTH 1040 0
DWIDTH 13 0
BBX 13 13 0 -2
BITMAP
2080
2080
2080
4FF8
4088
C088
4088
4088
4088
4088
4308
4308
4E30
ENDCHAR
STARTCHAR 4EC4
ENCODING 20164
SWIDTH 1040 0
DWIDTH 13 0
BBX 13 13 0 -2
BITMAP
7FF8
4300
4300
4300
4300
4300
4300
4680
4680
4680
8840
1020
6018
ENDCHAR
STARTCHAR 4EC6
ENCODING 20166
SWIDTH 1040 0
DWIDTH 13 0
BBX 12 13 0 -2
BITMAP
1080
1080
1080
2080
20C0
60A0
A090
2090
2090
2080
2080
2080
2080
ENDCHAR
STARTCHAR 4EC7
ENCODING 20167
SWIDTH 1040 0
DWIDTH 13 0
BBX 13 13 0 -2
BITMAP
2300
2300
2300
4FE0
4320
C320
4320
4320
4320
4320
4628
4628
5818
ENDCHAR
STARTCHAR 4ECA
ENCODING 20170
SWIDTH 1040 0
DWIDTH 13 0
BBX 12 13 0 -2
BITMAP
0600
0600
0B00
30C0
C030
3FC0
0000
7FE0
7FE0
0020
0040
0380
1E00
ENDCHAR
STARTCHAR 4ECB
ENCODING 20171
SWIDTH 1040 0
DWIDTH 13 0
BBX 13 13 0 -2
BITMAP
0600
0700
0880
1040
2020
D058
1040
1040
1040
1040
2040
2040
4040
ENDCHAR
STARTCHAR 4ECD
ENCODING 20173
SWIDTH 1040 0
DWIDTH 13 0
BBX 13 13 0 -2
BITMAP
2FE0
2620
2620
4620
4640
C640
4678
4608
4608
4608
4808
4810
5030
ENDCHAR
STARTCHAR 4ECE
ENCODING 20174
SWIDTH 1040 0
DWIDTH 13 0
BBX 13 13 0 -2
BITMAP
1040
1040
1040
1040
1040
1040
1040
28A0
28A0
28A0
4710
4310
8608
ENDCHAR
STARTCHAR 4ECF
ENCODING 20175
SWIDTH 1040 0
DWIDTH 13 0
BBX 13 13 0 -2
BITMAP
1080
1080
1080
2080
2300
6300
A300
2320
2230
2610
2630
26C8
2F08
ENDCHAR
STARTCHAR 4ED4
ENCODING 20180
SWIDTH 1040 0
DWIDTH 13 0
BBX 13 13 0 -2
BITMAP
2000
27F0
2020
4040
4080
C080
4FF8
4080
4080
4080
4080
4080
4780
ENDCHAR
STARTCHAR 4ED5
ENCODING 20181
SWIDTH 1040 0
DWIDTH 13 0
BBX 13 13 0 -2
BITMAP
2080
2080
2080
4080
5FF8
C080
4080
4080
4080
4080
4080
4080
4FF0
ENDCHAR
STARTCHAR 4ED6
ENCODING 20182
SWIDTH 1040 0
DWIDTH 13 0
BBX 13 13 0 -2
BITMAP
1040
1640
2640
26F8
6F48
A648
2648
2658
2658
2640
2608
2608
23F8
ENDCHAR
STARTCHAR 4ED7
ENCODING 20183
SWIDTH 1040 0
DWIDTH 13 0
BBX 13 13 0 -2
BITMAP
2040
2040
2040
5FF8
4040
C640
4640
4B40
4B80
4080
40C0
4720
5818
ENDCHAR
STARTCHAR 4ED8
ENCODING 20184
SWIDTH 1040 0
DWIDTH 13 0
BBX 13 13 0 -2
BITMAP
1020
1020
1020
27F8
6020
A020
2620
2320
2320
2320
2020
2020
20E0
ENDCHAR
STARTCHAR 4ED9
ENCODING 20185
SWIDTH 1040 0
DWIDTH 13 0
BBX 13 13 0 -2
BITMAP
1040
1040
2040
2648
6648
A648
2648
2648
2648
2648
2648
27F8
2600
ENDCHAR
STARTCHAR 4EDD
ENCODING 20189
SWIDTH 1040 0
DWIDTH 13 0
BBX 13 13 0 -2
BITMAP
0600
0600
0B00
1080
2040
C038
3FC0
0600
0600
0600
0600
0600
FFF0
ENDCHAR
STARTCHAR 4EDE
ENCODING 20190
SWIDTH 1040 0
DWIDTH 13 0
BBX 13 13 0 -2
BITMAP
2000
2FF8
2088
4088
4088
C888
4888
4888
5888
5088
4308
4308
4E30
ENDCHAR
STARTCHAR 4EDF
ENCODING 20191
SWIDTH 1040 0
DWIDTH 13 0
BBX 13 13 0 -2
BITMAP
2070
27C0
2040
4040
4040
CFF8
4040
4040
4040
4040
4040
4040
4040
ENDCHAR
STARTCHAR 4EE3
ENCODING 20195
SWIDTH 1040 0
DWIDTH 13 0
BBX 13 13 0 -2
BITMAP
1090
1088
2080
2FF8
6080
A080
2080
2080
20C0
2040
2040
2028
2018
ENDCHAR
STARTCHAR 4EE4
ENCODING 20196
SWIDTH 1040 0
DWIDTH 13 0
BBX 12 13 0 -2
BITMAP
0600
0B00
1080
2040
DFB0
0000
7FE0
0620
0620
0620
0620
06E0
0600
ENDCHAR
STARTCHAR 4EE5
ENCODING 20197
SWIDTH 1040 0
DWIDTH 13 0
BBX 13 13 0 -2
BITMAP
4020
4020
4820
4620
4620
4320
4020
4020
5020
5020
6050
8388
0E00
ENDCHAR
STARTCHAR 4EED
ENCODING 20205
SWIDTH 1040 0
DWIDTH 13 0
BBX 13 13 0 -2
BITMAP
2000
2FF8
2310
4310
4B10
D710
4310
4390
4290
4670
4618
4820
5060
ENDCHAR
STARTCHAR 4EEE
ENCODING 20206
SWIDTH 1040 0
DWIDTH 13 0
BBX 13 13 0 -2
BITMAP
1000
17F8
1600
2600
2600
67F0
A610
2710
26A0
26A0
2640
28A0
2718
ENDCHAR
STARTCHAR 4EF0
ENCODING 20208
SWIDTH 1040 0
DWIDTH 13 0
BBX 13 13 0 -2
BITMAP
2380
2E00
28F8
4888
4888
C888
4888
4888
4888
4B88
5EB8
4080
4080
ENDCHAR
STARTCHAR 4EF2
ENCODING 20210
SWIDTH 1040 0
DWIDTH 13 0
BBX 12 13 0 -2
BITMAP
2080
2080
2080
4FF0
4890
C890
4890
4FF0
4880
4880
4080
4080
4080
ENDCHAR
STARTCHAR 4EF6
ENCODING 20214
SWIDTH 1040 0
DWIDTH 13 0
BBX 13 13 0 -2
BITMAP
2080
2880
2880
4FF0
5080
C080
4080
5FF8
5F80
4080
4080
4080
4080
ENDCHAR
STARTCHAR 4EF7
ENCODING 20215
SWIDTH 1040 0
DWIDTH 13 0
BBX 13 13 0 -2
BITMAP
2080
2080
2340
4620
5818
C320
4320
4320
4320
4320
4620
4620
4820
ENDCHAR
STARTCHAR 4EFB
ENCODING 20219
SWIDTH 1040 0
DWIDTH 13 0
BBX 13 13 0 -2
BITMAP
2000
20F0
2F80
4080
4080
C080
5FF8
4080
4080
4080
4080
4080
4FF0
ENDCHAR
STARTCHAR 4F01
ENCODING 20225
SWIDTH 1040 0
DWIDTH 13 0
BBX 12 13 0 -2
BITMAP
0600
0600
0B00
1080
2640
C630
0600
27C0
2600
2600
2600
2600
FFF0
ENDCHAR
STARTCHAR 4F09
ENCODING 20233
SWIDTH 1040 0
DWIDTH 13 0
BBX 13 13 0 -2
BITMAP
2080
2080
2FF8
4000
4000
C7E0
4620
4620
4620
4620
4828
4828
5018
ENDCHAR
STARTCHAR 4F0A
ENCODING 20234
SWIDTH 1040 0
DWIDTH 13 0
BBX 13 13 0 -2
BITMAP
1000
1FF0
1090
2090
6FF8
A090
2090
2FF0
2F80
2080
2080
2300
2E00
ENDCHAR
STARTCHAR 4F0D
ENCODING 20237
SWIDTH 1040 0
DWIDTH 13 0
BBX 13 13 0 -2
BITMAP
2000
2FF8
2080
4080
4080
CFF0
4090
4310
4310
4310
4310
4310
5FF8
ENDCHAR
STARTCHAR 4F0E
ENCODING 20238
SWIDTH 1040 0
DWIDTH 13 0
BBX 13 13 0 -2
BITMAP
2080
2080
2FF8
4080
4080
CFF0
4020
4620
4760
4340
4080
4740
5838
ENDCHAR
STARTCHAR 4F0F
ENCODING 20239
SWIDTH 1040 0
DWIDTH 13 0
BBX 13 13 0 -2
BITMAP
2080
2090
2088
4080
4FF8
C080
4080
4340
4340
4340
4620
4610
4808
ENDCHAR
STARTCHAR 4F10
ENCODING 20240
SWIDTH 1040 0
DWIDTH 13 0
BBX 13 13 0 -2
BITMAP
2320
2310
2300
43F0
5F00
C320
4320
4340
43C0
4080
4388
5E48
4038
ENDCHAR
STARTCHAR 4F11
ENCODING 20241
SWIDTH 1040 0
DWIDTH 13 0
BBX 13 13 0 -2
BITMAP
2080
2080
2080
5FF8
4080
C3C0
43C0
46A0
46A0
46A0
4890
5088
4080
ENDCHAR
STARTCHAR 4F1A
ENCODING 20250
SWIDTH 1040 0
DWIDTH 13 0
BBX 13 13 0 -2
BITMAP
0600
0700
0880
1040
2020
DFD8
0000
7FF0
7E00
0600
0820
13F0
7E10
ENDCHAR
STARTCHAR 4F1C
ENCODING 20252
SWIDTH 1040 0
DWIDTH 13 0
BBX 13 13 0 -2
BITMAP
2300
2300
2FE0
4320
4328
C628
5898
4080
40F8
5FF8
4080
4080
4080
ENDCHAR
STARTCHAR 4F1D
ENCODING 20253
SWIDTH 1040 0
DWIDTH 13 0
BBX 13 13 0 -2
BITMAP
1000
17F0
2000
2000
6000
AFF8
2080
2080
2390
2310
2308
2378
2F88
ENDCHAR
STARTCHAR 4F2F
ENCODING 20271
SWIDTH 1040 0
DWIDTH 13 0
BBX 12 13 0 -2
BITMAP
2080
2080
2300
4FF0
4810
C810
4810
4FF0
4810
4810
4810
4810
4FF0
ENDCHAR
STARTCHAR 4F30
ENCODING 20272
SWIDTH 1040 0
DWIDTH 13 0
BBX 13 13 0 -2
BITMAP
2080
2080
2FF8
4080
4080
C080
4080
47F0
4610
4610
4610
4610
47F0
ENDCHAR
STARTCHAR 4F34
ENCODING 20276
SWIDTH 1040 0
DWIDTH 13 0
BBX 13 13 0 -2
BITMAP
2890
2690
26A0
4080
4FF0
C080
4080
5FF8
5F80
4080
4080
4080
4080
ENDCHAR
STARTCHAR 4F36
ENCODING 20278
SWIDTH 1040 0
DWIDTH 13 0
BBX 13 13 0 -2
BITMAP
2080
2340
2620
5818
47E0
C000
4FF0
4310
4310
4310
4310
4330
4300
ENDCHAR
STARTCHAR 4F38
ENCODING 20280
SWIDTH 1040 0
DWIDTH 13 0
BBX 13 13 0 -2
BITMAP
1040
1040
27F8
2648
6648
A7F8
2648
2648
2648
27F8
2640
2040
2040
ENDCHAR
STARTCHAR 4F3A
ENCODING 20282
SWIDTH 1040 0
DWIDTH 13 0
BBX 13 13 0 -2
BITMAP
1000
17F8
2010
27D0
6010
A7D0
2650
2650
2650
27D0
2610
2010
2070
ENDCHAR
STARTCHAR 4F3C
ENCODING 20284
SWIDTH 1040 0
DWIDTH 13 0
BBX 13 13 0 -2
BITMAP
2020
2820
2820
4B20
48A0
C820
4820
4820
4F20
4F20
5850
4088
4700
ENDCHAR
STARTCHAR 4F3D
ENCODING 20285
SWIDTH 1040 0
DWIDTH 13 0
BBX 13 13 0 -2
BITMAP
1600
1600
2638
2FA8
66A8
A6A8
26A8
26A8
26A8
26A8
26A8
26B8
2BA0
ENDCHAR
STARTCHAR 4F43
ENCODING 20291
SWIDTH 1040 0
DWIDTH 13 0
BBX 13 13 0 -2
BITMAP
17F8
1648
2648
2648
6648
A7F8
2648
2648
2648
2648
2648
2648
27F8
ENDCHAR
STARTCHAR 4F46
ENCODING 20294
SWIDTH 1040 0
DWIDTH 13 0
BBX 13 13 0 -2
BITMAP
17F0
1610
2610
2610
67F0
A610
2610
2610
2610
27F0
2600
2000
2FF8
ENDCHAR
STARTCHAR 4F47
ENCODING 20295
SWIDTH 1040 0
DWIDTH 13 0
BBX 12 13 0 -2
BITMAP
2080
2080
2FF0
4810
4000
CFF0
4080
4080
4080
4080
4080
4080
4380
ENDCHAR
STARTCHAR 4F4D
ENCODING 20301
SWIDTH 1040 0
DWIDTH 13 0
BBX 13 13 0 -2
BITMAP
1080
1080
2FF8
2020
6620
A620
2620
2320
2360
2340
2340
2040
2FF8
ENDCHAR
STARTCHAR 4F4E
ENCODING 20302
SWIDTH 1040 0
DWIDTH 13 0
BBX 13 13 0 -2
BITMAP
1030
17C0
2640
2640
6640
A7F8
2640
2640
2660
2620
2F28
2018
2FC8
ENDCHAR
STARTCHAR 4F4F
ENCODING 20303
SWIDTH 1040 0
DWIDTH 13 0
BBX 13 13 0 -2
BITMAP
1300
1080
2000
2FF8
6080
A080
2080
27F0
2780
2080
2080
2080
2FF8
ENDCHAR
STARTCHAR 4F50
ENCODING 20304
SWIDTH 1040 0
DWIDTH 13 0
BBX 13 13 0 -2
BITMAP
2300
2300
2300
4FF8
4300
C600
47F0
4880
5880
5080
4080
4080
4FF8
ENDCHAR
STARTCHAR 4F51
ENCODING 20305
SWIDTH 1040 0
DWIDTH 13 0
BBX 13 13 0 -2
BITMAP
2300
2300
2300
5FF8
4300
C600
4600
4FF0
5E10
5610
4610
4610
47F0
ENDCHAR
STARTCHAR 4F53
ENCODING 20307
SWIDTH 1040 0
DWIDTH 13 0
BBX 13 13 0 -2
BITMAP
2080
2080
2080
4FF8
4080
C3C0
43C0
46A0
46A0
46A0
4890
53C8
4080
ENDCHAR
STARTCHAR 4F55
ENCODING 20309
SWIDTH 1040 0
DWIDTH 13 0
BBX 13 13 0 -2
BITMAP
1000
17F8
1010
2010
27D0
6650
A650
27D0
2610
2610
2010
2010
2070
ENDCHAR
STARTCHAR 4F57
ENCODING 20311
SWIDTH 1040 0
DWIDTH 13 0
BBX 13 13 0 -2
BITMAP
2080
2080
2FF8
4808
4600
C600
4670
47C0
4600
4600
4608
4608
43F8
ENDCHAR
STARTCHAR 4F59
ENCODING 20313
SWIDTH 1040 0
DWIDTH 13 0
BBX 12 13 0 -2
BITMAP
0600
0B00
30C0
C030
3FC0
0600
0600
7FF0
7E00
0600
2640
2620
4E20
ENDCHAR
STARTCHAR 4F5A
ENCODING 20314
SWIDTH 1040 0
DWIDTH 13 0
BBX 13 13 0 -2
BITMAP
2080
2680
2680
47F0
4880
C080
4FF8
4080
4140
4340
4340
4620
5818
ENDCHAR
STARTCHAR 4F5B
ENCODING 20315
SWIDTH 1040 0
DWIDTH 13 0
BBX 13 13 0 -2
BITMAP
2340
2340
2FF0
4350
5FF0
D340
5FF8
4348
4348
4348
4650
4640
4840
ENDCHAR
STARTCHAR 4F5C
ENCODING 20316
SWIDTH 1040 0
DWIDTH 13 0
BBX 13 13 0 -2
BITMAP
2600
2600
27F8
4880
4880
D0F0
4080
4080
40F0
40F0
4080
4080
4080
ENDCHAR
STARTCHAR 4F5D
ENCODING 20317
SWIDTH 1040 0
DWIDTH 13 0
BBX 13 13 0 -2
BITMAP
2600
2600
2600
47F8
4808
D7C8
4648
4648
4648
47C8
4608
4010
4070
ENDCHAR
STARTCHAR 4F5E
ENCODING 20318
SWIDTH 1040 0
DWIDTH 13 0
BBX 13 13 0 -2
BITMAP
27F0
2000
2FF8
4300
4300
DFF8
4620
4620
4740
4F40
40C0
4320
1E10
ENDCHAR
STARTCHAR 4F69
ENCODING 20329
SWIDTH 1040 0
DWIDTH 13 0
BBX 13 13 0 -2
BITMAP
2FF0
2810
2FF0
4890
4890
CFF0
4EB0
4EB0
4EB0
4EB0
4EB0
48E8
5088
ENDCHAR
STARTCHAR 4F6F
ENCODING 20335
SWIDTH 1040 0
DWIDTH 13 0
BBX 13 13 0 -2
BITMAP
2620
2340
2FF0
4080
4080
C7E0
4080
4080
40F8
5FF8
4080
4080
4080
ENDCHAR
STARTCHAR 4F70
ENCODING 20336
SWIDTH 1040 0
DWIDTH 13 0
BBX 12 13 0 -2
BITMAP
2000
2FF0
2080
4300
4FF0
C810
4810
4FF0
4810
4810
4810
4810
4FF0
ENDCHAR
STARTCHAR 4F73
ENCODING 20339
SWIDTH 1040 0
DWIDTH 13 0
BBX 13 13 0 -2
BITMAP
2080
2080
2FF0
4080
4080
DFF8
4080
4080
40F0
4FF0
4080
4080
5FF8
ENDCHAR
STARTCHAR 4F75
ENCODING 20341
SWIDTH 1040 0
DWIDTH 13 0
BBX 13 13 0 -2
BITMAP
1610
1310
2320
2FF8
6320
A320
3FF8
2320
2320
2320
2620
2620
2820
ENDCHAR
STARTCHAR 4F76
ENCODING 20342
SWIDTH 1040 0
DWIDTH 13 0
BBX 12 13 0 -2
BITMAP
2080
2080
2FF0
4080
4080
C7E0
4000
4000
4FF0
4FF0
4810
4810
4FF0
ENDCHAR
STARTCHAR 4F7B
ENCODING 20347
SWIDTH 1040 0
DWIDTH 13 0
BBX 13 13 0 -2
BITMAP
2340
2340
2350
4B50
4760
C340
4760
4B50
4B50
4340
4748
4648
5838
ENDCHAR
STARTCHAR 4F7C
ENCODING 20348
SWIDTH 1040 0
DWIDTH 13 0
BBX 13 13 0 -2
BITMAP
2080
2080
2FF0
4620
4620
C810
5628
4340
43C0
4080
4340
4620
5818
ENDCHAR
STARTCHAR 4F7F
ENCODING 20351
SWIDTH 1040 0
DWIDTH 13 0
BBX 13 13 0 -2
BITMAP
1080
1080
2FF8
2080
6FF0
A890
2FF0
2080
2E80
2E80
2380
2360
2E18
ENDCHAR
STARTCHAR 4F83
ENCODING 20355
SWIDTH 1040 0
DWIDTH 13 0
BBX 13 13 0 -2
BITMAP
2FF0
2810
4810
4810
C810
4FF0
4000
46A0
46A0
46A0
46A8
48A8
4898
ENDCHAR
STARTCHAR 4F86
ENCODING 20358
SWIDTH 1040 0
DWIDTH 13 0
BBX 12 13 0 -2
BITMAP
0600
0600
FFF0
0600
2640
36C0
4F20
8610
8710
0F00
1680
2640
C630
ENDCHAR
STARTCHAR 4F88
ENCODING 20360
SWIDTH 1040 0
DWIDTH 13 0
BBX 13 13 0 -2
BITMAP
2300
23F0
2690
5EE0
4380
DE80
40F8
4388
4FD0
4E50
4320
40C0
4F00
ENDCHAR
STARTCHAR 4F8B
ENCODING 20363
SWIDTH 1040 0
DWIDTH 13 0
BBX 13 13 0 -2
BITMAP
2008
2FA8
2628
4628
4FA8
C8A8
48A8
57A8
5728
4328
4308
4608
5838
ENDCHAR
STARTCHAR 4F8D
ENCODING 20365
SWIDTH 1040 0
DWIDTH 13 0
BBX 13 13 0 -2
BITMAP
1080
17F0
1080
2080
2FF8
6020
A020
2FF8
2FE0
2020
2620
2320
2060
ENDCHAR
STARTCHAR 4F8F
ENCODING 20367
SWIDTH 1040 0
DWIDTH 13 0
BBX 13 13 0 -2
BITMAP
2080
2880
2FF0
4880
5080
C080
5FF8
4080
40C0
43C0
46A0
5898
4080
ENDCHAR
STARTCHAR 4F91
ENCODING 20369
SWIDTH 1040 0
DWIDTH 13 0
BBX 13 13 0 -2
BITMAP
2300
2300
2FF8
4300
47F0
C610
4FF0
5610
5610
47F0
4610
4610
4630
ENDCHAR
STARTCHAR 4F96
ENCODING 20374
SWIDTH 1040 0
DWIDTH 13 0
BBX 12 13 0 -2
BITMAP
0600
0B00
30C0
DFB0
0000
7FE0
4B20
4B20
4B20
7FE0
4B20
4B20
4B60
ENDCHAR
STARTCHAR 4F98
ENCODING 20376
SWIDTH 1040 0
DWIDTH 13 0
BBX 13 13 0 -2
BITMAP
2080
2080
2FF8
4808
48E8
C780
4080
5FF8
5F80
4080
4080
4088
4078
ENDCHAR
STARTCHAR 4F9B
ENCODING 20379
SWIDTH 1040 0
DWIDTH 13 0
BBX 13 13 0 -2
BITMAP
2320
2320
2320
4FF0
4320
C320
4320
5FF8
5F20
4320
4310
4610
4810
ENDCHAR
STARTCHAR 4F9D
ENCODING 20381
SWIDTH 1040 0
DWIDTH 13 0
BBX 13 13 0 -2
BITMAP
1040
1040
2FF8
2080
6310
A690
3EA0
2640
2640
2640
2620
27A0
2E18
ENDCHAR
STARTCHAR 4FA0
ENCODING 20384
SWIDTH 1040 0
DWIDTH 13 0
BBX 13 13 0 -2
BITMAP
2080
2080
2FF0
4080
4890
C890
46A0
5FF8
5F80
4080
4340
4620
5818
ENDCHAR
STARTCHAR 4FA1
ENCODING 20385
SWIDTH 1040 0
DWIDTH 13 0
BBX 13 13 0 -2
BITMAP
1000
17F8
10A0
20A0
27F8
66A8
A6A8
26A8
26A8
26A8
26A8
27F8
2600
ENDCHAR
STARTCHAR 4FAB
ENCODING 20395
SWIDTH 1040 0
DWIDTH 13 0
BBX 13 13 0 -2
BITMAP
2040
2040
2FF8
4600
4600
C3F0
4600
5FF8
5E20
4620
4F40
40E0
4F10
ENDCHAR
STARTCHAR 4FAD
ENCODING 20397
SWIDTH 1040 0
DWIDTH 13 0
BBX 13 13 0 -2
BITMAP
2000
2FF0
2810
4FF0
4820
C820
4B90
4850
5058
5008
5708
40C0
4020
ENDCHAR
STARTCHAR 4FAE
ENCODING 20398
SWIDTH 1040 0
DWIDTH 13 0
BBX 13 13 0 -2
BITMAP
2600
27F8
2600
4BF0
4B50
C350
4FF8
46A0
46A0
46A0
47F8
4620
40E0
ENDCHAR
STARTCHAR 4FAF
ENCODING 20399
SWIDTH 1040 0
DWIDTH 13 0
BBX 13 13 0 -2
BITMAP
27E0
2020
2020
4FF0
4800
CFF0
4880
5080
50F8
4FF8
4340
4620
5818
ENDCHAR
STARTCHAR 4FB5
ENCODING 20405
SWIDTH 1040 0
DWIDTH 13 0
BBX 13 13 0 -2
BITMAP
17F0
1010
27F0
2010
67F0
A000
2FF8
2808
2808
23F8
2310
20E0
2F18
ENDCHAR
STARTCHAR 4FB6
ENCODING 20406
SWIDTH 1040 0
DWIDTH 13 0
BBX 13 13 0 -2
BITMAP
27F0
2610
2610
47F0
4080
C080
4300
4FF8
4808
4808
4808
4808
4FF8
ENDCHAR
STARTCHAR 4FBF
ENCODING 20415
SWIDTH 1040 0
DWIDTH 13 0
BBX 13 13 0 -2
BITMAP
2FF8
2080
2FF0
4890
4FF0
C890
4FF0
4080
4E80
4E80
4380
4640
5838
ENDCHAR
STARTCHAR 4FC2
ENCODING 20418
SWIDTH 1040 0
DWIDTH 13 0
BBX 13 13 0 -2
BITMAP
1060
17C0
1080
2720
2340
6090
6FF0
A088
A6A8
26A8
2890
2890
2080
ENDCHAR
STARTCHAR 4FC3
ENCODING 20419
SWIDTH 1040 0
DWIDTH 13 0
BBX 13 13 0 -2
BITMAP
27F0
2610
2610
4610
47F0
C040
4640
4678
4640
4640
4640
4B40
50F8
ENDCHAR
STARTCHAR 4FC4
ENCODING 20420
SWIDTH 1040 0
DWIDTH 13 0
BBX 13 13 0 -2
BITMAP
2F50
2648
2648
4640
5FF8
C640
4748
5E48
5E78
4630
4660
46A8
4E18
ENDCHAR
STARTCHAR 4FCA
ENCODING 20426
SWIDTH 1040 0
DWIDTH 13 0
BBX 13 13 0 -2
BITMAP
1080
1320
2FF0
2350
6348
AE78
2300
23F0
2210
2E10
2360
23C0
2E38
ENDCHAR
STARTCHAR 4FCE
ENCODING 20430
SWIDTH 1040 0
DWIDTH 13 0
BBX 13 13 0 -2
BITMAP
23F0
2310
2310
5310
4BF0
A310
2310
23F0
7310
5310
4B10
8310
0FF8
ENDCHAR
STARTCHAR 4FD0
ENCODING 20432
SWIDTH 1040 0
DWIDTH 13 0
BBX 13 13 0 -2
BITMAP
2388
2F28
2628
4628
5FA8
C628
4F28
4EA8
5EA8
5628
5608
4608
4638
ENDCHAR
STARTCHAR 4FD1
ENCODING 20433
SWIDTH 1040 0
DWIDTH 13 0
BBX 12 13 0 -2
BITMAP
2000
2FE0
2340
4080
4FF0
C890
4FF0
4890
4890
4FF0
4890
4890
48B0
ENDCHAR
STARTCHAR 4FD4
ENCODING 20436
SWIDTH 1040 0
DWIDTH 13 0
BBX 13 13 0 -2
BITMAP
27F0
2610
2610
47F0
4610
C7F0
4610
4610
4610
47F0
4340
4348
4E78
ENDCHAR
STARTCHAR 4FD7
ENCODING 20439
SWIDTH 1040 0
DWIDTH 13 0
BBX 13 13 0 -2
BITMAP
2620
2620
2890
5088
4340
C620
5818
47E0
4620
4620
4620
4620
47E0
ENDCHAR
STARTCHAR 4FD8
ENCODING 20440
SWIDTH 1040 0
DWIDTH 13 0
BBX 13 13 0 -2
BITMAP
2030
2FE0
26A0
4890
5088
CFF0
4020
4040
4078
5FF8
4080
4080
4780
ENDCHAR
STARTCHAR 4FDA
ENCODING 20442
SWIDTH 1040 0
DWIDTH 13 0
BBX 13 13 0 -2
BITMAP
2FF0
2890
2FF0
4890
4890
CFF0
4080
4080
40F0
4FF0
4080
4080
5FF8
ENDCHAR
STARTCHAR 4FDB
ENCODING 20443
SWIDTH 1040 0
DWIDTH 13 0
BBX 13 13 0 -2
BITMAP
2300
23E0
2620
4040
4FF0
C890
4890
4FF0
4F40
4340
4348
4648
5838
ENDCHAR
STARTCHAR 4FDD
ENCODING 20445
SWIDTH 1040 0
DWIDTH 13 0
BBX 13 13 0 -2
BITMAP
2FF0
2810
2810
4FF0
4880
C080
5FF8
4080
40C0
43C0
46A0
5898
4080
ENDCHAR
STARTCHAR 4FDF
ENCODING 20447
SWIDTH 1040 0
DWIDTH 13 0
BBX 13 13 0 -2
BITMAP
2300
2320
2610
4FF0
4610
C7F0
4880
4080
40F8
5FF8
4340
4620
5818
ENDCHAR
STARTCHAR 4FE1
ENCODING 20449
SWIDTH 1040 0
DWIDTH 13 0
BBX 13 13 0 -2
BITMAP
13E0
1000
27F8
2000
63F0
A000
23F0
2000
27F8
27F8
2608
2608
27F8
ENDCHAR
STARTCHAR 4FE3
ENCODING 20451
SWIDTH 1040 0
DWIDTH 13 0
BBX 13 13 0 -2
BITMAP
2FF0
2810
2810
4FF0
4000
CFF0
4080
4080
40F8
5FF8
4340
4620
5818
ENDCHAR
STARTCHAR 4FE4
ENCODING 20452
SWIDTH 1040 0
DWIDTH 13 0
BBX 13 13 0 -2
BITMAP
2620
2340
2FF0
4090
4FF0
D080
5FF8
4088
4088
4388
4690
58B0
4080
ENDCHAR
STARTCHAR 4FE5
ENCODING 20453
SWIDTH 1040 0
DWIDTH 13 0
BBX 13 13 0 -2
BITMAP
2080
2FF8
2080
4FF0
4890
CFF0
4890
4FF0
4F80
4080
5FF8
4080
4080
ENDCHAR
STARTCHAR 4FEE
ENCODING 20462
SWIDTH 1040 0
DWIDTH 13 0
BBX 13 13 0 -2
BITMAP
2300
23F8
2710
48A0
40C0
D720
5098
5700
5760
5060
5780
5030
4FC0
ENDCHAR
STARTCHAR 4FEF
ENCODING 20463
SWIDTH 1040 0
DWIDTH 13 0
BBX 13 13 0 -2
BITMAP
2080
2080
2FF8
4890
4890
CB78
4F10
4B10
4B50
4B50
4B50
5310
5330
ENDCHAR
STARTCHAR 4FF3
ENCODING 20467
SWIDTH 1040 0
DWIDTH 13 0
BBX 13 13 0 -2
BITMAP
2340
2340
2F78
4340
4340
DF78
4340
4340
4378
5F78
4640
4640
4840
ENDCHAR
STARTCHAR 4FF5
ENCODING 20469
SWIDTH 1040 0
DWIDTH 13 0
BBX 13 13 0 -2
BITMAP
2080
2FF0
2080
4FF0
4080
DFF8
4300
4650
4670
4E60
5640
47A0
4E18
ENDCHAR
STARTCHAR 4FF6
ENCODING 20470
SWIDTH 1040 0
DWIDTH 13 0
BBX 13 13 0 -2
BITMAP
2600
2638
2788
4628
5FA8
C628
4628
4EA8
5EB0
5690
5690
5628
46C8
ENDCHAR
STARTCHAR 4FF8
ENCODING 20472
SWIDTH 1040 0
DWIDTH 13 0
BBX 13 13 0 -2
BITMAP
2080
2FF0
2080
47E0
4340
DFF8
46A0
5898
58F8
47E0
4080
4FF0
4080
ENDCHAR
STARTCHAR 4FFA
ENCODING 20474
SWIDTH 1040 0
DWIDTH 13 0
BBX 13 13 0 -2
BITMAP
2080
2080
2FF8
46A0
C890
77E8
46A0
47E0
46A0
46A0
47E0
4088
4078
ENDCHAR
STARTCHAR 4FFE
ENCODING 20478
SWIDTH 1040 0
DWIDTH 13 0
BBX 13 13 0 -2
BITMAP
2080
2300
2FF0
4890
4FF0
C890
4FF0
4640
4840
4840
5FF8
4040
4040
ENDCHAR
STARTCHAR 5005
ENCODING 20485
SWIDTH 1040 0
DWIDTH 13 0
BBX 13 13 0 -2
BITMAP
2080
2080
2FF0
4620
4620
CB50
5088
4080
40F8
5FF8
4080
4080
4080
ENDCHAR
STARTCHAR 5006
ENCODING 20486
SWIDTH 1040 0
DWIDTH 13 0
BBX 13 13 0 -2
BITMAP
2000
3FF8
4080
5FF8
D088
5088
5EE8
56A8
56A8
56A8
5BD8
5088
5098
ENDCHAR
STARTCHAR 5009
ENCODING 20489
SWIDTH 1040 0
DWIDTH 13 0
BBX 12 13 0 -2
BITMAP
0600
0B00
30C0
FFF0
2040
3FC0
2040
3FC0
2000
2000
3FE0
5020
9FE0
ENDCHAR
STARTCHAR 500B
ENCODING 20491
SWIDTH 1040 0
DWIDTH 13 0
BBX 13 13 0 -2
BITMAP
2FF8
2848
2848
4FF8
4848
C848
4BE8
4B28
4B28
4B28
4BE8
4808
4FF8
ENDCHAR
STARTCHAR 500D
ENCODING 20493
SWIDTH 1040 0
DWIDTH 13 0
BBX 13 13 0 -2
BITMAP
2080
2080
2FF0
4620
4340
DFF8
4000
4000
4FF0
4FF0
4810
4810
4FF0
ENDCHAR
STARTCHAR 500F
ENCODING 20495
SWIDTH 1040 0
DWIDTH 13 0
BBX 13 13 0 -2
BITMAP
2300
23F8
2310
56E0
50A0
D718
5050
5048
5048
57F8
5040
40A0
4718
ENDCHAR
STARTCHAR 5011
ENCODING 20497
SWIDTH 1040 0
DWIDTH 13 0
BBX 12 13 0 -2
BITMAP
2F70
2B50
2F70
4B50
4F70
C810
4810
4810
4810
4810
4810
4810
4830
ENDCHAR
STARTCHAR 5012
ENCODING 20498
SWIDTH 1040 0
DWIDTH 13 0
BBX 13 13 0 -2
BITMAP
2008
3F88
2B28
4BA8
5EA8
C628
4628
5FA8
5E28
4628
4788
5E08
4038
ENDCHAR
STARTCHAR 5014
ENCODING 20500
SWIDTH 1040 0
DWIDTH 13 0
BBX 13 13 0 -2
BITMAP
2000
2FF8
2808
4FF8
4840
CB50
4B50
4BF0
53C0
5040
5648
4648
47F8
ENDCHAR
STARTCHAR 5016
ENCODING 20502
SWIDTH 1040 0
DWIDTH 13 0
BBX 13 13 0 -2
BITMAP
1080
1080
27E0
2080
6FF0
A620
2340
2FF8
2F80
2080
27F0
2080
2080
ENDCHAR
STARTCHAR 5019
ENCODING 20505
SWIDTH 1040 0
DWIDTH 13 0
BBX 13 13 0 -2
BITMAP
23F0
2010
2010
47F8
5300
D3F8
5640
5040
5078
57F8
5040
50A0
4718
ENDCHAR
STARTCHAR 501A
ENCODING 20506
SWIDTH 1040 0
DWIDTH 13 0
BBX 13 13 0 -2
BITMAP
2080
2FF8
2340
4620
5818
C000
5FF8
4010
4F90
4F90
4890
4F90
4030
ENDCHAR
STARTCHAR 501F
ENCODING 20511
SWIDTH 1040 0
DWIDTH 13 0
BBX 13 13 0 -2
BITMAP
1320
1320
17F0
2320
2320
6FF8
A000
27F0
2610
2610
27F0
2610
27F0
ENDCHAR
STARTCHAR 5021
ENCODING 20513
SWIDTH 1040 0
DWIDTH 13 0
BBX 12 13 0 -2
BITMAP
27E0
2620
27E0
4620
47E0
C000
4FF0
4810
4810
4FF0
4810
4810
4FF0
ENDCHAR
STARTCHAR 5023
ENCODING 20515
SWIDTH 1040 0
DWIDTH 13 0
BBX 13 13 0 -2
BITMAP
2640
2640
2678
5FD0
4650
C690
4F20
4B20
4B20
4B20
4B50
4F50
4088
ENDCHAR
STARTCHAR 5024
ENCODING 20516
SWIDTH 1040 0
DWIDTH 13 0
BBX 13 13 0 -2
BITMAP
2040
27F8
2040
43F0
4B10
CBF0
4B10
4BF0
4B10
4B10
4BF0
4800
4FF8
ENDCHAR
STARTCHAR 5025
ENCODING 20517
SWIDTH 1040 0
DWIDTH 13 0
BBX 13 13 0 -2
BITMAP
2080
2080
2FF8
4B48
4340
CE78
4000
4FF0
4F80
4080
4080
4080
5FF8
ENDCHAR
STARTCHAR 5026
ENCODING 20518
SWIDTH 1040 0
DWIDTH 13 0
BBX 13 13 0 -2
BITMAP
2890
26A0
2FF0
4080
5FF8
C340
4620
5BF8
5BE0
4020
47E0
4610
43F0
ENDCHAR
STARTCHAR 5028
ENCODING 20520
SWIDTH 1040 0
DWIDTH 13 0
BBX 13 13 0 -2
BITMAP
2FF8
2808
2808
4FF8
4840
CFF8
4840
4840
4878
4FF8
5608
4608
47F8
ENDCHAR
STARTCHAR 5029
ENCODING 20521
SWIDTH 1040 0
DWIDTH 13 0
BBX 13 13 0 -2
BITMAP
2080
2FF0
2080
47E0
4080
DFF8
4890
4890
4890
4FF0
4810
4810
4830
ENDCHAR
STARTCHAR 502A
ENCODING 20522
SWIDTH 1040 0
DWIDTH 13 0
BBX 13 13 0 -2
BITMAP
2300
2E70
2810
4F70
4810
C810
4FF0
4640
4640
4640
4648
4648
5878
ENDCHAR
STARTCHAR 502B
ENCODING 20523
SWIDTH 1040 0
DWIDTH 13 0
BBX 13 13 0 -2
BITMAP
2080
2340
2620
5818
47E0
C000
4FF0
4B50
4B50
4FF0
4B50
4B50
4830
ENDCHAR
STARTCHAR 502C
ENCODING 20524
SWIDTH 1040 0
DWIDTH 13 0
BBX 13 13 0 -2
BITMAP
2080
20F8
2080
4FF0
4810
CFF0
4810
4FF0
4F80
4080
5FF8
4080
4080
ENDCHAR
STARTCHAR 502D
ENCODING 20525
SWIDTH 1040 0
DWIDTH 13 0
BBX 13 13 0 -2
BITMAP
20F0
2F80
2080
4FF8
43C0
C6A0
5898
4600
47F8
4FF8
4730
40C0
4F30
ENDCHAR
STARTCHAR 5036
ENCODING 20534
SWIDTH 1040 0
DWIDTH 13 0
BBX 13 13 0 -2
BITMAP
17F0
1610
27F0
2610
67F0
A610
27F0
2000
2FF8
2FF8
20A0
2310
2E08
ENDCHAR
STARTCHAR 5039
ENCODING 20537
SWIDTH 1040 0
DWIDTH 13 0
BBX 13 13 0 -2
BITMAP
1080
1340
2620
3818
67E0
A080
2FF0
2890
2890
2FF0
2080
2340
2E38
ENDCHAR
STARTCHAR 5043
ENCODING 20547
SWIDTH 1040 0
DWIDTH 13 0
BBX 13 13 0 -2
BITMAP
2FF8
2800
2BF0
4B10
4BF0
CB10
4FF8
4890
4890
4B90
4870
4B88
4FF8
ENDCHAR
STARTCHAR 5047
ENCODING 20551
SWIDTH 1040 0
DWIDTH 13 0
BBX 13 13 0 -2
BITMAP
2FB8
2888
2888
4F88
4838
C800
4FB8
4808
4828
4828
4F90
4828
4848
ENDCHAR
STARTCHAR 5048
ENCODING 20552
SWIDTH 1040 0
DWIDTH 13 0
BBX 13 13 0 -2
BITMAP
27F0
2610
27F0
4610
47F0
C300
47F8
5888
5E88
4688
4768
4608
47D8
ENDCHAR
STARTCHAR 5049
ENCODING 20553
SWIDTH 1040 0
DWIDTH 13 0
BBX 13 13 0 -2
BITMAP
1300
17F0
2310
2FF8
6040
AFF0
2FF0
2040
2070
2FF0
2640
2FF8
2040
ENDCHAR
STARTCHAR 504F
ENCODING 20559
SWIDTH 1040 0
DWIDTH 13 0
BBX 13 13 0 -2
BITMAP
2FF0
2000
2FF0
4810
4FF0
C800
4FF8
4EA8
4EA8
4FF8
56A8
56A8
4618
ENDCHAR
STARTCHAR 5050
ENCODING 20560
SWIDTH 1040 0
DWIDTH 13 0
BBX 13 13 0 -2
BITMAP
2080
2FF0
2620
4340
4FF8
C800
4860
4B90
4BF0
4860
4B88
5030
57C0
ENDCHAR
STARTCHAR 5055
ENCODING 20565
SWIDTH 1040 0
DWIDTH 13 0
BBX 13 13 0 -2
BITMAP
2840
2840
2FD8
4860
4848
DFB8
4000
4FF0
4810
4810
4FF0
4810
4FF0
ENDCHAR
STARTCHAR 5056
ENCODING 20566
SWIDTH 1040 0
DWIDTH 13 0
BBX 13 13 0 -2
BITMAP
2300
2FF0
2300
4340
5FF8
C380
4600
5FF0
5E10
4610
47F0
4610
47F0
ENDCHAR
STARTCHAR 505A
ENCODING 20570
SWIDTH 1040 0
DWIDTH 13 0
BBX 13 13 0 -2
BITMAP
2840
2840
2840
5EF8
4890
CB90
5EA0
56A0
56C0
5640
5E40
50A0
4318
ENDCHAR
STARTCHAR 505C
ENCODING 20572
SWIDTH 1040 0
DWIDTH 13 0
BBX 13 13 0 -2
BITMAP
1040
17F8
2000
23F0
6310
A7F8
2608
2000
27F8
27F8
2040
2040
20C0
ENDCHAR
STARTCHAR 5065
ENCODING 20581
SWIDTH 1040 0
DWIDTH 13 0
BBX 13 13 0 -2
BITMAP
2020
20F8
2028
43F8
5E28
C6F8
4820
5EF8
5EE0
4620
56F8
4820
57F8
ENDCHAR
STARTCHAR 506C
ENCODING 20588
SWIDTH 1040 0
DWIDTH 13 0
BBX 13 13 0 -2
BITMAP
2600
2600
2FF8
4B48
5748
D3E8
4650
4000
4890
4890
5648
5608
53E0
ENDCHAR
STARTCHAR 5072
ENCODING 20594
SWIDTH 1040 0
DWIDTH 13 0
BBX 13 13 0 -2
BITMAP
2FF0
2890
2890
4FF0
4890
C890
4FF0
4000
4880
4880
5650
5628
53E8
ENDCHAR
STARTCHAR 5074
ENCODING 20596
SWIDTH 1040 0
DWIDTH 13 0
BBX 13 13 0 -2
BITMAP
2F88
28A8
28A8
4FA8
48A8
C8A8
4FA8
48A8
48A8
48A8
4F88
4708
4898
ENDCHAR
STARTCHAR 5075
ENCODING 20597
SWIDTH 1040 0
DWIDTH 13 0
BBX 13 13 0 -2
BITMAP
2080
20F8
2080
4FF0
4810
CFF0
4810
4FF0
4810
4810
4FF0
4340
4E30
ENDCHAR
STARTCHAR 5076
ENCODING 20598
SWIDTH 1040 0
DWIDTH 13 0
BBX 13 13 0 -2
BITMAP
27F0
2690
27F0
4690
47F0
C080
4FF8
4888
48A8
48A8
4BE8
4828
4818
ENDCHAR
STARTCHAR 5078
ENCODING 20600
SWIDTH 1040 0
DWIDTH 13 0
BBX 13 13 0 -2
BITMAP
2080
2340
2620
5BD8
4000
CF28
4B28
4F50
4B50
4B50
4F50
4B28
5728
ENDCHAR
STARTCHAR 507D
ENCODING 20605
SWIDTH 1040 0
DWIDTH 13 0
BBX 13 13 0 -2
BITMAP
2840
2640
2080
5FE0
4320
C7F0
4810
4FF8
5FF8
5008
4B48
4B48
5330
ENDCHAR
STARTCHAR 5080
ENCODING 20608
SWIDTH 1040 0
DWIDTH 13 0
BBX 13 13 0 -2
BITMAP
2040
2080
2FF0
4890
4FF0
C890
4FF0
46A0
46A0
46A0
46D0
4688
5878
ENDCHAR
STARTCHAR 5085
ENCODING 20613
SWIDTH 1040 0
DWIDTH 13 0
BBX 13 13 0 -2
BITMAP
2090
2FF8
2080
4FF0
4890
CFF0
4890
4890
48B0
4020
5FF8
4820
4660
ENDCHAR
STARTCHAR 508D
ENCODING 20621
SWIDTH 1040 0
DWIDTH 13 0
BBX 13 13 0 -2
BITMAP
20C0
2FF8
2610
4320
5FF8
D308
4FF0
4300
43F0
43F0
4310
4610
5870
ENDCHAR
STARTCHAR 5091
ENCODING 20625
SWIDTH 1040 0
DWIDTH 13 0
BBX 13 13 0 -2
BITMAP
2610
2710
2BF8
4F50
53F8
C610
5890
4080
40F0
5FF0
43C0
46A0
5898
ENDCHAR
STARTCHAR 5098
ENCODING 20632
SWIDTH 1040 0
DWIDTH 13 0
BBX 12 13 0 -2
BITMAP
0600
0B00
30C0
C630
2640
2640
56A0
2640
56A0
56A0
FFF0
0600
0600
ENDCHAR
STARTCHAR 5099
ENCODING 20633
SWIDTH 1040 0
DWIDTH 13 0
BBX 13 13 0 -2
BITMAP
2320
2FF8
2320
5FF8
5000
D7F8
5648
57F8
5648
5648
57F8
5648
6658
ENDCHAR
STARTCHAR 509A
ENCODING 20634
SWIDTH 1040 0
DWIDTH 13 0
BBX 13 13 0 -2
BITMAP
2640
2640
3FC0
4B78
4B48
CB50
4BB0
56A0
56A0
4620
4B50
4850
5388
ENDCHAR
STARTCHAR 50AC
ENCODING 20652
SWIDTH 1040 0
DWIDTH 13 0
BBX 13 13 0 -2
BITMAP
1040
1648
27F8
2320
6340
A7F8
2E40
27F0
2640
2640
27F0
2640
27F8
ENDCHAR
STARTCHAR 50AD
ENCODING 20653
SWIDTH 1040 0
DWIDTH 13 0
BBX 13 13 0 -2
BITMAP
20C0
2FF8
2840
4BF0
4850
CFF8
CB48
4BF8
4B48
4B48
4BF8
5348
5358
ENDCHAR
STARTCHAR 50B2
ENCODING 20658
SWIDTH 1040 0
DWIDTH 13 0
BBX 13 13 0 -2
BITMAP
2640
2640
2FC0
4678
5FC8
C650
5FB0
4820
4F20
4F20
4B50
4B50
5788
ENDCHAR
STARTCHAR 50B3
ENCODING 20659
SWIDTH 1040 0
DWIDTH 13 0
BBX 13 13 0 -2
BITMAP
2090
2FF8
2080
4FF0
4890
CFF0
4620
4FF0
4FF0
4010
5FF8
4820
4660
ENDCHAR
STARTCHAR 50B4
ENCODING 20660
SWIDTH 1040 0
DWIDTH 13 0
BBX 13 13 0 -2
BITMAP
5FF8
5000
53F0
5310
D3F0
5000
57B8
56A8
56A8
56A8
57B8
5000
5FF8
ENDCHAR
STARTCHAR 50B5
ENCODING 20661
SWIDTH 1040 0
DWIDTH 13 0
BBX 13 13 0 -2
BITMAP
1040
17F8
2040
23F0
6040
AFF8
2610
27F0
2610
2610
27F0
2320
2E18
ENDCHAR
STARTCHAR 50B7
ENCODING 20663
SWIDTH 1040 0
DWIDTH 13 0
BBX 13 13 0 -2
BITMAP
17F8
1600
2BF0
2310
63F0
A310
2FF8
2600
27F8
27F8
2B48
2348
26B0
ENDCHAR
STARTCHAR 50BE
ENCODING 20670
SWIDTH 1040 0
DWIDTH 13 0
BBX 13 13 0 -2
BITMAP
23F8
2020
2040
50F8
5088
DEF8
5088
50F8
5088
5088
4EF8
4050
4388
ENDCHAR
STARTCHAR 50C2
ENCODING 20674
SWIDTH 1040 0
DWIDTH 13 0
BBX 13 13 0 -2
BITMAP
2FF0
2890
3FF8
4080
4FF0
C890
4FF0
4080
40F8
5FF8
4E30
43C0
5E38
ENDCHAR
STARTCHAR 50C5
ENCODING 20677
SWIDTH 1040 0
DWIDTH 13 0
BBX 13 13 0 -2
BITMAP
2320
2FF8
2320
4FF0
4890
CFF0
4080
4FF8
4F80
4080
47F0
4080
4FF8
ENDCHAR
STARTCHAR 50C9
ENCODING 20681
SWIDTH 1040 0
DWIDTH 13 0
BBX 12 13 0 -2
BITMAP
0600
0B00
30C0
DFB0
0000
7BE0
4B20
7BE0
7380
1080
1080
2B40
C630
ENDCHAR
STARTCHAR 50CA
ENCODING 20682
SWIDTH 1040 0
DWIDTH 13 0
BBX 13 13 0 -2
BITMAP
2FF8
2340
2FF0
4B50
4FF0
C080
5FF8
47E0
5FF8
5838
47E0
4608
47F8
ENDCHAR
STARTCHAR 50CD
ENCODING 20685
SWIDTH 1040 0
DWIDTH 13 0
BBX 13 13 0 -2
BITMAP
27A0
3E20
2678
5FA8
4628
DFA8
56A8
5FA8
56A8
56A8
5FA8
4628
5FD8
ENDCHAR
STARTCHAR 50CF
ENCODING 20687
SWIDTH 1040 0
DWIDTH 13 0
BBX 13 13 0 -2
BITMAP
20E0
2320
2E40
47F8
4648
C7F8
40C0
4F68
4FF8
40B0
4F60
40B0
4F68
ENDCHAR
STARTCHAR 50D1
ENCODING 20689
SWIDTH 1040 0
DWIDTH 13 0
BBX 13 13 0 -2
BITMAP
27E0
2080
2FF8
4340
47E0
DB58
43C0
4FF8
4808
4808
4BC8
4B48
4BD8
ENDCHAR
STARTCHAR 50D5
ENCODING 20693
SWIDTH 1040 0
DWIDTH 13 0
BBX 13 13 0 -2
BITMAP
2B50
2B50
2760
5FF8
4620
C340
4FF0
4080
40F8
5FF8
4340
4620
5818
ENDCHAR
STARTCHAR 50D6
ENCODING 20694
SWIDTH 1040 0
DWIDTH 13 0
BBX 13 13 0 -2
BITMAP
2080
3FF8
2080
4FF0
4810
CFF0
4620
5FF8
5FF8
4000
4FF0
4810
4FF0
ENDCHAR
STARTCHAR 50DA
ENCODING 20698
SWIDTH 1040 0
DWIDTH 13 0
BBX 13 13 0 -2
BITMAP
2080
2FF0
2340
57E8
4E30
D7E8
4620
47E0
4780
4080
4890
4888
5388
ENDCHAR
STARTCHAR 50DE
ENCODING 20702
SWIDTH 1040 0
DWIDTH 13 0
BBX 13 13 0 -2
BITMAP
2060
3FA0
2890
5FE0
4820
CFF0
4810
4FF8
4808
4808
4B48
4B28
5318
ENDCHAR
STARTCHAR 50E3
ENCODING 20707
SWIDTH 1040 0
DWIDTH 13 0
BBX 13 13 0 -2
BITMAP
2620
3F78
2620
5F78
4620
CB50
5088
4FF0
4810
4810
4FF0
4810
4FF0
ENDCHAR
STARTCHAR 50E5
ENCODING 20709
SWIDTH 1040 0
DWIDTH 13 0
BBX 13 13 0 -2
BITMAP
27E0
2080
2FF0
4620
5F78
C620
5FF8
4000
5FF8
5FF8
4340
4648
5838
ENDCHAR
STARTCHAR 50E7
ENCODING 20711
SWIDTH 1040 0
DWIDTH 13 0
BBX 13 13 0 -2
BITMAP
1310
10A0
27F8
2648
67F8
A648
27F8
2310
2310
23F0
2310
2310
23F0
ENDCHAR
STARTCHAR 50ED
ENCODING 20717
SWIDTH 1040 0
DWIDTH 13 0
BBX 13 13 0 -2
BITMAP
2610
3F78
3650
5F78
4610
CEB0
5758
4FF0
4810
4810
4FF0
4810
4FF0
ENDCHAR
STARTCHAR 50EE
ENCODING 20718
SWIDTH 1040 0
DWIDTH 13 0
BBX 13 13 0 -2
BITMAP
2080
2FF0
2620
4340
5FF8
CFF0
4890
4FF0
4890
4890
4FF0
4080
5FF8
ENDCHAR
STARTCHAR 50F5
ENCODING 20725
SWIDTH 1040 0
DWIDTH 13 0
BBX 13 13 0 -2
BITMAP
3FF8
2FF0
2890
4FF0
4890
DFF8
4000
4FF0
4890
4890
4FF0
4890
5FF8
ENDCHAR
STARTCHAR 50F9
ENCODING 20729
SWIDTH 1040 0
DWIDTH 13 0
BBX 13 13 0 -2
BITMAP
2FF8
2340
2FF8
4B48
4FF8
CFF0
4810
4FF0
4810
4810
4FF0
4620
5818
ENDCHAR
STARTCHAR 50FB
ENCODING 20731
SWIDTH 1040 0
DWIDTH 13 0
BBX 13 13 0 -2
BITMAP
2020
2F20
2BF8
4B50
4F50
C8F8
4F20
5B20
5B38
4BF8
4B20
4F20
4020
ENDCHAR
STARTCHAR 5100
ENCODING 20736
SWIDTH 1040 0
DWIDTH 13 0
BBX 13 13 0 -2
BITMAP
2620
3FF8
2080
4FF0
4080
DFF8
DE80
4890
4898
5FF8
4850
5E20
48D8
ENDCHAR
STARTCHAR 5101
ENCODING 20737
SWIDTH 1040 0
DWIDTH 13 0
BBX 13 13 0 -2
BITMAP
2640
2680
2FF0
5880
4FF0
C880
4FF8
4000
4F78
4F78
4B48
4BC8
4818
ENDCHAR
STARTCHAR 5102
ENCODING 20738
SWIDTH 1040 0
DWIDTH 13 0
BBX 13 13 0 -2
BITMAP
2340
2FF0
2B50
4FF0
4B50
DFF8
5000
5FF8
5680
5680
5698
5660
6F18
ENDCHAR
STARTCHAR 5104
ENCODING 20740
SWIDTH 1040 0
DWIDTH 13 0
BBX 13 13 0 -2
BITMAP
2080
2FF0
2620
5FF8
4810
CFF0
4810
4FF0
4FC0
4040
4B48
4B28
50E8
ENDCHAR
STARTCHAR 5109
ENCODING 20745
SWIDTH 1040 0
DWIDTH 13 0
BBX 13 13 0 -2
BITMAP
2080
2340
2620
5BD8
4000
CF70
4B50
4F70
4E60
4620
4730
4848
5080
ENDCHAR
STARTCHAR 5112
ENCODING 20754
SWIDTH 1040 0
DWIDTH 13 0
BBX 13 13 0 -2
BITMAP
2FF0
2080
3FF8
5088
57E8
C000
4FF0
4300
43F0
4FF0
4B50
4B50
4B50
ENDCHAR
STARTCHAR 5114
ENCODING 20756
SWIDTH 1040 0
DWIDTH 13 0
BBX 13 13 0 -2
BITMAP
2FF8
2080
27F0
4000
5FF8
C008
4FE8
4080
40F8
5FF8
4F50
4B50
4F30
ENDCHAR
STARTCHAR 5115
ENCODING 20757
SWIDTH 1040 0
DWIDTH 13 0
BBX 13 13 0 -2
BITMAP
2080
2FF0
2340
5ED8
56A0
D6A0
6E98
4FF0
4810
4810
4FF0
4810
5010
ENDCHAR
STARTCHAR 5116
ENCODING 20758
SWIDTH 1040 0
DWIDTH 13 0
BBX 13 13 0 -2
BITMAP
2FA0
2B20
2FB8
48A0
4FC0
CB00
4FB8
4000
4FF0
4FF0
4B50
4B50
5FF8
ENDCHAR
STARTCHAR 5118
ENCODING 20760
SWIDTH 1040 0
DWIDTH 13 0
BBX 13 13 0 -2
BITMAP
27F0
2090
2FF8
4090
47F0
C080
5FF8
4B50
4B58
5FF8
4B50
4B50
5FF8
ENDCHAR
STARTCHAR 511A
ENCODING 20762
SWIDTH 1040 0
DWIDTH 13 0
BBX 13 13 0 -2
BITMAP
2620
3FF8
2620
4FF0
4B50
CFF0
4000
4FF8
48A8
48A8
47A0
40C0
4F00
ENDCHAR
STARTCHAR 511F
ENCODING 20767
SWIDTH 1040 0
DWIDTH 13 0
BBX 13 13 0 -2
BITMAP
2890
26A0
3FF8
57E8
5628
CFF0
4810
4FF0
4810
4810
4FF0
4340
4E30
ENDCHAR
STARTCHAR 5121
ENCODING 20769
SWIDTH 1040 0
DWIDTH 13 0
BBX 13 13 0 -2
BITMAP
2FF0
2890
2FF0
4890
4FF0
C800
5EF8
56A8
56A8
5EF8
56A8
56A8
5EF8
ENDCHAR
STARTCHAR 512A
ENCODING 20778
SWIDTH 1040 0
DWIDTH 13 0
BBX 13 13 0 -2
BITMAP
2FF0
2620
27E0
4620
5FF8
D688
4650
4B10
4B28
47E8
4E40
4380
5E78
ENDCHAR
STARTCHAR 5132
ENCODING 20786
SWIDTH 1040 0
DWIDTH 13 0
BBX 13 13 0 -2
BITMAP
2E20
2078
3F20
4020
5EF8
C020
5E40
40F8
4148
5F48
5378
5348
5F78
ENDCHAR
STARTCHAR 5137
ENCODING 20791
SWIDTH 1040 0
DWIDTH 13 0
BBX 13 13 0 -2
BITMAP
3EF8
2000
3EF8
5688
56A8
DFF8
5320
5FF8
5328
5328
5FF8
5620
6FB8
ENDCHAR
STARTCHAR 513A
ENCODING 20794
SWIDTH 1040 0
DWIDTH 13 0
BBX 13 13 0 -2
BITMAP
2B48
3FD0
2B78
5FD0
56D0
DFF8
4650
5FD0
5E58
4678
5FD0
4B50
50F8
ENDCHAR
STARTCHAR 513B
ENCODING 20795
SWIDTH 1040 0
DWIDTH 13 0
BBX 13 13 0 -2
BITMAP
2690
2FF8
2808
47F0
4610
CFF8
4B28
4FF8
4F80
4080
5FF8
4B50
5348
ENDCHAR
STARTCHAR 513C
ENCODING 20796
SWIDTH 1040 0
DWIDTH 13 0
BBX 13 13 0 -2
BITMAP
2F70
2B50
3FF8
57A0
5320
DFB8
56A8
57A8
56F0
56D0
5F90
50A8
60C8
ENDCHAR
STARTCHAR 513F
ENCODING 20799
SWIDTH 1040 0
DWIDTH 13 0
BBX 13 13 0 -2
BITMAP
1080
1080
1080
1080
1080
1080
1080
1080
1080
1080
2088
2088
C078
ENDCHAR
STARTCHAR 5140
ENCODING 20800
SWIDTH 1040 0
DWIDTH 13 0
BBX 13 12 0 -2
BITMAP
FFF8
1080
1080
1080
1080
1080
1080
1080
1080
2088
2088
C078
ENDCHAR
STARTCHAR 5141
ENCODING 20801
SWIDTH 1040 0
DWIDTH 13 0
BBX 12 13 1 -2
BITMAP
0600
0C40
1040
6020
FFE0
1110
1110
1100
1100
1100
2110
2110
C0F0
ENDCHAR
STARTCHAR 5143
ENCODING 20803
SWIDTH 1040 0
DWIDTH 13 0
BBX 13 12 0 -2
BITMAP
7FE0
0000
0000
0000
FFF0
1080
1080
1080
1080
1088
2088
C078
ENDCHAR
STARTCHAR 5144
ENCODING 20804
SWIDTH 1040 0
DWIDTH 13 0
BBX 13 13 0 -2
BITMAP
3FE0
2020
2020
2020
2020
3FE0
2880
0880
0880
0880
1088
2088
C078
ENDCHAR
STARTCHAR 5145
ENCODING 20805
SWIDTH 1040 0
DWIDTH 13 0
BBX 13 13 0 -2
BITMAP
0600
0600
FFF8
0640
0820
7FF0
0890
0880
1080
1080
1088
2088
C078
ENDCHAR
STARTCHAR 5146
ENCODING 20806
SWIDTH 1040 0
DWIDTH 13 0
BBX 13 13 0 -2
BITMAP
0880
0890
4890
28A0
28C0
0880
38C0
48B0
C8B0
9880
1088
2088
C078
ENDCHAR
STARTCHAR 5147
ENCODING 20807
SWIDTH 1040 0
DWIDTH 13 0
BBX 13 13 0 -2
BITMAP
50A0
4B20
4620
4B20
50A0
4020
7FE0
0B00
0B00
0B00
1308
2308
C0F8
ENDCHAR
STARTCHAR 5148
ENCODING 20808
SWIDTH 1040 0
DWIDTH 13 0
BBX 13 13 0 -2
BITMAP
2300
2300
3FF0
2300
4300
0300
7FF8
0880
0880
0880
1088
2088
C078
ENDCHAR
STARTCHAR 5149
ENCODING 20809
SWIDTH 1040 0
DWIDTH 13 0
BBX 13 13 0 -2
BITMAP
0600
4620
2620
2640
0600
FFF8
0B00
0B00
1300
1300
1308
2308
C0F8
ENDCHAR
STARTCHAR 514B
ENCODING 20811
SWIDTH 1040 0
DWIDTH 13 0
BBX 12 13 0 -2
BITMAP
0600
0600
FFF0
0600
3FC0
2040
2040
3FC0
3B00
0B00
0B10
1310
E0F0
ENDCHAR
STARTCHAR 514C
ENCODING 20812
SWIDTH 1040 0
DWIDTH 13 0
BBX 13 13 0 -2
BITMAP
1B80
2040
C038
3FE0
2020
2020
3FE0
2880
2880
0880
0888
1088
E078
ENDCHAR
STARTCHAR 514D
ENCODING 20813
SWIDTH 1040 0
DWIDTH 13 0
BBX 13 13 0 -2
BITMAP
0600
0F80
3080
0300
7FE0
4620
4620
7FE0
4880
4880
0888
1088
E078
ENDCHAR
STARTCHAR 514E
ENCODING 20814
SWIDTH 1040 0
DWIDTH 13 0
BBX 13 13 0 -2
BITMAP
0070
7F80
0600
7FE0
4620
4620
7FE0
4B00
4B40
0B40
1328
2308
C0F8
ENDCHAR
STARTCHAR 5150
ENCODING 20816
SWIDTH 1040 0
DWIDTH 13 0
BBX 13 13 0 -2
BITMAP
47F0
4610
4610
47F0
4610
4610
47F0
0000
1300
1300
1308
2308
C0F8
ENDCHAR
STARTCHAR 5152
ENCODING 20818
SWIDTH 1040 0
DWIDTH 13 0
BBX 13 13 0 -2
BITMAP
0E00
38E0
2020
2020
3FE0
2020
2020
3FE0
3880
0880
0888
1088
E078
ENDCHAR
STARTCHAR 5154
ENCODING 20820
SWIDTH 1040 0
DWIDTH 13 0
BBX 13 13 0 -2
BITMAP
0600
0FC0
3080
0300
7FE0
4620
4620
7FE0
7340
1340
1328
2308
C0F8
ENDCHAR
STARTCHAR 515A
ENCODING 20826
SWIDTH 1040 0
DWIDTH 13 0
BBX 13 13 0 -2
BITMAP
2620
1340
FFF0
8010
BFD0
2040
2040
3FC0
3880
0880
1080
2088
C078
ENDCHAR
STARTCHAR 515C
ENCODING 20828
SWIDTH 1040 0
DWIDTH 13 0
BBX 13 13 0 -2
BITMAP
3600
4FF0
4890
4F90
4890
78F0
4F90
0000
0880
0880
0888
3088
C078
ENDCHAR
STARTCHAR 5162
ENCODING 20834
SWIDTH 1040 0
DWIDTH 13 0
BBX 13 13 0 -2
BITMAP
2040
FBF0
2040
2040
FBF0
8B10
8B10
FBF0
D3A0
50A0
50A8
58A8
9318
ENDCHAR
STARTCHAR 5165
ENCODING 20837
SWIDTH 1040 0
DWIDTH 13 0
BBX 13 12 0 -2
BITMAP
1F00
0300
0300
0300
0300
0680
0680
0EC0
0840
1040
2020
C018
ENDCHAR
STARTCHAR 5168
ENCODING 20840
SWIDTH 1040 0
DWIDTH 13 0
BBX 12 13 0 -2
BITMAP
0600
0B00
1080
2040
C030
3FC0
0600
0600
07C0
3FC0
0600
0600
FFF0
ENDCHAR
STARTCHAR 5169
ENCODING 20841
SWIDTH 1040 0
DWIDTH 13 0
BBX 12 13 0 -2
BITMAP
FFF0
0600
FFF0
8610
B6D0
9650
9650
9650
A690
AEB0
C710
8610
8630
ENDCHAR
STARTCHAR 516A
ENCODING 20842
SWIDTH 1040 0
DWIDTH 13 0
BBX 12 13 0 -2
BITMAP
3E00
0B00
1080
2F40
C030
78A0
48A0
7B40
4B40
4B40
78A0
48A0
98A0
ENDCHAR
STARTCHAR 516B
ENCODING 20843
SWIDTH 1040 0
DWIDTH 13 0
BBX 13 13 0 -2
BITMAP
1FC0
0040
0040
1040
1040
1040
2020
2020
2020
2020
4010
4010
8008
ENDCHAR
STARTCHAR 516C
ENCODING 20844
SWIDTH 1040 0
DWIDTH 13 0
BBX 12 13 0 -2
BITMAP
0B00
0B00
1080
1080
2640
C630
0600
0880
08C0
0840
1020
17E0
7E20
ENDCHAR
STARTCHAR 516D
ENCODING 20845
SWIDTH 1040 0
DWIDTH 13 0
BBX 12 12 0 -1
BITMAP
0600
0600
0600
FFF0
0000
1080
1080
2040
2040
2040
4020
8010
ENDCHAR
STARTCHAR 516E
ENCODING 20846
SWIDTH 1040 0
DWIDTH 13 0
BBX 13 13 0 -2
BITMAP
1780
1040
2020
4010
9FE8
0800
0800
1FE0
1020
1020
0040
0040
0780
ENDCHAR
STARTCHAR 5171
ENCODING 20849
SWIDTH 1040 0
DWIDTH 13 0
BBX 13 13 0 -2
BITMAP
1040
1040
1040
7FF0
1040
1040
1040
FFF8
F880
0880
1040
2020
C018
ENDCHAR
STARTCHAR 5175
ENCODING 20853
SWIDTH 1040 0
DWIDTH 13 0
BBX 13 13 0 -2
BITMAP
00E0
1F80
1000
1000
1FF0
1040
1040
1040
1078
FFF8
1080
2040
C030
ENDCHAR
STARTCHAR 5176
ENCODING 20854
SWIDTH 1040 0
DWIDTH 13 0
BBX 12 13 0 -2
BITMAP
1080
1080
7FE0
1080
1F80
1080
1F80
1080
10F0
FFF0
1080
2040
C030
ENDCHAR
STARTCHAR 5177
ENCODING 20855
SWIDTH 1040 0
DWIDTH 13 0
BBX 13 13 0 -2
BITMAP
3FE0
2020
3FE0
2020
3FE0
2020
3FE0
0000
FFF8
FFF8
0000
18C0
E038
ENDCHAR
STARTCHAR 5178
ENCODING 20856
SWIDTH 1040 0
DWIDTH 13 0
BBX 13 13 0 -2
BITMAP
0880
0880
7FF0
4890
4890
7FF0
4890
4890
4898
FFF8
1040
2020
C018
ENDCHAR
STARTCHAR 517C
ENCODING 20860
SWIDTH 1040 0
DWIDTH 13 0
BBX 13 13 0 -2
BITMAP
2020
1040
FFF8
0880
7FF0
0890
FFF8
0890
0890
7FF0
18C0
28A0
C898
ENDCHAR
STARTCHAR 5180
ENCODING 20864
SWIDTH 1040 0
DWIDTH 13 0
BBX 13 13 0 -2
BITMAP
1330
F3C0
1310
FFF0
2640
3FC0
2640
7FE0
7080
1080
FFF8
1080
E070
ENDCHAR
STARTCHAR 5182
ENCODING 20866
SWIDTH 1040 0
DWIDTH 13 0
BBX 12 13 0 -2
BITMAP
FFF0
8010
8010
8010
8010
8010
8010
8010
8010
8010
8010
8010
8070
ENDCHAR
STARTCHAR 5185
ENCODING 20869
SWIDTH 1040 0
DWIDTH 13 0
BBX 12 13 1 -2
BITMAP
0600
0600
FFF0
8610
8610
8D10
9090
E050
8050
8010
8010
8010
8070
ENDCHAR
STARTCHAR 5186
ENCODING 20870
SWIDTH 1040 0
DWIDTH 13 0
BBX 12 13 0 -2
BITMAP
FFF0
8610
8610
8610
8610
FFF0
8010
8010
8010
8010
8010
8010
8070
ENDCHAR
STARTCHAR 5189
ENCODING 20873
SWIDTH 1040 0
DWIDTH 13 0
BBX 12 13 0 -2
BITMAP
0600
0600
7FE0
4620
4620
7FE0
4620
4620
4630
FFF0
4020
4020
40E0
ENDCHAR
STARTCHAR 518A
ENCODING 20874
SWIDTH 1040 0
DWIDTH 13 0
BBX 13 13 0 -2
BITMAP
7FF0
4890
4890
4890
4890
FFF8
4890
4890
4890
4890
4890
4890
4030
ENDCHAR
STARTCHAR 518C
ENCODING 20876
SWIDTH 1040 0
DWIDTH 13 0
BBX 13 13 0 -2
BITMAP
78F0
4890
4890
4890
4890
FFF8
4890
4890
4890
4890
4890
4890
9B30
ENDCHAR
STARTCHAR 518D
ENCODING 20877
SWIDTH 1040 0
DWIDTH 13 0
BBX 13 13 0 -2
BITMAP
FFF0
0600
7FE0
4620
4620
7FE0
4620
4620
4638
FFF8
4020
4020
40E0
ENDCHAR
STARTCHAR 518F
ENCODING 20879
SWIDTH 1040 0
DWIDTH 13 0
BBX 13 13 0 -2
BITMAP
FFF8
8888
8888
9088
E078
8008
9FC8
9048
9048
9048
9FC8
8008
8038
ENDCHAR
STARTCHAR 5190
ENCODING 20880
SWIDTH 1040 0
DWIDTH 13 0
BBX 11 13 1 -2
BITMAP
FFE0
8020
BFA0
8020
BFA0
4040
7FC0
4040
4040
7FC0
4040
4040
41C0
ENDCHAR
STARTCHAR 5191
ENCODING 20881
SWIDTH 1040 0
DWIDTH 13 0
BBX 10 13 1 -2
BITMAP
0C00
FFC0
8C40
FFC0
8C40
FFC0
4080
7F80
4080
4080
7F80
4080
4180
ENDCHAR
STARTCHAR 5192
ENCODING 20882
SWIDTH 1040 0
DWIDTH 13 0
BBX 11 13 1 -2
BITMAP
FFE0
8020
FFE0
8020
8020
FFE0
4040
7FC0
4040
4040
7FC0
4040
7FC0
ENDCHAR
STARTCHAR 5193
ENCODING 20883
SWIDTH 1040 0
DWIDTH 13 0
BBX 12 13 0 -2
BITMAP
1080
FFF0
1080
7FE0
1080
FFF0
4620
7FE0
4620
4620
FFF0
4020
40E0
ENDCHAR
STARTCHAR 5195
ENCODING 20885
SWIDTH 1040 0
DWIDTH 13 0
BBX 13 13 0 -2
BITMAP
7FF0
4010
5FD0
4010
5FD0
1080
7FE0
4620
4620
7FE0
50A8
1088
E078
ENDCHAR
STARTCHAR 5196
ENCODING 20886
SWIDTH 1040 0
DWIDTH 13 0
BBX 12 4 0 2
BITMAP
FFF0
8010
8010
8010
ENDCHAR
STARTCHAR 5197
ENCODING 20887
SWIDTH 1040 0
DWIDTH 13 0
BBX 13 12 0 -2
BITMAP
FFF0
8010
8010
1F80
1080
1080
1080
1080
1080
1088
2088
C078
ENDCHAR
STARTCHAR 5199
ENCODING 20889
SWIDTH 1040 0
DWIDTH 13 0
BBX 13 13 0 -2
BITMAP
FFF0
9010
9010
1FC0
1000
2000
3FC0
0040
0078
FFF8
0040
0040
0780
ENDCHAR
STARTCHAR 51A0
ENCODING 20896
SWIDTH 1040 0
DWIDTH 13 0
BBX 13 13 0 -2
BITMAP
FFF8
8008
8028
7E20
03F0
FE20
28A0
28A0
28A0
2820
48E8
4808
87F8
ENDCHAR
STARTCHAR 51A2
ENCODING 20898
SWIDTH 1040 0
DWIDTH 13 0
BBX 13 13 0 -2
BITMAP
FFF8
8008
BFE8
0800
3F10
D0A0
1FC0
78C0
78A0
0FA0
F898
0300
0E00
ENDCHAR
STARTCHAR 51A4
ENCODING 20900
SWIDTH 1040 0
DWIDTH 13 0
BBX 13 13 0 -2
BITMAP
FFF8
8008
8F88
3080
0300
7FE0
4620
4620
4620
7FE0
0888
1088
E078
ENDCHAR
STARTCHAR 51A5
ENCODING 20901
SWIDTH 1040 0
DWIDTH 13 0
BBX 13 13 0 -2
BITMAP
FFF0
8010
BFD0
2040
3FC0
2040
3FC0
0600
07F8
FFF8
0000
30C0
C030
ENDCHAR
STARTCHAR 51A6
ENCODING 20902
SWIDTH 1040 0
DWIDTH 13 0
BBX 13 13 0 -2
BITMAP
FFF8
8008
8048
7870
0040
FBF0
5310
50A0
50A0
50E0
5718
9008
8FF8
ENDCHAR
STARTCHAR 51A8
ENCODING 20904
SWIDTH 1040 0
DWIDTH 13 0
BBX 12 13 0 -2
BITMAP
FFF0
8010
BFD0
0000
3FC0
2040
3FC0
7FE0
4620
4620
7FE0
4620
7FE0
ENDCHAR
STARTCHAR 51A9
ENCODING 20905
SWIDTH 1040 0
DWIDTH 13 0
BBX 13 13 0 -2
BITMAP
FFF8
8608
B8E8
2020
3EE0
2020
3FE0
1000
1FF0
3FF0
C010
1690
26B0
ENDCHAR
STARTCHAR 51AA
ENCODING 20906
SWIDTH 1040 0
DWIDTH 13 0
BBX 13 13 0 -2
BITMAP
FFF8
8008
0880
FFF8
2020
3FE0
2020
FFF8
E620
2620
DFD8
1640
16C0
ENDCHAR
STARTCHAR 51AB
ENCODING 20907
SWIDTH 1040 0
DWIDTH 13 0
BBX 6 12 3 -1
BITMAP
40
30
30
00
04
18
30
30
F0
C0
40
40
ENDCHAR
STARTCHAR 51AC
ENCODING 20908
SWIDTH 1040 0
DWIDTH 13 0
BBX 13 13 0 -2
BITMAP
0800
0FE0
1040
3080
CB00
0700
0880
3660
F7F8
C398
0800
0700
00C0
ENDCHAR
STARTCHAR 51B0
ENCODING 20912
SWIDTH 1040 0
DWIDTH 13 0
BBX 13 13 0 -2
BITMAP
0080
8080
4080
4088
1E90
06E0
06C0
48A0
48B0
4890
9088
8080
8380
ENDCHAR
STARTCHAR 51B1
ENCODING 20913
SWIDTH 1040 0
DWIDTH 13 0
BBX 13 12 0 -2
BITMAP
9FF0
4600
4600
07E0
0620
0820
4840
4840
4FC0
8840
8040
9FF8
ENDCHAR
STARTCHAR 51B2
ENCODING 20914
SWIDTH 1040 0
DWIDTH 13 0
BBX 13 13 0 -2
BITMAP
0080
8080
4080
4FF8
0888
0888
0888
4FF8
4880
4880
8080
8080
8080
ENDCHAR
STARTCHAR 51B3
ENCODING 20915
SWIDTH 1040 0
DWIDTH 13 0
BBX 13 13 0 -2
BITMAP
0080
8080
4FF0
4090
0090
0090
1FF8
4080
4080
4080
8340
8620
9818
ENDCHAR
STARTCHAR 51B4
ENCODING 20916
SWIDTH 1040 0
DWIDTH 13 0
BBX 13 13 0 -2
BITMAP
0FF8
8320
4320
4320
0320
0FF8
00A0
20A0
2120
2320
4320
4620
9860
ENDCHAR
STARTCHAR 51B5
ENCODING 20917
SWIDTH 1040 0
DWIDTH 13 0
BBX 13 13 0 -2
BITMAP
0FF0
8810
4810
4810
0810
0FF0
0340
4340
4340
4340
8648
8648
9838
ENDCHAR
STARTCHAR 51B6
ENCODING 20918
SWIDTH 1040 0
DWIDTH 13 0
BBX 13 13 0 -2
BITMAP
0080
8080
6300
0310
0610
0FF8
0008
2000
27F0
27F0
4610
4610
87F0
ENDCHAR
STARTCHAR 51B7
ENCODING 20919
SWIDTH 1040 0
DWIDTH 13 0
BBX 13 13 0 -2
BITMAP
0080
8340
4620
5818
07E0
0000
0FF0
4310
4310
4310
4310
8330
8300
ENDCHAR
STARTCHAR 51BD
ENCODING 20925
SWIDTH 1040 0
DWIDTH 13 0
BBX 13 13 0 -2
BITMAP
0008
8FA8
4628
4628
0FA8
08A8
08A8
57A8
5728
4328
8308
8608
8838
ENDCHAR
STARTCHAR 51C4
ENCODING 20932
SWIDTH 1040 0
DWIDTH 13 0
BBX 13 13 0 -2
BITMAP
0080
8FF8
4080
47F0
0090
0FF8
0090
2FF8
2E10
2610
4360
43C0
8E38
ENDCHAR
STARTCHAR 51C5
ENCODING 20933
SWIDTH 1040 0
DWIDTH 13 0
BBX 13 13 0 -2
BITMAP
1FF8
9088
5088
57F8
1088
1088
17E8
5628
5628
5628
97E8
9008
9FF8
ENDCHAR
STARTCHAR 51C6
ENCODING 20934
SWIDTH 1040 0
DWIDTH 13 0
BBX 13 13 0 -2
BITMAP
0620
8640
4FF8
0840
1840
2FF0
0840
0840
4870
4FF0
4840
8840
8FF8
ENDCHAR
STARTCHAR 51C9
ENCODING 20937
SWIDTH 1040 0
DWIDTH 13 0
BBX 13 13 0 -2
BITMAP
0080
8080
5FF8
4000
0FF0
0810
0810
4FF0
4F80
4080
88A0
8890
9390
ENDCHAR
STARTCHAR 51CB
ENCODING 20939
SWIDTH 1040 0
DWIDTH 13 0
BBX 12 13 0 -2
BITMAP
0FF0
C890
2890
0BD0
0890
2FF0
2810
4BD0
4B50
4B50
8B50
13D0
2030
ENDCHAR
STARTCHAR 51CC
ENCODING 20940
SWIDTH 1040 0
DWIDTH 13 0
BBX 13 13 0 -2
BITMAP
0080
8FF0
4080
5FF8
0640
0838
1600
47E0
4620
5E20
43C0
8760
9818
ENDCHAR
STARTCHAR 51CD
ENCODING 20941
SWIDTH 1040 0
DWIDTH 13 0
BBX 13 13 0 -2
BITMAP
0080
9FF8
4080
4FF0
0890
0FF0
0890
2FF0
2F80
2080
43C0
46A0
9898
ENDCHAR
STARTCHAR 51D6
ENCODING 20950
SWIDTH 1040 0
DWIDTH 13 0
BBX 12 13 0 -2
BITMAP
0640
8680
4FF0
1880
0FE0
4880
8FF0
0600
0600
0600
FFF0
0600
0600
ENDCHAR
STARTCHAR 51DB
ENCODING 20955
SWIDTH 1040 0
DWIDTH 13 0
BBX 13 13 0 -2
BITMAP
0080
9FF8
4BD0
4B50
0B50
0BD0
0FF0
2000
3FF8
3FF8
4890
4888
9388
ENDCHAR
STARTCHAR 51DC
ENCODING 20956
SWIDTH 1040 0
DWIDTH 13 0
BBX 13 13 0 -2
BITMAP
0080
9FF8
4810
4BD0
0B50
0FF0
0000
27E0
2780
2080
5FF8
46A0
9898
ENDCHAR
STARTCHAR 51DD
ENCODING 20957
SWIDTH 1040 0
DWIDTH 13 0
BBX 13 13 0 -2
BITMAP
10F8
9F08
5050
4F20
00F8
0828
0F20
5638
56A0
46A0
5FA0
8BE0
1098
ENDCHAR
STARTCHAR 51E0
ENCODING 20960
SWIDTH 1040 0
DWIDTH 13 0
BBX 13 13 0 -2
BITMAP
1FC0
1040
1040
1040
1040
1040
1040
1040
1040
1040
2048
2048
C038
ENDCHAR
STARTCHAR 51E1
ENCODING 20961
SWIDTH 1040 0
DWIDTH 13 0
BBX 13 12 0 -2
BITMAP
1FC0
1040
1040
1040
1640
1340
1340
1340
1040
2048
2048
C038
ENDCHAR
STARTCHAR 51E6
ENCODING 20966
SWIDTH 1040 0
DWIDTH 13 0
BBX 13 13 0 -2
BITMAP
03E0
4320
7B20
4B20
4B20
4B20
AB28
1628
1628
1618
2800
4700
80F8
ENDCHAR
STARTCHAR 51E7
ENCODING 20967
SWIDTH 1040 0
DWIDTH 13 0
BBX 13 13 0 -2
BITMAP
7FE0
4620
4620
4620
5FA0
56A0
56A0
56A0
56A0
56A0
57A8
4618
8608
ENDCHAR
STARTCHAR 51E9
ENCODING 20969
SWIDTH 1040 0
DWIDTH 13 0
BBX 13 13 0 -2
BITMAP
7FE0
4020
4620
4620
5FA0
4620
4F20
4F20
5EA0
56A0
6628
8618
8618
ENDCHAR
STARTCHAR 51EA
ENCODING 20970
SWIDTH 1040 0
DWIDTH 13 0
BBX 13 13 0 -2
BITMAP
7FE0
4020
4320
4320
4B20
4BE0
4B20
4B20
4B28
4B28
5FD8
4018
8008
ENDCHAR
STARTCHAR 51ED
ENCODING 20973
SWIDTH 1040 0
DWIDTH 13 0
BBX 13 13 0 -2
BITMAP
2000
2FF0
4080
DFF8
4080
4FF0
0000
1FC0
1040
1040
1048
2048
C038
ENDCHAR
STARTCHAR 51F0
ENCODING 20976
SWIDTH 1040 0
DWIDTH 13 0
BBX 13 13 0 -2
BITMAP
7FE0
4620
4820
5FA0
50A0
5FA0
50A0
5FA0
5E28
4628
5FA8
8618
BFD8
ENDCHAR
STARTCHAR 51F1
ENCODING 20977
SWIDTH 1040 0
DWIDTH 13 0
BBX 13 13 0 -2
BITMAP
56F0
5690
7E90
0090
FE90
0090
7E90
4690
4690
7E90
2890
3E90
E318
ENDCHAR
STARTCHAR 51F5
ENCODING 20981
SWIDTH 1040 0
DWIDTH 13 0
BBX 13 13 0 -2
BITMAP
8008
8008
8008
8008
8008
8008
8008
8008
8008
8008
8008
FFF8
8000
ENDCHAR
STARTCHAR 51F6
ENCODING 20982
SWIDTH 1040 0
DWIDTH 13 0
BBX 13 13 0 -2
BITMAP
0040
8048
B048
8888
8688
8308
8688
8848
B848
B048
8008
FFF8
8000
ENDCHAR
STARTCHAR 51F8
ENCODING 20984
SWIDTH 1040 0
DWIDTH 13 0
BBX 12 13 0 -2
BITMAP
1F80
1080
1080
1080
1080
F0F0
8010
8010
8010
8010
8010
FFF0
8000
ENDCHAR
STARTCHAR 51F9
ENCODING 20985
SWIDTH 1040 0
DWIDTH 13 0
BBX 13 12 0 -2
BITMAP
F8F8
8888
8888
8888
8888
8F88
8008
8008
8008
8008
FFF8
8008
ENDCHAR
STARTCHAR 51FA
ENCODING 20986
SWIDTH 1040 0
DWIDTH 13 0
BBX 12 13 0 -2
BITMAP
0600
4620
4620
4620
7FE0
4600
0600
8610
8610
8610
8610
FFF0
8000
ENDCHAR
STARTCHAR 51FD
ENCODING 20989
SWIDTH 1040 0
DWIDTH 13 0
BBX 12 12 0 -2
BITMAP
FFF0
0600
8610
8F30
E350
9F90
9350
A350
E330
8E10
8010
FFF0
ENDCHAR
STARTCHAR 51FE
ENCODING 20990
SWIDTH 1040 0
DWIDTH 13 0
BBX 13 13 0 -2
BITMAP
1FC0
0040
0080
8708
8608
BFE8
AEA8
AE48
AEA8
BEA8
8718
8608
FFF8
ENDCHAR
STARTCHAR 5200
ENCODING 20992
SWIDTH 1040 0
DWIDTH 13 0
BBX 12 12 1 -2
BITMAP
FFF0
0C10
0C10
0C10
0C10
0C10
1010
1010
1010
2010
2010
C060
ENDCHAR
STARTCHAR 5203
ENCODING 20995
SWIDTH 1040 0
DWIDTH 13 0
BBX 13 12 0 -2
BITMAP
FFF8
0608
0608
0608
3608
0E08
0708
0888
0888
0808
1008
6070
ENDCHAR
STARTCHAR 5204
ENCODING 20996
SWIDTH 1040 0
DWIDTH 13 0
BBX 13 12 0 -2
BITMAP
7FF0
0610
0610
2610
2610
1610
0810
0F30
0F20
10F8
2020
C0E0
ENDCHAR
STARTCHAR 5206
ENCODING 20998
SWIDTH 1040 0
DWIDTH 13 0
BBX 13 13 0 -2
BITMAP
0880
0880
1040
1040
2020
DFD8
0840
0840
0840
0840
1040
1040
63C0
ENDCHAR
STARTCHAR 5207
ENCODING 20999
SWIDTH 1040 0
DWIDTH 13 0
BBX 13 13 0 -2
BITMAP
2000
27F8
2088
2088
3E88
E088
2088
2088
2688
2688
1888
0310
0E70
ENDCHAR
STARTCHAR 5208
ENCODING 21000
SWIDTH 1040 0
DWIDTH 13 0
BBX 12 13 0 -2
BITMAP
0010
0610
0690
0690
C890
2890
1090
1890
3E90
2690
2610
4010
8070
ENDCHAR
STARTCHAR 520A
ENCODING 21002
SWIDTH 1040 0
DWIDTH 13 0
BBX 12 13 0 -2
BITMAP
7E10
1090
1090
1090
1090
FE90
1090
1090
1090
1090
1010
1010
1070
ENDCHAR
STARTCHAR 520B
ENCODING 21003
SWIDTH 1040 0
DWIDTH 13 0
BBX 12 13 0 -2
BITMAP
1E10
F090
1090
1090
1090
FF90
1090
1090
1090
1090
1010
2010
C070
ENDCHAR
STARTCHAR 520E
ENCODING 21006
SWIDTH 1040 0
DWIDTH 13 0
BBX 13 13 0 -2
BITMAP
2008
2028
7FA8
56A8
96A8
26A8
28A8
48A8
D8A8
90A8
2088
4308
0F38
ENDCHAR
STARTCHAR 5211
ENCODING 21009
SWIDTH 1040 0
DWIDTH 13 0
BBX 13 13 0 -2
BITMAP
0008
FE48
4848
4848
4848
FF48
4848
4848
4848
4848
4808
4808
8838
ENDCHAR
STARTCHAR 5214
ENCODING 21012
SWIDTH 1040 0
DWIDTH 13 0
BBX 13 13 0 -2
BITMAP
2008
2048
7E48
2648
2648
2648
FF48
2048
3048
3048
2808
4808
8038
ENDCHAR
STARTCHAR 5217
ENCODING 21015
SWIDTH 1040 0
DWIDTH 13 0
BBX 12 13 0 -2
BITMAP
0010
FE90
2090
2090
3E90
4690
6690
9890
9890
0890
1010
2010
C070
ENDCHAR
STARTCHAR 521D
ENCODING 21021
SWIDTH 1040 0
DWIDTH 13 0
BBX 13 13 0 -2
BITMAP
2000
27F8
F888
1088
2088
2888
7088
A888
A888
2088
2308
2308
2630
ENDCHAR
STARTCHAR 5224
ENCODING 21028
SWIDTH 1040 0
DWIDTH 13 0
BBX 13 13 0 -2
BITMAP
9308
5348
5648
1048
7E48
1048
1048
FF48
F048
1048
1008
1008
1038
ENDCHAR
STARTCHAR 5225
ENCODING 21029
SWIDTH 1040 0
DWIDTH 13 0
BBX 13 13 0 -2
BITMAP
7E08
4648
4648
4648
7E48
2048
2048
3E48
2648
2648
4608
4608
8E18
ENDCHAR
STARTCHAR 5227
ENCODING 21031
SWIDTH 1040 0
DWIDTH 13 0
BBX 13 13 0 -2
BITMAP
2000
23F8
F848
2048
2048
FE48
2048
2048
6848
4848
4888
F890
0B30
ENDCHAR
STARTCHAR 5229
ENCODING 21033
SWIDTH 1040 0
DWIDTH 13 0
BBX 12 13 0 -2
BITMAP
1810
7090
1090
1090
FE90
1090
3090
3890
5690
5690
5010
9010
1070
ENDCHAR
STARTCHAR 522A
ENCODING 21034
SWIDTH 1040 0
DWIDTH 13 0
BBX 13 13 0 -2
BITMAP
7F88
56A8
56A8
56A8
56A8
FFE8
56A8
56A8
56A8
56A8
5688
5688
4398
ENDCHAR
STARTCHAR 522E
ENCODING 21038
SWIDTH 1040 0
DWIDTH 13 0
BBX 13 13 0 -2
BITMAP
0708
F848
1048
1048
FF48
1048
1048
7E48
4648
4648
4608
4608
7E38
ENDCHAR
STARTCHAR 5230
ENCODING 21040
SWIDTH 1040 0
DWIDTH 13 0
BBX 13 13 0 -2
BITMAP
FF08
2048
2648
4648
FF48
1348
1048
7E48
7048
1048
1008
1F08
E018
ENDCHAR
STARTCHAR 5233
ENCODING 21043
SWIDTH 1040 0
DWIDTH 13 0
BBX 13 13 0 -2
BITMAP
1008
7F48
2848
4648
BB48
0048
3F48
1048
1E48
3E48
4608
0608
1838
ENDCHAR
STARTCHAR 5236
ENCODING 21046
SWIDTH 1040 0
DWIDTH 13 0
BBX 13 13 0 -2
BITMAP
5008
5048
7E48
9048
7E48
1048
7E48
5648
5648
5648
5608
5E08
1038
ENDCHAR
STARTCHAR 5237
ENCODING 21047
SWIDTH 1040 0
DWIDTH 13 0
BBX 13 13 0 -2
BITMAP
7F08
4348
4348
7F48
4848
4848
7F48
6B48
6B48
6B48
AB08
2F08
0838
ENDCHAR
STARTCHAR 5238
ENCODING 21048
SWIDTH 1040 0
DWIDTH 13 0
BBX 12 13 0 -2
BITMAP
2640
2640
1680
7FE0
0B00
FFF0
1080
2040
FFF0
DFB0
0880
0880
3380
ENDCHAR
STARTCHAR 5239
ENCODING 21049
SWIDTH 1040 0
DWIDTH 13 0
BBX 13 13 0 -2
BITMAP
0608
6848
1048
2848
C648
1048
FF48
1048
1848
3848
5608
9308
1038
ENDCHAR
STARTCHAR 523A
ENCODING 21050
SWIDTH 1040 0
DWIDTH 13 0
BBX 13 13 0 -2
BITMAP
1008
FE08
1048
7E48
5648
5648
5648
5648
5648
1048
3808
5608
9018
ENDCHAR
STARTCHAR 523B
ENCODING 21051
SWIDTH 1040 0
DWIDTH 13 0
BBX 13 13 0 -2
BITMAP
1008
1008
FF48
1048
2048
6848
1648
2648
EE48
C808
1008
2808
C738
ENDCHAR
STARTCHAR 5243
ENCODING 21059
SWIDTH 1040 0
DWIDTH 13 0
BBX 13 13 0 -2
BITMAP
4608
2848
7F48
1348
7F48
9048
FF48
1348
1348
3348
5708
9008
1038
ENDCHAR
STARTCHAR 5244
ENCODING 21060
SWIDTH 1040 0
DWIDTH 13 0
BBX 13 13 0 -2
BITMAP
0008
FF48
5648
5648
A848
5648
5648
0048
FF48
FF48
1008
1F08
F038
ENDCHAR
STARTCHAR 5247
ENCODING 21063
SWIDTH 1040 0
DWIDTH 13 0
BBX 13 13 0 -2
BITMAP
7E08
4648
4648
7E48
4648
4648
7E48
4648
4648
4648
7E08
2808
C738
ENDCHAR
STARTCHAR 524A
ENCODING 21066
SWIDTH 1040 0
DWIDTH 13 0
BBX 12 13 0 -2
BITMAP
A810
A890
7090
2090
F890
8890
F890
8890
8890
F890
8810
8810
9870
ENDCHAR
STARTCHAR 524B
ENCODING 21067
SWIDTH 1040 0
DWIDTH 13 0
BBX 13 13 0 -2
BITMAP
1010
FE90
1090
7E90
4690
4690
7E90
2890
2890
2810
4830
4808
87F8
ENDCHAR
STARTCHAR 524C
ENCODING 21068
SWIDTH 1040 0
DWIDTH 13 0
BBX 13 13 0 -2
BITMAP
1008
1048
FF48
1048
FF48
9348
9348
FF48
F848
3848
3608
5308
9038
ENDCHAR
STARTCHAR 524D
ENCODING 21069
SWIDTH 1040 0
DWIDTH 13 0
BBX 13 13 0 -2
BITMAP
2040
1080
FFF8
0000
7810
4890
7890
4890
4890
7890
4890
4810
9870
ENDCHAR
STARTCHAR 524F
ENCODING 21071
SWIDTH 1040 0
DWIDTH 13 0
BBX 13 13 0 -2
BITMAP
8810
4BF8
5050
FE50
5350
5350
FED0
5050
50D0
50B0
5318
9320
9660
ENDCHAR
STARTCHAR 5254
ENCODING 21076
SWIDTH 1040 0
DWIDTH 13 0
BBX 13 13 0 -2
BITMAP
7E08
4648
7E48
4648
7E48
2048
7F48
AB48
AB48
2B48
4B08
9308
2E38
ENDCHAR
STARTCHAR 5256
ENCODING 21078
SWIDTH 1040 0
DWIDTH 13 0
BBX 13 13 0 -2
BITMAP
1008
1048
FF48
4648
2848
FF48
0048
0048
7E48
7E48
4608
4608
7E38
ENDCHAR
STARTCHAR 525B
ENCODING 21083
SWIDTH 1040 0
DWIDTH 13 0
BBX 13 13 0 -2
BITMAP
FF08
8348
C748
AB48
FF48
9348
9348
D748
D748
D748
FF08
8308
8738
ENDCHAR
STARTCHAR 525E
ENCODING 21086
SWIDTH 1040 0
DWIDTH 13 0
BBX 13 13 0 -2
BITMAP
1008
FF48
2848
C748
0048
FFC8
0348
7B48
4B48
4B48
7B08
4308
0F38
ENDCHAR
STARTCHAR 5263
ENCODING 21091
SWIDTH 1040 0
DWIDTH 13 0
BBX 13 13 0 -2
BITMAP
1008
2848
4648
8348
7E48
1048
7E48
5648
5648
7E48
1008
2808
C618
ENDCHAR
STARTCHAR 5264
ENCODING 21092
SWIDTH 1040 0
DWIDTH 13 0
BBX 13 13 0 -2
BITMAP
1008
FF48
4648
3848
2848
C748
7E48
4648
4648
7E48
4608
4608
8E38
ENDCHAR
STARTCHAR 5265
ENCODING 21093
SWIDTH 1040 0
DWIDTH 13 0
BBX 13 13 0 -2
BITMAP
7E08
0648
7848
0848
FF48
1048
9348
5648
5E48
3848
5808
9708
3038
ENDCHAR
STARTCHAR 5269
ENCODING 21097
SWIDTH 1040 0
DWIDTH 13 0
BBX 13 13 0 -2
BITMAP
1E08
7048
1048
FF48
5648
D748
5648
D748
D748
1048
3808
5608
9038
ENDCHAR
STARTCHAR 526A
ENCODING 21098
SWIDTH 1040 0
DWIDTH 13 0
BBX 13 13 0 -2
BITMAP
2020
1040
FFF8
4690
7E90
4690
7E90
4630
4630
FFF0
0610
1810
E060
ENDCHAR
STARTCHAR 526F
ENCODING 21103
SWIDTH 1040 0
DWIDTH 13 0
BBX 13 13 0 -2
BITMAP
FE08
0048
7E48
4648
7E48
0048
FE48
9648
9648
FE48
9608
9608
FE38
ENDCHAR
STARTCHAR 5270
ENCODING 21104
SWIDTH 1040 0
DWIDTH 13 0
BBX 13 13 0 -2
BITMAP
0E08
7808
1048
FF48
5648
FF48
5648
FF48
F048
1048
3808
5608
9318
ENDCHAR
STARTCHAR 5271
ENCODING 21105
SWIDTH 1040 0
DWIDTH 13 0
BBX 13 13 0 -2
BITMAP
27F8
5048
8848
7348
2348
FBC8
AE48
F868
E068
2058
3088
4888
8B38
ENDCHAR
STARTCHAR 5272
ENCODING 21106
SWIDTH 1040 0
DWIDTH 13 0
BBX 13 13 0 -2
BITMAP
1008
FF48
9348
7E48
1048
7E48
1048
FF48
FF48
0048
7E08
4608
7E38
ENDCHAR
STARTCHAR 5273
ENCODING 21107
SWIDTH 1040 0
DWIDTH 13 0
BBX 13 13 0 -2
BITMAP
4608
FF48
4648
1048
2848
C748
3848
0048
7E48
7E48
4608
4608
7E38
ENDCHAR
STARTCHAR 5274
ENCODING 21108
SWIDTH 1040 0
DWIDTH 13 0
BBX 13 13 0 -2
BITMAP
1008
9648
FE48
0048
FE48
0048
7E48
4648
4648
7E48
4608
2808
FE38
ENDCHAR
STARTCHAR 5275
ENCODING 21109
SWIDTH 1040 0
DWIDTH 13 0
BBX 13 13 0 -2
BITMAP
1008
2808
C748
7E48
4648
7E48
4648
7E48
4048
4048
BE08
A608
3E38
ENDCHAR
STARTCHAR 527D
ENCODING 21117
SWIDTH 1040 0
DWIDTH 13 0
BBX 13 13 0 -2
BITMAP
FF88
2848
FF48
AB48
FF48
0048
7F48
0048
FF48
FF48
5608
9308
B338
ENDCHAR
STARTCHAR 527F
ENCODING 21119
SWIDTH 1040 0
DWIDTH 13 0
BBX 13 13 0 -2
BITMAP
5608
A848
A848
5648
FF48
9348
FF48
9348
9348
FF48
3808
5608
9338
ENDCHAR
STARTCHAR 5283
ENCODING 21123
SWIDTH 1040 0
DWIDTH 13 0
BBX 12 13 0 -2
BITMAP
1010
7E50
1650
FF50
1650
FF50
5650
7E50
5650
5650
7E10
0010
FF30
ENDCHAR
STARTCHAR 5287
ENCODING 21127
SWIDTH 1040 0
DWIDTH 13 0
BBX 13 13 0 -2
BITMAP
2008
3E48
2048
7F48
5048
5F48
4048
7F48
5048
5008
6B08
9E08
2B18
ENDCHAR
STARTCHAR 5288
ENCODING 21128
SWIDTH 1040 0
DWIDTH 13 0
BBX 13 13 0 -2
BITMAP
7840
4FF8
7B10
40A0
7BF8
C840
7BF0
0840
0870
FFF0
0810
1010
E0E0
ENDCHAR
STARTCHAR 5289
ENCODING 21129
SWIDTH 1040 0
DWIDTH 13 0
BBX 13 13 0 -2
BITMAP
6F08
8B48
AB48
F748
1048
2848
7848
9648
9648
FE48
9008
5608
FE38
ENDCHAR
STARTCHAR 528D
ENCODING 21133
SWIDTH 1040 0
DWIDTH 13 0
BBX 13 13 0 -2
BITMAP
1008
2848
4648
BB48
0048
EF48
AB48
EF48
CE48
4648
4608
AB08
9338
ENDCHAR
STARTCHAR 5291
ENCODING 21137
SWIDTH 1040 0
DWIDTH 13 0
BBX 13 13 0 -2
BITMAP
1008
FF08
2828
F7A8
5628
B7A8
46A8
7E28
4628
4628
7E08
4608
8618
ENDCHAR
STARTCHAR 5292
ENCODING 21138
SWIDTH 1040 0
DWIDTH 13 0
BBX 13 13 0 -2
BITMAP
10F8
2828
C728
3828
0028
EF28
AB68
EF68
CEE8
46A8
4628
AB28
9358
ENDCHAR
STARTCHAR 5294
ENCODING 21140
SWIDTH 1040 0
DWIDTH 13 0
BBX 13 13 0 -2
BITMAP
10F8
2848
C748
3848
00C8
EF48
AB78
EF48
CE48
4648
4648
AB48
93B8
ENDCHAR
STARTCHAR 529B
ENCODING 21147
SWIDTH 1040 0
DWIDTH 13 0
BBX 11 13 1 -2
BITMAP
0C00
0C00
0C00
FFE0
0C20
0C20
0C20
0C20
1020
1020
1020
2040
C1C0
ENDCHAR
STARTCHAR 529F
ENCODING 21151
SWIDTH 1040 0
DWIDTH 13 0
BBX 13 13 0 -2
BITMAP
0080
0080
F080
2FF8
2088
2088
2088
2088
3088
3088
E308
0308
0630
ENDCHAR
STARTCHAR 52A0
ENCODING 21152
SWIDTH 1040 0
DWIDTH 13 0
BBX 13 13 0 -2
BITMAP
2000
2000
FEF8
2688
2688
2688
2688
2688
2688
2688
4688
46F8
9E80
ENDCHAR
STARTCHAR 52A3
ENCODING 21155
SWIDTH 1040 0
DWIDTH 13 0
BBX 13 13 0 -2
BITMAP
0600
1660
2610
CE48
0080
0F00
F600
0600
07F0
FFF0
0610
1810
6070
ENDCHAR
STARTCHAR 52A9
ENCODING 21161
SWIDTH 1040 0
DWIDTH 13 0
BBX 13 13 0 -2
BITMAP
0040
7840
4840
4BF8
7848
4848
4848
7848
4848
4848
4E88
F888
0330
ENDCHAR
STARTCHAR 52AA
ENCODING 21162
SWIDTH 1040 0
DWIDTH 13 0
BBX 13 13 0 -2
BITMAP
1000
FEF0
2610
46A0
3840
E6B8
0600
FFF0
FE10
0610
0610
1820
E0E0
ENDCHAR
STARTCHAR 52AB
ENCODING 21163
SWIDTH 1040 0
DWIDTH 13 0
BBX 13 13 0 -2
BITMAP
1040
1040
7E40
13F8
1048
1048
FF48
1048
3048
2048
2688
7E88
C730
ENDCHAR
STARTCHAR 52AC
ENCODING 21164
SWIDTH 1040 0
DWIDTH 13 0
BBX 13 13 0 -2
BITMAP
4040
4040
7E40
46F8
8648
7648
5648
5648
5648
7648
0688
0688
1B30
ENDCHAR
STARTCHAR 52AD
ENCODING 21165
SWIDTH 1040 0
DWIDTH 13 0
BBX 13 13 0 -2
BITMAP
F840
4840
4840
4BF8
4848
9848
0048
F848
8848
8848
8888
F888
8330
ENDCHAR
STARTCHAR 52B1
ENCODING 21169
SWIDTH 1040 0
DWIDTH 13 0
BBX 13 13 0 -2
BITMAP
7FF8
4040
7E40
50F0
5050
5E50
5650
5650
5650
5650
5690
9690
AB70
ENDCHAR
STARTCHAR 52B4
ENCODING 21172
SWIDTH 1040 0
DWIDTH 13 0
BBX 12 13 0 -2
BITMAP
4820
2620
2640
FFF0
8810
8810
7FE0
0820
0820
0820
1020
1020
60C0
ENDCHAR
STARTCHAR 52B5
ENCODING 21173
SWIDTH 1040 0
DWIDTH 13 0
BBX 12 13 0 -2
BITMAP
2640
2640
4620
BFD0
0B00
FFF0
1080
2040
FFF0
DFB0
0880
1080
6380
ENDCHAR
STARTCHAR 52B9
ENCODING 21177
SWIDTH 1040 0
DWIDTH 13 0
BBX 13 13 0 -2
BITMAP
1040
1040
FE40
2BF8
2848
4648
AB48
1048
1848
1848
2688
4088
8330
ENDCHAR
STARTCHAR 52BC
ENCODING 21180
SWIDTH 1040 0
DWIDTH 13 0
BBX 13 13 0 -2
BITMAP
2040
2040
F840
23F8
2048
7848
0048
0048
F848
F848
8888
8888
FB30
ENDCHAR
STARTCHAR 52BE
ENCODING 21182
SWIDTH 1040 0
DWIDTH 13 0
BBX 13 13 0 -2
BITMAP
1040
1040
FE40
23F8
4048
8848
5048
2648
6E48
4848
9088
2888
C730
ENDCHAR
STARTCHAR 52C1
ENCODING 21185
SWIDTH 1040 0
DWIDTH 13 0
BBX 13 13 0 -2
BITMAP
0040
FF40
5640
56F8
A848
5648
5648
0048
FF48
FF48
1048
1F48
F098
ENDCHAR
STARTCHAR 52C3
ENCODING 21187
SWIDTH 1040 0
DWIDTH 13 0
BBX 13 13 0 -2
BITMAP
2040
FE40
2040
FFF8
8648
7848
0848
1048
1E48
FE48
1088
1090
7730
ENDCHAR
STARTCHAR 52C5
ENCODING 21189
SWIDTH 1040 0
DWIDTH 13 0
BBX 13 13 0 -2
BITMAP
1040
FE40
1040
7EF8
5648
5648
7E48
1048
1848
3848
3688
5088
9318
ENDCHAR
STARTCHAR 52C7
ENCODING 21191
SWIDTH 1040 0
DWIDTH 13 0
BBX 12 13 0 -2
BITMAP
7FC0
1080
0F00
7FE0
4620
7FE0
4620
7FE0
7E00
0600
FFF0
1810
E070
ENDCHAR
STARTCHAR 52C9
ENCODING 21193
SWIDTH 1040 0
DWIDTH 13 0
BBX 13 13 0 -2
BITMAP
4040
7840
4840
93F8
7E48
5648
5648
7E88
6888
2888
2B18
4800
87F8
ENDCHAR
STARTCHAR 52CD
ENCODING 21197
SWIDTH 1040 0
DWIDTH 13 0
BBX 13 13 0 -2
BITMAP
1040
1040
FE40
0040
7EF8
4648
4648
7E48
7048
1048
5848
9688
B6B0
ENDCHAR
STARTCHAR 52D2
ENCODING 21202
SWIDTH 1040 0
DWIDTH 13 0
BBX 13 13 0 -2
BITMAP
5040
F840
5040
73F8
2048
F848
A848
F848
E048
2048
F888
2090
2330
ENDCHAR
STARTCHAR 52D5
ENCODING 21205
SWIDTH 1040 0
DWIDTH 13 0
BBX 13 13 0 -2
BITMAP
1E40
F040
13F8
FE48
5648
7E48
5648
7E48
7048
1048
7E48
1090
FEB0
ENDCHAR
STARTCHAR 52D7
ENCODING 21207
SWIDTH 1040 0
DWIDTH 13 0
BBX 12 13 0 -2
BITMAP
3FE0
2020
3FE0
2020
3FE0
7880
4FF0
7890
4890
4890
7890
4890
FB30
ENDCHAR
STARTCHAR 52D8
ENCODING 21208
SWIDTH 1040 0
DWIDTH 13 0
BBX 13 13 0 -2
BITMAP
4840
FE40
4840
7BF8
4848
7848
4848
FF48
A848
A848
CE48
8088
FEB8
ENDCHAR
STARTCHAR 52D9
ENCODING 21209
SWIDTH 1040 0
DWIDTH 13 0
BBX 13 13 0 -2
BITMAP
0080
F8F8
0888
5350
2020
F850
0B88
1040
1078
33F8
5048
9048
33B8
ENDCHAR
STARTCHAR 52DD
ENCODING 21213
SWIDTH 1040 0
DWIDTH 13 0
BBX 13 13 0 -2
BITMAP
7648
5350
57F8
5040
7FF8
50A0
5350
7E48
5678
57F0
5090
5090
B730
ENDCHAR
STARTCHAR 52DE
ENCODING 21214
SWIDTH 1040 0
DWIDTH 13 0
BBX 12 13 0 -2
BITMAP
AB50
68D0
3060
CB90
FFF0
8810
0800
7FE0
7820
0820
0820
1020
60C0
ENDCHAR
STARTCHAR 52DF
ENCODING 21215
SWIDTH 1040 0
DWIDTH 13 0
BBX 13 13 0 -2
BITMAP
0880
FFF8
0880
3FE0
2020
3FE0
2620
FFF8
F660
3660
DFD8
0840
33C0
ENDCHAR
STARTCHAR 52E0
ENCODING 21216
SWIDTH 1040 0
DWIDTH 13 0
BBX 13 13 0 -2
BITMAP
EF40
6740
AB40
6740
ABF8
1048
2848
C748
DF48
1848
E688
1888
E318
ENDCHAR
STARTCHAR 52E2
ENCODING 21218
SWIDTH 1040 0
DWIDTH 13 0
BBX 13 13 0 -2
BITMAP
1040
7E40
13F0
FE50
2B50
C698
3F48
E600
E7F0
3FF0
0610
0810
3070
ENDCHAR
STARTCHAR 52E3
ENCODING 21219
SWIDTH 1040 0
DWIDTH 13 0
BBX 13 13 0 -2
BITMAP
1040
7E40
1040
7FF8
1048
FE48
4648
7E48
4648
4648
7E88
2890
C730
ENDCHAR
STARTCHAR 52E4
ENCODING 21220
SWIDTH 1040 0
DWIDTH 13 0
BBX 13 13 0 -2
BITMAP
2840
FF40
2840
7FF8
5648
7E48
1048
7E48
7048
1048
7E48
1088
FE98
ENDCHAR
STARTCHAR 52E6
ENCODING 21222
SWIDTH 1040 0
DWIDTH 13 0
BBX 13 13 0 -2
BITMAP
5640
A840
A840
56F8
FF48
9348
FF48
9348
9348
FF48
3848
5648
9398
ENDCHAR
STARTCHAR 52E7
ENCODING 21223
SWIDTH 1040 0
DWIDTH 13 0
BBX 13 13 0 -2
BITMAP
4040
7E40
4840
7FF8
9048
7F48
D048
7E48
5048
5048
7E48
5088
7F38
ENDCHAR
STARTCHAR 52F2
ENCODING 21234
SWIDTH 1040 0
DWIDTH 13 0
BBX 13 13 0 -2
BITMAP
FE40
1040
FE40
57F8
7E48
5648
7E48
1088
1E88
FE98
2B20
2890
4890
ENDCHAR
STARTCHAR 52F3
ENCODING 21235
SWIDTH 1040 0
DWIDTH 13 0
BBX 13 13 0 -2
BITMAP
1E40
7040
1040
FEF8
1048
FE48
9648
FE48
F048
1048
FF48
5648
9698
ENDCHAR
STARTCHAR 52F5
ENCODING 21237
SWIDTH 1040 0
DWIDTH 13 0
BBX 13 13 0 -2
BITMAP
FFA0
9620
FFA0
9678
BF28
AB28
BF28
8828
8FA8
BFA8
A8A8
BEA8
A6D8
ENDCHAR
STARTCHAR 52F8
ENCODING 21240
SWIDTH 1040 0
DWIDTH 13 0
BBX 13 13 0 -2
BITMAP
4840
FF40
4840
EFF8
AB48
EF48
5048
FE48
D048
5048
7E88
5090
7F30
ENDCHAR
STARTCHAR 52F9
ENCODING 21241
SWIDTH 1040 0
DWIDTH 13 0
BBX 13 13 0 -2
BITMAP
1000
1000
1FF8
2008
C008
0008
0008
0008
0008
0008
0010
0010
0060
ENDCHAR
STARTCHAR 52FA
ENCODING 21242
SWIDTH 1040 0
DWIDTH 13 0
BBX 13 13 0 -2
BITMAP
1000
1000
3FF8
2008
4008
8608
0308
0088
0088
0088
0008
0010
0070
ENDCHAR
STARTCHAR 52FE
ENCODING 21246
SWIDTH 1040 0
DWIDTH 13 0
BBX 12 13 0 -2
BITMAP
2000
2000
3FF0
2010
4810
8810
0B10
1090
10D0
17D0
7850
0010
00E0
ENDCHAR
STARTCHAR 52FF
ENCODING 21247
SWIDTH 1040 0
DWIDTH 13 0
BBX 12 13 0 -2
BITMAP
2000
2000
3FF0
2890
4890
8890
1090
1310
2310
2310
C610
0820
30E0
ENDCHAR
STARTCHAR 5301
ENCODING 21249
SWIDTH 1040 0
DWIDTH 13 0
BBX 13 13 0 -2
BITMAP
1000
1000
1FF0
1310
2310
D310
0E10
0710
0FD0
08D0
3038
C020
03E0
ENDCHAR
STARTCHAR 5302
ENCODING 21250
SWIDTH 1040 0
DWIDTH 13 0
BBX 12 13 0 -2
BITMAP
1000
1000
3FF0
2010
5010
9390
1E10
1010
1090
1090
0F90
0010
0060
ENDCHAR
STARTCHAR 5305
ENCODING 21253
SWIDTH 1040 0
DWIDTH 13 0
BBX 12 13 0 -2
BITMAP
1000
1000
1FE0
2020
DF20
0320
0320
3F20
2020
2060
2010
2010
1FF0
ENDCHAR
STARTCHAR 5306
ENCODING 21254
SWIDTH 1040 0
DWIDTH 13 0
BBX 13 13 0 -2
BITMAP
1000
1000
1FF8
1648
2648
C648
1F48
08C8
08A8
08A8
1088
6310
0E30
ENDCHAR
STARTCHAR 5308
ENCODING 21256
SWIDTH 1040 0
DWIDTH 13 0
BBX 13 13 0 -2
BITMAP
1000
1000
3FF8
2008
4088
9B08
0728
28A8
28A8
20A8
3FE8
2010
0070
ENDCHAR
STARTCHAR 530D
ENCODING 21261
SWIDTH 1040 0
DWIDTH 13 0
BBX 13 13 0 -2
BITMAP
2000
3FF8
4648
7FE8
8608
3FC8
2648
3FC8
2648
2648
3FC8
2648
26D8
ENDCHAR
STARTCHAR 530F
ENCODING 21263
SWIDTH 1040 0
DWIDTH 13 0
BBX 13 13 0 -2
BITMAP
2080
2080
FBF8
2308
5608
BBE8
0328
FB38
C320
43E0
F300
1308
30F8
ENDCHAR
STARTCHAR 5310
ENCODING 21264
SWIDTH 1040 0
DWIDTH 13 0
BBX 13 13 0 -2
BITMAP
2000
3FF8
4008
5FC8
8008
1F88
1088
3FC8
2648
2648
3FC8
2648
3FD8
ENDCHAR
STARTCHAR 5315
ENCODING 21269
SWIDTH 1040 0
DWIDTH 13 0
BBX 12 13 0 -2
BITMAP
2000
2000
2000
2080
2300
2600
3800
E000
E000
2000
2010
2010
1FF0
ENDCHAR
STARTCHAR 5316
ENCODING 21270
SWIDTH 1040 0
DWIDTH 13 0
BBX 13 13 0 -2
BITMAP
1300
1300
1300
2308
2330
63C0
A300
2300
2300
2300
2308
2308
20F8
ENDCHAR
STARTCHAR 5317
ENCODING 21271
SWIDTH 1040 0
DWIDTH 13 0
BBX 13 13 0 -2
BITMAP
0880
0880
0880
F898
08E0
0880
0880
0880
0880
3880
C888
0888
0878
ENDCHAR
STARTCHAR 5319
ENCODING 21273
SWIDTH 1040 0
DWIDTH 13 0
BBX 13 13 0 -2
BITMAP
7E80
4680
7E80
4698
7EF0
0080
FE80
1088
5E88
5E88
5078
F000
9FF8
ENDCHAR
STARTCHAR 531A
ENCODING 21274
SWIDTH 1040 0
DWIDTH 13 0
BBX 12 13 1 -2
BITMAP
FFF0
8000
8000
8000
8000
8000
8000
8000
8000
8000
8000
FFF0
8000
ENDCHAR
STARTCHAR 531D
ENCODING 21277
SWIDTH 1040 0
DWIDTH 13 0
BBX 13 13 0 -2
BITMAP
FFF8
8300
8300
9FE0
9320
9320
9320
9320
9320
9360
8300
8300
FFF8
ENDCHAR
STARTCHAR 5320
ENCODING 21280
SWIDTH 1040 0
DWIDTH 13 0
BBX 12 13 0 -2
BITMAP
FFF0
8000
83E0
9F00
9000
9FF0
9080
9080
B080
A080
8080
8000
FFF0
ENDCHAR
STARTCHAR 5321
ENCODING 21281
SWIDTH 1040 0
DWIDTH 13 0
BBX 12 13 1 -2
BITMAP
FFF0
8000
BFE0
8600
8600
9FC0
8600
8600
87E0
BFE0
8000
8000
FFF0
ENDCHAR
STARTCHAR 5323
ENCODING 21283
SWIDTH 1040 0
DWIDTH 13 0
BBX 12 13 1 -2
BITMAP
FFF0
8000
9FE0
9120
9FE0
9120
9FE0
9100
9100
8100
8100
8000
FFF0
ENDCHAR
STARTCHAR 532A
ENCODING 21290
SWIDTH 1040 0
DWIDTH 13 0
BBX 13 13 0 -2
BITMAP
FFF8
8000
8680
BEF0
8680
9EF0
8680
BEF8
BE80
8680
8880
8000
FFF8
ENDCHAR
STARTCHAR 532F
ENCODING 21295
SWIDTH 1040 0
DWIDTH 13 0
BBX 13 13 0 -2
BITMAP
FFF8
8620
A640
97F8
8E40
A7F0
9640
87F0
9640
9640
A7F8
8000
FFF8
ENDCHAR
STARTCHAR 5331
ENCODING 21297
SWIDTH 1040 0
DWIDTH 13 0
BBX 12 13 1 -2
BITMAP
FFF0
8600
BFC0
A640
FFF0
9040
9FC0
9040
9040
9FC0
8D00
B0C0
FFF0
ENDCHAR
STARTCHAR 5333
ENCODING 21299
SWIDTH 1040 0
DWIDTH 13 0
BBX 13 13 0 -2
BITMAP
FFF8
8300
8680
8840
B030
9EE0
96A0
9EE0
98C0
8840
96A0
A310
FFF8
ENDCHAR
STARTCHAR 5338
ENCODING 21304
SWIDTH 1040 0
DWIDTH 13 0
BBX 13 12 0 -2
BITMAP
FFF8
2000
2000
2000
2000
2000
2000
2000
2000
2000
2000
1FF0
ENDCHAR
STARTCHAR 5339
ENCODING 21305
SWIDTH 1040 0
DWIDTH 13 0
BBX 12 12 0 -2
BITMAP
FFF0
8880
8880
8880
9090
9090
A070
A070
8000
8000
FFF0
8000
ENDCHAR
STARTCHAR 533A
ENCODING 21306
SWIDTH 1040 0
DWIDTH 13 0
BBX 12 12 0 -2
BITMAP
FFF0
8000
8040
9840
8680
8300
8680
9EC0
9840
8040
8000
FFF0
ENDCHAR
STARTCHAR 533B
ENCODING 21307
SWIDTH 1040 0
DWIDTH 13 0
BBX 12 13 1 -2
BITMAP
FFF0
9000
9000
9FC0
A600
C600
BFE0
8600
8F00
8D00
B0E0
8000
FFF0
ENDCHAR
STARTCHAR 533F
ENCODING 21311
SWIDTH 1040 0
DWIDTH 13 0
BBX 13 13 0 -2
BITMAP
FFF8
8840
BFF0
8840
8600
BFF0
8600
8FE0
8820
B820
8FE0
8000
FFF8
ENDCHAR
STARTCHAR 5340
ENCODING 21312
SWIDTH 1040 0
DWIDTH 13 0
BBX 13 13 0 -2
BITMAP
FFF8
4000
47E0
4620
47E0
4000
5F78
5348
5348
5348
5F78
4000
3FF8
ENDCHAR
STARTCHAR 5341
ENCODING 21313
SWIDTH 1040 0
DWIDTH 13 0
BBX 12 13 0 -2
BITMAP
0600
0600
0600
0600
0600
FFF0
0600
0600
0600
0600
0600
0600
0600
ENDCHAR
STARTCHAR 5343
ENCODING 21315
SWIDTH 1040 0
DWIDTH 13 0
BBX 12 13 0 -2
BITMAP
00E0
0F00
7600
0600
0600
FFF0
0600
0600
0600
0600
0600
0600
0600
ENDCHAR
STARTCHAR 5345
ENCODING 21317
SWIDTH 1040 0
DWIDTH 13 0
BBX 13 13 0 -2
BITMAP
2310
2310
2310
2310
2310
FFF8
2310
2310
2310
2310
4310
4310
8310
ENDCHAR
STARTCHAR 5346
ENCODING 21318
SWIDTH 1040 0
DWIDTH 13 0
BBX 12 13 0 -2
BITMAP
0800
0800
7F80
1080
1080
2090
C670
0600
07F0
FFF0
0600
0600
0600
ENDCHAR
STARTCHAR 5347
ENCODING 21319
SWIDTH 1040 0
DWIDTH 13 0
BBX 13 13 0 -2
BITMAP
0040
1E40
F040
1040
1040
FFF8
1040
1040
1040
1040
2040
2040
4040
ENDCHAR
STARTCHAR 5348
ENCODING 21320
SWIDTH 1040 0
DWIDTH 13 0
BBX 12 13 1 -2
BITMAP
2000
2000
7FE0
4600
8600
0600
0600
FFF0
FE00
0600
0600
0600
0600
ENDCHAR
STARTCHAR 5349
ENCODING 21321
SWIDTH 1040 0
DWIDTH 13 0
BBX 13 13 0 -2
BITMAP
0300
0300
3FF0
0300
1320
1020
1020
FFF8
F020
1020
2020
2020
C020
ENDCHAR
STARTCHAR 534A
ENCODING 21322
SWIDTH 1040 0
DWIDTH 13 0
BBX 12 13 0 -2
BITMAP
4620
2620
2640
0600
7FE0
0600
0600
FFF0
FE00
0600
0600
0600
0600
ENDCHAR
STARTCHAR 534D
ENCODING 21325
SWIDTH 1040 0
DWIDTH 13 0
BBX 12 12 0 -2
BITMAP
FE10
0610
0610
0610
0610
FFF0
8600
8600
8600
8600
8600
87F0
ENDCHAR
STARTCHAR 5351
ENCODING 21329
SWIDTH 1040 0
DWIDTH 13 0
BBX 13 13 0 -2
BITMAP
0600
3FE0
2620
3FE0
2620
3FE0
2300
1300
13F8
FFF8
0300
0300
0300
ENDCHAR
STARTCHAR 5352
ENCODING 21330
SWIDTH 1040 0
DWIDTH 13 0
BBX 13 13 0 -2
BITMAP
0600
0600
FFF0
2040
2040
56A0
8610
0600
07F8
FFF8
0600
0600
0600
ENDCHAR
STARTCHAR 5353
ENCODING 21331
SWIDTH 1040 0
DWIDTH 13 0
BBX 12 13 0 -2
BITMAP
0600
07E0
0600
3FC0
2040
3FC0
2040
3FC0
3E00
0600
FFF0
0600
0600
ENDCHAR
STARTCHAR 5354
ENCODING 21332
SWIDTH 1040 0
DWIDTH 13 0
BBX 13 13 0 -2
BITMAP
4080
47F0
4090
F090
4770
4620
4620
5F78
5B68
4B28
4B28
4B28
5758
ENDCHAR
STARTCHAR 5357
ENCODING 21335
SWIDTH 1040 0
DWIDTH 13 0
BBX 12 13 0 -2
BITMAP
0600
FFF0
0600
0600
7FE0
50A0
4B20
5FA0
5E20
4620
5FA0
4620
4660
ENDCHAR
STARTCHAR 5358
ENCODING 21336
SWIDTH 1040 0
DWIDTH 13 0
BBX 13 13 0 -2
BITMAP
2620
1340
0000
3FC0
2640
3FC0
2640
3FC0
3E00
0600
FFF8
0600
0600
ENDCHAR
STARTCHAR 535A
ENCODING 21338
SWIDTH 1040 0
DWIDTH 13 0
BBX 13 13 0 -2
BITMAP
4090
5FF8
4080
EFF0
4890
4FF0
4890
4FF0
4FE0
4020
5FF8
4620
4360
ENDCHAR
STARTCHAR 535C
ENCODING 21340
SWIDTH 1040 0
DWIDTH 13 0
BBX 7 13 4 -2
BITMAP
80
80
80
80
F0
88
84
82
82
80
80
80
80
ENDCHAR
STARTCHAR 535E
ENCODING 21342
SWIDTH 1040 0
DWIDTH 13 0
BBX 13 13 0 -2
BITMAP
0600
0600
FFF8
0600
0600
0780
0640
0620
0620
0600
0600
0600
0600
ENDCHAR
STARTCHAR 5360
ENCODING 21344
SWIDTH 1040 0
DWIDTH 13 0
BBX 10 13 1 -2
BITMAP
0C00
0C00
0C00
0FC0
0C00
0C00
0C00
FFC0
8040
8040
8040
8040
FFC0
ENDCHAR
STARTCHAR 5366
ENCODING 21350
SWIDTH 1040 0
DWIDTH 13 0
BBX 13 13 0 -2
BITMAP
1040
7E40
1040
1040
FF60
1050
1048
7E48
7048
1040
1040
1F40
F040
ENDCHAR
STARTCHAR 5369
ENCODING 21353
SWIDTH 1040 0
DWIDTH 13 0
BBX 8 13 3 -2
BITMAP
80
FF
81
81
81
81
81
81
9F
9E
80
80
80
ENDCHAR
STARTCHAR 536E
ENCODING 21358
SWIDTH 1040 0
DWIDTH 13 0
BBX 13 13 0 -2
BITMAP
0070
3FC0
2000
3FF8
2000
2FE0
2820
2820
2820
28E0
4800
4808
87F8
ENDCHAR
STARTCHAR 536F
ENCODING 21359
SWIDTH 1040 0
DWIDTH 13 0
BBX 13 13 0 -2
BITMAP
0E80
70F8
4088
4888
4888
4888
4888
5888
7888
E888
08B8
1080
6080
ENDCHAR
STARTCHAR 5370
ENCODING 21360
SWIDTH 1040 0
DWIDTH 13 0
BBX 12 13 1 -2
BITMAP
1000
67F0
8610
8610
8610
F610
8610
8610
8610
8610
F6E0
8600
0600
ENDCHAR
STARTCHAR 5371
ENCODING 21361
SWIDTH 1040 0
DWIDTH 13 0
BBX 13 13 0 -2
BITMAP
1000
1FC0
6080
0300
3FF8
2000
2FE0
2820
6820
4820
48E8
8808
07F8
ENDCHAR
STARTCHAR 5373
ENCODING 21363
SWIDTH 1040 0
DWIDTH 13 0
BBX 13 13 0 -2
BITMAP
7EF8
4688
4688
7E88
4688
4688
7E88
4088
4888
4888
48B8
5E80
E680
ENDCHAR
STARTCHAR 5374
ENCODING 21364
SWIDTH 1040 0
DWIDTH 13 0
BBX 13 13 0 -2
BITMAP
00F8
2088
2088
F888
2088
2088
F888
2088
2688
2688
4EB8
F680
0080
ENDCHAR
STARTCHAR 5375
ENCODING 21365
SWIDTH 1040 0
DWIDTH 13 0
BBX 13 13 0 -2
BITMAP
0680
78F8
4088
4688
66C8
56A8
56A8
46A8
46A8
7E88
C888
08B8
7080
ENDCHAR
STARTCHAR 5377
ENCODING 21367
SWIDTH 1040 0
DWIDTH 13 0
BBX 13 13 0 -2
BITMAP
2640
2640
4620
BFD0
0B00
FFF0
1080
3FC0
FFB8
C0B8
1F80
1020
0FE0
ENDCHAR
STARTCHAR 5378
ENCODING 21368
SWIDTH 1040 0
DWIDTH 13 0
BBX 13 13 0 -2
BITMAP
4000
7EF8
5088
9088
7E88
1088
5088
5E88
5088
5088
5EB8
F080
0080
ENDCHAR
STARTCHAR 537B
ENCODING 21371
SWIDTH 1040 0
DWIDTH 13 0
BBX 13 13 0 -2
BITMAP
2800
26F8
4688
9088
2888
4688
8088
7E88
4688
4688
46B8
4680
7E80
ENDCHAR
STARTCHAR 537F
ENCODING 21375
SWIDTH 1040 0
DWIDTH 13 0
BBX 13 13 0 -2
BITMAP
6038
CFA8
88A8
AFA8
A8A8
AFA8
A828
AB28
AB28
EB38
2BA0
4EA0
8820
ENDCHAR
STARTCHAR 5382
ENCODING 21378
SWIDTH 1040 0
DWIDTH 13 0
BBX 13 13 0 -2
BITMAP
3FF8
2000
2000
2000
2000
2000
2000
2000
2000
2000
4000
4000
8000
ENDCHAR
STARTCHAR 5384
ENCODING 21380
SWIDTH 1040 0
DWIDTH 13 0
BBX 13 13 0 -2
BITMAP
7FF8
4000
4000
4FE0
4820
4820
4820
48E0
48E0
4800
4808
8808
87F8
ENDCHAR
STARTCHAR 5396
ENCODING 21398
SWIDTH 1040 0
DWIDTH 13 0
BBX 13 13 0 -2
BITMAP
7FF8
4300
4B10
4860
7F08
4810
48E0
4808
4E38
4E30
56C0
9608
A3F8
ENDCHAR
STARTCHAR 5398
ENCODING 21400
SWIDTH 1040 0
DWIDTH 13 0
BBX 12 12 0 -2
BITMAP
7FF0
4000
5FE0
5320
5FE0
5320
5FE0
5F00
4300
9FE0
8300
7FF0
ENDCHAR
STARTCHAR 539A
ENCODING 21402
SWIDTH 1040 0
DWIDTH 13 0
BBX 13 13 0 -2
BITMAP
7FF8
5010
5FF0
5010
5FF0
4000
4FE0
4040
4070
5FF0
4080
8080
0780
ENDCHAR
STARTCHAR 539F
ENCODING 21407
SWIDTH 1040 0
DWIDTH 13 0
BBX 13 13 0 -2
BITMAP
7FF8
4080
4300
4FF0
4810
4FF0
4810
4FF0
4F80
4080
4890
8888
1388
ENDCHAR
STARTCHAR 53A0
ENCODING 21408
SWIDTH 1040 0
DWIDTH 13 0
BBX 13 13 0 -2
BITMAP
7FF8
4000
5F08
5348
5F48
5348
5F48
5348
5348
5F48
5648
9308
A318
ENDCHAR
STARTCHAR 53A5
ENCODING 21413
SWIDTH 1040 0
DWIDTH 13 0
BBX 13 13 0 -2
BITMAP
7FF8
4340
6340
5640
7FF8
4890
6B50
6B20
6B30
7F30
4850
8848
9088
ENDCHAR
STARTCHAR 53A6
ENCODING 21414
SWIDTH 1040 0
DWIDTH 13 0
BBX 13 13 0 -2
BITMAP
7FF8
4000
5FF0
4300
4FE0
4820
4FE0
4820
4820
4FE0
5620
83C0
BE38
ENDCHAR
STARTCHAR 53A8
ENCODING 21416
SWIDTH 1040 0
DWIDTH 13 0
BBX 13 13 0 -2
BITMAP
7FF8
4000
5F10
4010
5FF8
5310
5F90
4050
5350
5350
4E10
8790
B870
ENDCHAR
STARTCHAR 53A9
ENCODING 21417
SWIDTH 1040 0
DWIDTH 13 0
BBX 13 13 0 -2
BITMAP
7FF8
4000
5FF8
5350
5F50
53F8
5F20
5040
5640
5640
5660
9EA8
1398
ENDCHAR
STARTCHAR 53AD
ENCODING 21421
SWIDTH 1040 0
DWIDTH 13 0
BBX 13 13 0 -2
BITMAP
7FF8
4020
5F30
5328
5F20
40F8
5F20
5320
5370
5F50
5350
9F50
B388
ENDCHAR
STARTCHAR 53AE
ENCODING 21422
SWIDTH 1040 0
DWIDTH 13 0
BBX 13 13 0 -2
BITMAP
7FF8
5600
7F18
5660
5E40
5678
5E50
5650
5750
7F50
5650
9690
2690
ENDCHAR
STARTCHAR 53B0
ENCODING 21424
SWIDTH 1040 0
DWIDTH 13 0
BBX 13 13 0 -2
BITMAP
7FF8
4840
6B40
5E40
5FF8
5390
5F50
5720
5730
5730
5F50
9348
9388
ENDCHAR
STARTCHAR 53B3
ENCODING 21427
SWIDTH 1040 0
DWIDTH 13 0
BBX 13 13 0 -2
BITMAP
2610
1320
7FF8
4040
5F40
4878
7F90
5650
5760
5F20
5630
BF48
0688
ENDCHAR
STARTCHAR 53B6
ENCODING 21430
SWIDTH 1040 0
DWIDTH 13 0
BBX 12 13 0 -2
BITMAP
0600
0600
0600
0800
0800
0800
1000
1020
2020
2020
23F0
FE10
0010
ENDCHAR
STARTCHAR 53BB
ENCODING 21435
SWIDTH 1040 0
DWIDTH 13 0
BBX 12 13 0 -2
BITMAP
0600
0600
7FE0
0600
0600
0600
FFF0
0800
0820
0820
1020
23F0
7E10
ENDCHAR
STARTCHAR 53C2
ENCODING 21442
SWIDTH 1040 0
DWIDTH 13 0
BBX 13 13 0 -2
BITMAP
0640
0820
7FE0
0620
FFF8
0880
3360
CE18
FF98
3380
0E20
00C0
7F00
ENDCHAR
STARTCHAR 53C3
ENCODING 21443
SWIDTH 1040 0
DWIDTH 13 0
BBX 13 13 0 -2
BITMAP
0E40
1020
7FF0
2620
5748
F8F8
3360
CE58
FE90
3390
0E20
00C0
7F00
ENDCHAR
STARTCHAR 53C8
ENCODING 21448
SWIDTH 1040 0
DWIDTH 13 0
BBX 13 12 0 -2
BITMAP
7FE0
0020
0020
3040
0840
0680
0300
0780
0680
0840
3020
C018
ENDCHAR
STARTCHAR 53C9
ENCODING 21449
SWIDTH 1040 0
DWIDTH 13 0
BBX 13 12 0 -2
BITMAP
FFF0
0610
0320
1320
1040
2840
0680
0700
0300
0680
1860
E018
ENDCHAR
STARTCHAR 53CA
ENCODING 21450
SWIDTH 1040 0
DWIDTH 13 0
BBX 13 13 0 -2
BITMAP
7FE0
1020
1040
1880
18F0
1610
2610
2320
23A0
20A0
40C0
4720
9818
ENDCHAR
STARTCHAR 53CB
ENCODING 21451
SWIDTH 1040 0
DWIDTH 13 0
BBX 13 13 0 -2
BITMAP
0800
0800
7FF0
0800
0800
0FE0
0820
1820
3E40
2640
C380
0E60
3018
ENDCHAR
STARTCHAR 53CC
ENCODING 21452
SWIDTH 1040 0
DWIDTH 13 0
BBX 13 12 0 -2
BITMAP
FBF8
0810
0B10
48A0
28A0
1040
1840
3EE0
26A0
20A0
4310
9E08
ENDCHAR
STARTCHAR 53CD
ENCODING 21453
SWIDTH 1040 0
DWIDTH 13 0
BBX 13 13 0 -2
BITMAP
3FF0
2000
2000
2000
3FE0
2020
2020
2840
6E80
4680
4380
8E60
7018
ENDCHAR
STARTCHAR 53CE
ENCODING 21454
SWIDTH 1040 0
DWIDTH 13 0
BBX 13 13 0 -2
BITMAP
0800
4BF0
4810
4B10
4B10
48A0
48A0
4840
4840
7840
C8A0
0B10
0E08
ENDCHAR
STARTCHAR 53D4
ENCODING 21460
SWIDTH 1040 0
DWIDTH 13 0
BBX 13 13 0 -2
BITMAP
2000
23F0
3810
2310
20A0
F8A0
2040
3040
A8E0
A8A0
A8A0
AB10
6608
ENDCHAR
STARTCHAR 53D6
ENCODING 21462
SWIDTH 1040 0
DWIDTH 13 0
BBX 13 13 0 -2
BITMAP
FF00
4BF0
4810
7B10
4B10
48A0
78A0
4840
4840
4840
78A0
C8A0
0F18
ENDCHAR
STARTCHAR 53D7
ENCODING 21463
SWIDTH 1040 0
DWIDTH 13 0
BBX 13 13 0 -2
BITMAP
00F0
7F00
2620
1340
FFF8
8008
BFC8
0040
18C0
1880
0700
18C0
E030
ENDCHAR
STARTCHAR 53D9
ENCODING 21465
SWIDTH 1040 0
DWIDTH 13 0
BBX 13 13 0 -2
BITMAP
1000
13F0
2810
4B10
7F10
A6A0
20A0
F840
E040
2040
A8A0
AB10
6E08
ENDCHAR
STARTCHAR 53DB
ENCODING 21467
SWIDTH 1040 0
DWIDTH 13 0
BBX 13 13 0 -2
BITMAP
AFF8
7600
2600
FE00
27F0
3610
E710
2720
48A0
48A0
4840
90A0
0718
ENDCHAR
STARTCHAR 53DF
ENCODING 21471
SWIDTH 1040 0
DWIDTH 13 0
BBX 13 13 0 -2
BITMAP
1600
E6F0
8610
F6F0
8610
FFF0
0600
7FE0
6020
2020
18C0
0F80
F078
ENDCHAR
STARTCHAR 53E1
ENCODING 21473
SWIDTH 1040 0
DWIDTH 13 0
BBX 13 13 0 -2
BITMAP
3800
20F8
FE08
A688
7088
8E50
2050
7820
4E20
CE20
7850
4888
7B08
ENDCHAR
STARTCHAR 53E2
ENCODING 21474
SWIDTH 1040 0
DWIDTH 13 0
BBX 13 13 0 -2
BITMAP
4890
28A0
FFF8
1040
7FF0
0600
FFF8
4B20
4BA0
78A0
4840
F8A0
0B18
ENDCHAR
STARTCHAR 53E3
ENCODING 21475
SWIDTH 1040 0
DWIDTH 13 0
BBX 11 12 1 -2
BITMAP
FFE0
8020
8020
8020
8020
8020
8020
8020
8020
8020
FFE0
8000
ENDCHAR
STARTCHAR 53E4
ENCODING 21476
SWIDTH 1040 0
DWIDTH 13 0
BBX 12 13 0 -2
BITMAP
0600
0600
0600
FFF0
0600
0600
0600
3FC0
2040
2040
2040
2040
3FC0
ENDCHAR
STARTCHAR 53E5
ENCODING 21477
SWIDTH 1040 0
DWIDTH 13 0
BBX 12 13 0 -2
BITMAP
2000
2000
3FF0
2010
4010
9F90
1090
1090
1090
1F90
1010
0020
00E0
ENDCHAR
STARTCHAR 53E8
ENCODING 21480
SWIDTH 1040 0
DWIDTH 13 0
BBX 13 13 0 -2
BITMAP
0FF8
F088
9088
9088
9088
9088
9088
F088
8108
8308
0308
0610
1870
ENDCHAR
STARTCHAR 53E9
ENCODING 21481
SWIDTH 1040 0
DWIDTH 13 0
BBX 13 13 0 -2
BITMAP
03F8
FB08
8B08
8B08
8B08
8B08
8B08
8B08
8B08
FB08
8378
0300
0300
ENDCHAR
STARTCHAR 53EA
ENCODING 21482
SWIDTH 1040 0
DWIDTH 13 0
BBX 13 12 0 -2
BITMAP
7FE0
4020
4020
4020
4020
7FE0
4000
5080
1080
1080
2040
C038
ENDCHAR
STARTCHAR 53EB
ENCODING 21483
SWIDTH 1040 0
DWIDTH 13 0
BBX 13 13 0 -2
BITMAP
0020
F320
9320
9320
9320
9320
9320
9338
9320
F3E0
8720
0020
0020
ENDCHAR
STARTCHAR 53EC
ENCODING 21484
SWIDTH 1040 0
DWIDTH 13 0
BBX 10 12 1 -2
BITMAP
FFC0
1040
1040
2040
C1C0
0000
7F80
4080
4080
4080
4080
7F80
ENDCHAR
STARTCHAR 53ED
ENCODING 21485
SWIDTH 1040 0
DWIDTH 13 0
BBX 13 13 0 -2
BITMAP
03E0
0020
F320
9320
9320
9320
9320
9620
9630
F610
8810
0810
3008
ENDCHAR
STARTCHAR 53EE
ENCODING 21486
SWIDTH 1040 0
DWIDTH 13 0
BBX 13 13 0 -2
BITMAP
0FF8
F040
9040
9040
9040
9040
9040
F040
8040
8040
0040
0040
03C0
ENDCHAR
STARTCHAR 53EF
ENCODING 21487
SWIDTH 1040 0
DWIDTH 13 0
BBX 13 12 0 -2
BITMAP
FFF8
0020
0020
3F20
2320
2320
2320
2320
3F20
2020
0020
00E0
ENDCHAR
STARTCHAR 53F0
ENCODING 21488
SWIDTH 1040 0
DWIDTH 13 0
BBX 12 13 0 -2
BITMAP
0600
0600
0820
1020
23F0
FF10
0000
3FE0
2020
2020
2020
2020
3FE0
ENDCHAR
STARTCHAR 53F1
ENCODING 21489
SWIDTH 1040 0
DWIDTH 13 0
BBX 13 13 0 -2
BITMAP
0300
0300
F300
9300
9378
9FC0
9300
9300
9300
F300
8308
0308
00F8
ENDCHAR
STARTCHAR 53F2
ENCODING 21490
SWIDTH 1040 0
DWIDTH 13 0
BBX 13 13 0 -2
BITMAP
0600
0600
7FE0
4620
4620
7FE0
0600
3600
3600
0E00
0700
18C0
E038
ENDCHAR
STARTCHAR 53F3
ENCODING 21491
SWIDTH 1040 0
DWIDTH 13 0
BBX 13 13 0 -2
BITMAP
0800
0800
0800
FFF8
1000
1000
3FE0
5020
D020
9020
1020
1FE0
1020
ENDCHAR
STARTCHAR 53F6
ENCODING 21494
SWIDTH 1040 0
DWIDTH 13 0
BBX 13 13 0 -2
BITMAP
0040
0040
F040
9040
97F8
9040
9040
F040
8040
8040
0040
0040
0040
ENDCHAR
STARTCHAR 53F7
ENCODING 21495
SWIDTH 1040 0
DWIDTH 13 0
BBX 13 13 0 -2
BITMAP
3FE0
2020
2020
3FE0
0000
FFF8
1000
1000
1FE0
3FE0
2020
0020
03C0
ENDCHAR
STARTCHAR 53F8
ENCODING 21496
SWIDTH 1040 0
DWIDTH 13 0
BBX 13 13 0 -2
BITMAP
FFF8
0008
7FC8
0008
3F88
2088
2088
2088
2088
3F88
2008
0008
0038
ENDCHAR
STARTCHAR 53FA
ENCODING 21498
SWIDTH 1040 0
DWIDTH 13 0
BBX 13 13 0 -2
BITMAP
0780
0080
F080
9080
9080
9080
9340
9340
9760
F620
8620
0810
3008
ENDCHAR
STARTCHAR 5401
ENCODING 21505
SWIDTH 1040 0
DWIDTH 13 0
BBX 13 13 0 -2
BITMAP
07F0
F040
9040
9040
9040
97F8
9040
F040
8040
8040
0040
0040
00C0
ENDCHAR
STARTCHAR 5403
ENCODING 21507
SWIDTH 1040 0
DWIDTH 13 0
BBX 13 13 0 -2
BITMAP
0300
0300
F3F8
9600
9000
97F0
9020
90C0
93C0
F300
8608
0608
03F8
ENDCHAR
STARTCHAR 5404
ENCODING 21508
SWIDTH 1040 0
DWIDTH 13 0
BBX 13 13 0 -2
BITMAP
0800
0FC0
1040
2880
C700
0880
1040
3FE0
5058
D058
1040
1040
1FC0
ENDCHAR
STARTCHAR 5408
ENCODING 21512
SWIDTH 1040 0
DWIDTH 13 0
BBX 12 13 0 -2
BITMAP
0600
0600
0B00
1080
2040
C030
3FC0
0000
3FC0
3FC0
2040
2040
3FC0
ENDCHAR
STARTCHAR 5409
ENCODING 21513
SWIDTH 1040 0
DWIDTH 13 0
BBX 12 13 0 -2
BITMAP
0600
0600
FFF0
0600
0600
7FE0
0000
0000
3FC0
3FC0
2040
2040
3FC0
ENDCHAR
STARTCHAR 540A
ENCODING 21514
SWIDTH 1040 0
DWIDTH 13 0
BBX 10 13 1 -2
BITMAP
7F80
4080
4080
7F80
0C00
0C00
FFC0
8C40
8C40
8C40
8C40
8CC0
0C00
ENDCHAR
STARTCHAR 540B
ENCODING 21515
SWIDTH 1040 0
DWIDTH 13 0
BBX 13 13 0 -2
BITMAP
0020
F020
9020
9FF8
9020
9020
9620
F320
8320
8320
0020
0020
0060
ENDCHAR
STARTCHAR 540C
ENCODING 21516
SWIDTH 1040 0
DWIDTH 13 0
BBX 12 13 0 -2
BITMAP
FFF0
8010
8010
9F90
8010
8010
9F90
9090
9090
9090
9F90
8010
8070
ENDCHAR
STARTCHAR 540D
ENCODING 21517
SWIDTH 1040 0
DWIDTH 13 0
BBX 11 13 1 -2
BITMAP
0C00
1FC0
2040
DC80
0700
0E00
3000
DFE0
D020
1020
1020
1020
1FE0
ENDCHAR
STARTCHAR 540E
ENCODING 21518
SWIDTH 1040 0
DWIDTH 13 0
BBX 13 13 0 -2
BITMAP
00F0
7F00
4000
4000
7FF8
4000
4000
4FF0
4810
4810
8810
8810
0FF0
ENDCHAR
STARTCHAR 540F
ENCODING 21519
SWIDTH 1040 0
DWIDTH 13 0
BBX 13 13 0 -2
BITMAP
0600
FFF0
0600
7FE0
4620
4620
7FE0
0600
7600
7600
0E00
1B80
E078
ENDCHAR
STARTCHAR 5410
ENCODING 21520
SWIDTH 1040 0
DWIDTH 13 0
BBX 13 13 0 -2
BITMAP
0040
0040
F040
9040
97F8
9040
9040
9040
9040
F040
8040
0040
0FF8
ENDCHAR
STARTCHAR 5411
ENCODING 21521
SWIDTH 1040 0
DWIDTH 13 0
BBX 11 13 1 -2
BITMAP
0C00
1000
FFE0
8020
8020
BFA0
A0A0
A0A0
A0A0
BFA0
A020
8020
80E0
ENDCHAR
STARTCHAR 541B
ENCODING 21531
SWIDTH 1040 0
DWIDTH 13 0
BBX 13 13 0 -2
BITMAP
7FE0
0820
FFF8
0820
7FE0
0800
1000
3FF0
F010
D010
1010
1FF0
1000
ENDCHAR
STARTCHAR 541D
ENCODING 21533
SWIDTH 1040 0
DWIDTH 13 0
BBX 13 13 0 -2
BITMAP
0700
FFF8
1040
0880
0700
0880
3060
C018
FFF8
3FE0
2020
2020
3FE0
ENDCHAR
STARTCHAR 541F
ENCODING 21535
SWIDTH 1040 0
DWIDTH 13 0
BBX 13 13 0 -2
BITMAP
0080
E080
A340
A620
B818
A7E0
A000
EFF0
8FE0
8020
0020
0040
0380
ENDCHAR
STARTCHAR 5420
ENCODING 21536
SWIDTH 1040 0
DWIDTH 13 0
BBX 13 13 0 -2
BITMAP
0080
F090
9088
9080
9FF8
9080
9080
F340
8340
8340
0620
0620
1818
ENDCHAR
STARTCHAR 5426
ENCODING 21542
SWIDTH 1040 0
DWIDTH 13 0
BBX 13 12 0 -2
BITMAP
FFF8
0700
0EC0
3620
C610
0600
3FE0
2020
2020
2020
2020
3FE0
ENDCHAR
STARTCHAR 5429
ENCODING 21545
SWIDTH 1040 0
DWIDTH 13 0
BBX 13 13 0 -2
BITMAP
0340
F320
9310
9608
9608
9BF0
9090
F090
8090
8090
0310
0310
0670
ENDCHAR
STARTCHAR 542B
ENCODING 21547
SWIDTH 1040 0
DWIDTH 13 0
BBX 12 13 0 -2
BITMAP
0600
0B00
1080
2F40
C030
3FC0
0300
0E00
0FE0
7FE0
4020
4020
7FE0
ENDCHAR
STARTCHAR 542C
ENCODING 21548
SWIDTH 1040 0
DWIDTH 13 0
BBX 13 13 0 -2
BITMAP
0070
F7C0
9600
9600
97F8
9620
9620
F620
8620
8620
0820
0820
1020
ENDCHAR
STARTCHAR 542D
ENCODING 21549
SWIDTH 1040 0
DWIDTH 13 0
BBX 13 13 0 -2
BITMAP
0080
F080
9FF8
9000
93E0
9320
9320
F320
8320
8320
0628
0628
1818
ENDCHAR
STARTCHAR 542E
ENCODING 21550
SWIDTH 1040 0
DWIDTH 13 0
BBX 13 13 0 -2
BITMAP
0300
F300
9610
9610
9FF8
9008
9320
F320
8320
8320
0328
0628
1838
ENDCHAR
STARTCHAR 5436
ENCODING 21558
SWIDTH 1040 0
DWIDTH 13 0
BBX 13 13 0 -2
BITMAP
0040
0040
F7F8
9648
9648
9648
96A8
F718
8618
8608
0608
0608
0618
ENDCHAR
STARTCHAR 5438
ENCODING 21560
SWIDTH 1040 0
DWIDTH 13 0
BBX 13 13 0 -2
BITMAP
0FE0
0620
E620
A640
A770
A710
A690
E6A0
8EC0
8840
0860
0890
1708
ENDCHAR
STARTCHAR 5439
ENCODING 21561
SWIDTH 1040 0
DWIDTH 13 0
BBX 13 13 0 -2
BITMAP
0300
0300
F3F8
9608
9690
9880
9080
9080
93C0
F340
8340
0620
1818
ENDCHAR
STARTCHAR 543B
ENCODING 21563
SWIDTH 1040 0
DWIDTH 13 0
BBX 13 13 0 -2
BITMAP
0300
0300
F300
97F8
96A8
96A8
98A8
9348
9348
F348
8648
0090
0330
ENDCHAR
STARTCHAR 543C
ENCODING 21564
SWIDTH 1040 0
DWIDTH 13 0
BBX 13 13 0 -2
BITMAP
0FA0
E0A0
A320
A620
A620
A7A0
BE20
A620
A620
E620
8628
0628
0E18
ENDCHAR
STARTCHAR 543D
ENCODING 21565
SWIDTH 1040 0
DWIDTH 13 0
BBX 13 13 0 -2
BITMAP
0040
F640
9640
97F8
9640
9840
9040
F7F8
87C0
8040
0040
0040
0040
ENDCHAR
STARTCHAR 543E
ENCODING 21566
SWIDTH 1040 0
DWIDTH 13 0
BBX 12 13 0 -2
BITMAP
7FE0
0800
0800
7FC0
1040
1040
FFF0
0000
3FC0
3FC0
2040
2040
3FC0
ENDCHAR
STARTCHAR 5440
ENCODING 21568
SWIDTH 1040 0
DWIDTH 13 0
BBX 13 13 0 -2
BITMAP
0FF8
F320
9320
9320
9320
9FF8
90A0
F0A0
8120
8320
0320
0620
1860
ENDCHAR
STARTCHAR 5442
ENCODING 21570
SWIDTH 1040 0
DWIDTH 13 0
BBX 11 12 1 -2
BITMAP
7FC0
4040
4040
7FC0
0C00
1000
FFE0
8020
8020
8020
8020
FFE0
ENDCHAR
STARTCHAR 5446
ENCODING 21574
SWIDTH 1040 0
DWIDTH 13 0
BBX 12 13 0 -2
BITMAP
3FC0
2040
2040
2040
3FC0
2600
0600
FFF0
FE00
0600
0F00
36C0
C630
ENDCHAR
STARTCHAR 5448
ENCODING 21576
SWIDTH 1040 0
DWIDTH 13 0
BBX 12 13 0 -2
BITMAP
3FC0
2040
2040
3FC0
0000
0000
7FE0
0600
07C0
3FC0
0600
0600
FFF0
ENDCHAR
STARTCHAR 5449
ENCODING 21577
SWIDTH 1040 0
DWIDTH 13 0
BBX 13 13 0 -2
BITMAP
0FE0
4820
4820
4FE0
4000
7FE0
4020
0020
0038
FFF8
0880
1040
E030
ENDCHAR
STARTCHAR 544A
ENCODING 21578
SWIDTH 1040 0
DWIDTH 13 0
BBX 12 13 1 -2
BITMAP
4600
4600
7FE0
8600
0600
FFF0
0000
0000
7FE0
7FE0
4020
4020
7FE0
ENDCHAR
STARTCHAR 544E
ENCODING 21582
SWIDTH 1040 0
DWIDTH 13 0
BBX 13 13 0 -2
BITMAP
07F0
F610
9610
9610
97F0
9640
9640
F640
8660
8620
0820
0810
1008
ENDCHAR
STARTCHAR 5451
ENCODING 21585
SWIDTH 1040 0
DWIDTH 13 0
BBX 13 13 0 -2
BITMAP
00E0
7F00
0600
0600
FFF8
0880
1040
3FE0
F058
D058
1040
1040
1FC0
ENDCHAR
STARTCHAR 545F
ENCODING 21599
SWIDTH 1040 0
DWIDTH 13 0
BBX 13 13 0 -2
BITMAP
0040
0040
F7F8
9040
9040
9690
9310
90A0
90E0
F040
8090
0338
0FC8
ENDCHAR
STARTCHAR 5468
ENCODING 21608
SWIDTH 1040 0
DWIDTH 13 0
BBX 13 13 0 -2
BITMAP
7FF8
4308
4308
4FC8
4308
5FE8
4008
4FC8
4848
4848
4FC8
8808
8018
ENDCHAR
STARTCHAR 546A
ENCODING 21610
SWIDTH 1040 0
DWIDTH 13 0
BBX 13 12 0 -2
BITMAP
07F0
F610
9610
9610
9610
97F0
F340
8340
8340
0348
0648
1838
ENDCHAR
STARTCHAR 5470
ENCODING 21616
SWIDTH 1040 0
DWIDTH 13 0
BBX 13 13 0 -2
BITMAP
1080
5098
5EF0
5080
5088
7E88
E078
0000
3FE0
3FE0
2020
2020
3FE0
ENDCHAR
STARTCHAR 5471
ENCODING 21617
SWIDTH 1040 0
DWIDTH 13 0
BBX 13 13 0 -2
BITMAP
0070
F7E0
96A0
96A0
96A0
96A0
96A0
F6A0
86B0
8690
0890
08A8
37E8
ENDCHAR
STARTCHAR 5473
ENCODING 21619
SWIDTH 1040 0
DWIDTH 13 0
BBX 13 13 0 -2
BITMAP
0080
E080
AFF0
A080
A080
BFF8
A080
A3C0
A2A0
E6A0
8890
3088
0080
ENDCHAR
STARTCHAR 5475
ENCODING 21621
SWIDTH 1040 0
DWIDTH 13 0
BBX 13 13 0 -2
BITMAP
0FF8
F010
9010
97D0
9650
9650
9650
97D0
9610
F610
8010
0010
0030
ENDCHAR
STARTCHAR 5476
ENCODING 21622
SWIDTH 1040 0
DWIDTH 13 0
BBX 13 13 0 -2
BITMAP
0878
0808
E848
BFC8
A8A8
A8A8
A8A8
BB10
AB10
EB10
8628
0B28
1348
ENDCHAR
STARTCHAR 5477
ENCODING 21623
SWIDTH 1040 0
DWIDTH 13 0
BBX 13 13 0 -2
BITMAP
07F8
F648
9648
97F8
9648
9648
97F8
F640
8640
8040
0040
0040
0040
ENDCHAR
STARTCHAR 547B
ENCODING 21627
SWIDTH 1040 0
DWIDTH 13 0
BBX 13 13 0 -2
BITMAP
0040
0040
F7F8
9648
9648
97F8
9648
F648
8648
87F8
0640
0040
0040
ENDCHAR
STARTCHAR 547C
ENCODING 21628
SWIDTH 1040 0
DWIDTH 13 0
BBX 13 13 0 -2
BITMAP
0018
1FE0
E080
A890
A690
A6A0
A080
BFF8
A080
E080
8080
0080
0380
ENDCHAR
STARTCHAR 547D
ENCODING 21629
SWIDTH 1040 0
DWIDTH 13 0
BBX 12 13 0 -2
BITMAP
0600
0B00
1080
2040
DFB0
0000
7BE0
4B20
4B20
4B20
4B20
7B60
0300
ENDCHAR
STARTCHAR 5480
ENCODING 21632
SWIDTH 1040 0
DWIDTH 13 0
BBX 13 13 0 -2
BITMAP
07F0
F610
9610
9610
97F0
9610
9610
F7F0
8610
8610
0610
0610
1FF8
ENDCHAR
STARTCHAR 5484
ENCODING 21636
SWIDTH 1040 0
DWIDTH 13 0
BBX 13 13 0 -2
BITMAP
0080
E080
A890
A890
A890
AFF0
A080
E080
9088
9088
1088
1088
1FF8
ENDCHAR
STARTCHAR 5486
ENCODING 21638
SWIDTH 1040 0
DWIDTH 13 0
BBX 13 13 0 -2
BITMAP
0300
0300
F3F8
9608
96E8
9828
9028
93E8
9308
F318
8300
0308
00F8
ENDCHAR
STARTCHAR 548B
ENCODING 21643
SWIDTH 1040 0
DWIDTH 13 0
BBX 13 13 0 -2
BITMAP
0600
0600
E7F8
A880
A880
B0F0
A080
A080
A0F0
E0F0
8080
0080
0080
ENDCHAR
STARTCHAR 548C
ENCODING 21644
SWIDTH 1040 0
DWIDTH 13 0
BBX 13 13 0 -2
BITMAP
0E00
78F8
1088
1088
FE88
1088
3888
3688
5688
5688
5088
90F8
1080
ENDCHAR
STARTCHAR 548E
ENCODING 21646
SWIDTH 1040 0
DWIDTH 13 0
BBX 13 13 0 -2
BITMAP
2040
3840
2840
68A0
9310
2808
C7F8
0000
3FE0
3FE0
2020
2020
3FE0
ENDCHAR
STARTCHAR 548F
ENCODING 21647
SWIDTH 1040 0
DWIDTH 13 0
BBX 13 13 0 -2
BITMAP
0380
0040
F000
9780
9080
9098
9FE0
93C0
93A0
F3A0
8690
1888
0380
ENDCHAR
STARTCHAR 5490
ENCODING 21648
SWIDTH 1040 0
DWIDTH 13 0
BBX 13 13 0 -2
BITMAP
0310
F310
9310
96F8
9610
9E10
9690
F650
8650
8650
0610
0610
0630
ENDCHAR
STARTCHAR 5492
ENCODING 21650
SWIDTH 1040 0
DWIDTH 13 0
BBX 13 13 0 -2
BITMAP
78F0
4890
4890
4890
78F0
0000
1F80
1080
1080
1080
2088
2088
C078
ENDCHAR
STARTCHAR 54A2
ENCODING 21666
SWIDTH 1040 0
DWIDTH 13 0
BBX 12 13 0 -2
BITMAP
7BE0
4B20
4B20
7BE0
0000
7FE0
0000
FFF0
F800
0800
1FC0
0040
0780
ENDCHAR
STARTCHAR 54A4
ENCODING 21668
SWIDTH 1040 0
DWIDTH 13 0
BBX 13 13 0 -2
BITMAP
0080
0080
EFF8
A868
ABC8
A080
A080
AFF8
AF80
E080
8080
0088
0078
ENDCHAR
STARTCHAR 54A5
ENCODING 21669
SWIDTH 1040 0
DWIDTH 13 0
BBX 13 13 0 -2
BITMAP
0FF8
0080
F080
9310
9FF8
9008
9080
F080
80F0
8FF0
0080
0080
1FF8
ENDCHAR
STARTCHAR 54A8
ENCODING 21672
SWIDTH 1040 0
DWIDTH 13 0
BBX 13 13 0 -2
BITMAP
0600
8600
67F8
0890
08C0
2320
CE18
0000
3FE0
3FE0
2020
2020
3FE0
ENDCHAR
STARTCHAR 54AB
ENCODING 21675
SWIDTH 1040 0
DWIDTH 13 0
BBX 13 13 0 -2
BITMAP
7EF8
4688
4688
4688
7E88
50F8
5050
5050
5858
4848
4888
8700
80F8
ENDCHAR
STARTCHAR 54AC
ENCODING 21676
SWIDTH 1040 0
DWIDTH 13 0
BBX 13 13 0 -2
BITMAP
0080
F080
9FF8
9320
9320
9610
9B28
F340
83C0
8080
0340
0620
1818
ENDCHAR
STARTCHAR 54AF
ENCODING 21679
SWIDTH 1040 0
DWIDTH 13 0
BBX 13 13 0 -2
BITMAP
0300
03F0
F620
9720
98C0
90A0
9310
97F8
9B10
FB10
8310
0310
03F0
ENDCHAR
STARTCHAR 54B2
ENCODING 21682
SWIDTH 1040 0
DWIDTH 13 0
BBX 13 13 0 -2
BITMAP
0820
0620
E640
AFF0
A080
A080
BFF8
E080
8080
8080
0340
0620
1818
ENDCHAR
STARTCHAR 54B3
ENCODING 21683
SWIDTH 1040 0
DWIDTH 13 0
BBX 13 13 0 -2
BITMAP
0040
0040
F7F8
9080
9320
9740
9090
F320
8260
8640
1880
0360
1E18
ENDCHAR
STARTCHAR 54B8
ENCODING 21688
SWIDTH 1040 0
DWIDTH 13 0
BBX 13 13 0 -2
BITMAP
00A0
0090
7FF8
4080
5E90
4090
5EA0
56A0
56E0
5640
5E48
90A8
8718
ENDCHAR
STARTCHAR 54BC
ENCODING 21692
SWIDTH 1040 0
DWIDTH 13 0
BBX 11 13 1 -2
BITMAP
3F80
2080
2F80
2C80
2C80
FFE0
8020
BFA0
A0A0
A0A0
BFA0
A020
8060
ENDCHAR
STARTCHAR 54BD
ENCODING 21693
SWIDTH 1040 0
DWIDTH 13 0
BBX 13 13 0 -2
BITMAP
0FF8
0888
E888
A888
AFF8
A888
A888
A8C8
A928
AB28
EE18
0808
0FF8
ENDCHAR
STARTCHAR 54BE
ENCODING 21694
SWIDTH 1040 0
DWIDTH 13 0
BBX 13 13 0 -2
BITMAP
0080
F080
97F0
9090
90A0
9FF8
9080
F338
9320
8FE0
0300
0308
00F8
ENDCHAR
STARTCHAR 54C0
ENCODING 21696
SWIDTH 1040 0
DWIDTH 13 0
BBX 13 13 0 -2
BITMAP
0600
FFF8
0000
3FE0
2020
2020
3FE0
0800
16E0
16E0
E300
20C0
3830
ENDCHAR
STARTCHAR 54C1
ENCODING 21697
SWIDTH 1040 0
DWIDTH 13 0
BBX 13 13 0 -2
BITMAP
1FC0
1040
1040
1040
1FC0
0000
F8F8
8888
8888
8888
8888
8888
F8F8
ENDCHAR
STARTCHAR 54C2
ENCODING 21698
SWIDTH 1040 0
DWIDTH 13 0
BBX 13 13 0 -2
BITMAP
0FF8
0340
E340
AFF8
AB48
AB48
AB48
AE78
A878
E808
8808
0FF8
0800
ENDCHAR
STARTCHAR 54C4
ENCODING 21700
SWIDTH 1040 0
DWIDTH 13 0
BBX 13 13 0 -2
BITMAP
0320
F320
9320
97F0
9320
9320
9320
FFF8
8320
8320
0620
0610
1810
ENDCHAR
STARTCHAR 54C7
ENCODING 21703
SWIDTH 1040 0
DWIDTH 13 0
BBX 13 13 0 -2
BITMAP
0040
F040
97F0
9040
9040
9FF8
9040
F040
8070
87F0
0040
0040
0FF8
ENDCHAR
STARTCHAR 54C8
ENCODING 21704
SWIDTH 1040 0
DWIDTH 13 0
BBX 13 13 0 -2
BITMAP
0080
00C0
F340
9320
9610
9BE8
9000
9000
97F0
F7F0
8610
0610
07F0
ENDCHAR
STARTCHAR 54C9
ENCODING 21705
SWIDTH 1040 0
DWIDTH 13 0
BBX 13 13 0 -2
BITMAP
1080
7EA0
1090
1080
FFF8
0080
7E90
4690
46B0
46A0
7E48
40A8
0F18
ENDCHAR
STARTCHAR 54D8
ENCODING 21720
SWIDTH 1040 0
DWIDTH 13 0
BBX 13 13 0 -2
BITMAP
0300
F378
9600
9B00
9378
9610
9E10
F610
8610
8610
0610
0610
0630
ENDCHAR
STARTCHAR 54E1
ENCODING 21729
SWIDTH 1040 0
DWIDTH 13 0
BBX 13 13 0 -2
BITMAP
3FE0
2020
3FE0
7FF0
4010
7FF0
4010
7FF0
4010
4010
7FF0
18C0
E038
ENDCHAR
STARTCHAR 54E2
ENCODING 21730
SWIDTH 1040 0
DWIDTH 13 0
BBX 13 13 0 -2
BITMAP
1FF8
E080
AFF0
A080
BFF8
A000
A320
E320
8338
8FF8
0320
0620
1820
ENDCHAR
STARTCHAR 54E5
ENCODING 21733
SWIDTH 1040 0
DWIDTH 13 0
BBX 13 13 0 -2
BITMAP
7FF0
0020
3F20
2320
3F20
0060
FFF8
0020
3F20
3F20
2320
3F20
00E0
ENDCHAR
STARTCHAR 54E6
ENCODING 21734
SWIDTH 1040 0
DWIDTH 13 0
BBX 13 13 0 -2
BITMAP
0F50
0648
E648
A640
BFF8
A640
A748
AE48
AE78
E630
8660
06A8
0E18
ENDCHAR
STARTCHAR 54E8
ENCODING 21736
SWIDTH 1040 0
DWIDTH 13 0
BBX 12 13 0 -2
BITMAP
0890
0690
E6A0
A080
AFE0
A820
AFE0
E820
8820
8FE0
0820
0820
0860
ENDCHAR
STARTCHAR 54E9
ENCODING 21737
SWIDTH 1040 0
DWIDTH 13 0
BBX 13 13 0 -2
BITMAP
0FF0
E890
AFF0
A890
A890
AFF0
A080
E080
80F0
8FF0
0080
0080
1FF8
ENDCHAR
STARTCHAR 54ED
ENCODING 21741
SWIDTH 1040 0
DWIDTH 13 0
BBX 12 13 0 -2
BITMAP
FBF0
8B10
8B10
FBF0
8000
0640
0620
FFF0
FE00
0600
0B00
30C0
C030
ENDCHAR
STARTCHAR 54EE
ENCODING 21742
SWIDTH 1040 0
DWIDTH 13 0
BBX 13 13 0 -2
BITMAP
0080
0080
EFF0
A0A0
BFF8
A080
A7F0
A860
A8E0
E080
8FF8
0080
0380
ENDCHAR
STARTCHAR 54F2
ENCODING 21746
SWIDTH 1040 0
DWIDTH 13 0
BBX 13 13 0 -2
BITMAP
2018
FBE0
2300
23F8
FB20
2320
6620
0000
3FE0
3FE0
2020
2020
3FE0
ENDCHAR
STARTCHAR 54FA
ENCODING 21754
SWIDTH 1040 0
DWIDTH 13 0
BBX 13 13 0 -2
BITMAP
00A0
E090
BFF8
A080
AFF0
A890
AFF0
E890
8890
8FF0
0890
0890
08B0
ENDCHAR
STARTCHAR 54FD
ENCODING 21757
SWIDTH 1040 0
DWIDTH 13 0
BBX 13 13 0 -2
BITMAP
1FF8
E080
AFF0
A890
AFF0
A890
AFF0
E080
8E80
8E80
0300
06C0
1838
ENDCHAR
STARTCHAR 5504
ENCODING 21764
SWIDTH 1040 0
DWIDTH 13 0
BBX 13 13 0 -2
BITMAP
07F0
F610
9610
97F0
9610
9610
97F0
F610
8610
8610
07F0
0320
0E18
ENDCHAR
STARTCHAR 5506
ENCODING 21766
SWIDTH 1040 0
DWIDTH 13 0
BBX 12 13 0 -2
BITMAP
0080
0320
E7F0
A350
A340
AE70
A300
A3E0
A220
EE20
83C0
0340
1E30
ENDCHAR
STARTCHAR 5507
ENCODING 21767
SWIDTH 1040 0
DWIDTH 13 0
BBX 13 13 0 -2
BITMAP
7FF8
4000
5FF0
4B00
4B30
48C0
9E30
0000
3FE0
3FE0
2020
2020
3FE0
ENDCHAR
STARTCHAR 550F
ENCODING 21775
SWIDTH 1040 0
DWIDTH 13 0
BBX 13 13 0 -2
BITMAP
0738
00C0
EF38
A040
AFF8
A340
A3F8
A748
BF48
FB48
8348
0358
0040
ENDCHAR
STARTCHAR 5510
ENCODING 21776
SWIDTH 1040 0
DWIDTH 13 0
BBX 13 13 0 -2
BITMAP
0300
7FF8
4300
5FF0
4310
7FF8
4310
5FF0
5FF0
4000
5FF0
9010
1FF0
ENDCHAR
STARTCHAR 5514
ENCODING 21780
SWIDTH 1040 0
DWIDTH 13 0
BBX 13 13 0 -2
BITMAP
07F8
F080
9080
97F0
9090
9090
9FF8
F000
87F0
87F0
0610
0610
07F0
ENDCHAR
STARTCHAR 5516
ENCODING 21782
SWIDTH 1040 0
DWIDTH 13 0
BBX 13 13 0 -2
BITMAP
0FF8
E320
A320
AFF8
AB28
AB28
AB28
AB28
AB28
AFF8
E320
0320
1FF8
ENDCHAR
STARTCHAR 552E
ENCODING 21806
SWIDTH 1040 0
DWIDTH 13 0
BBX 12 13 0 -2
BITMAP
2080
2300
7FF0
C300
7FE0
4300
7FE0
4300
43F0
7FF0
2020
2020
3FE0
ENDCHAR
STARTCHAR 552F
ENCODING 21807
SWIDTH 1040 0
DWIDTH 13 0
BBX 13 13 0 -2
BITMAP
0620
F640
97F8
9E40
9640
97F0
9640
9640
9670
F7F0
8640
0640
07F8
ENDCHAR
STARTCHAR 5531
ENCODING 21809
SWIDTH 1040 0
DWIDTH 13 0
BBX 13 13 0 -2
BITMAP
07F0
0610
E7F0
A610
A7F0
A000
AFF8
E808
8808
8FF8
0808
0808
0FF8
ENDCHAR
STARTCHAR 5533
ENCODING 21811
SWIDTH 1040 0
DWIDTH 13 0
BBX 13 13 0 -2
BITMAP
0FF8
E000
AFF0
A810
AFF0
A840
A840
AFF8
A840
E840
88A0
1310
0E08
ENDCHAR
STARTCHAR 5538
ENCODING 21816
SWIDTH 1040 0
DWIDTH 13 0
BBX 13 13 0 -2
BITMAP
0040
00A0
F310
96E8
9000
97F8
9010
93E0
93E0
F020
86A8
0688
0878
ENDCHAR
STARTCHAR 5539
ENCODING 21817
SWIDTH 1040 0
DWIDTH 13 0
BBX 13 13 0 -2
BITMAP
0820
E820
BF50
A850
A888
AFC8
AB20
AB10
AB50
EB40
8B20
0B10
1710
ENDCHAR
STARTCHAR 553E
ENCODING 21822
SWIDTH 1040 0
DWIDTH 13 0
BBX 13 13 0 -2
BITMAP
0070
0FC0
0080
EFF0
A6A0
BFF8
A6A0
A6A0
A6B0
EFF0
8080
0080
1FF8
ENDCHAR
STARTCHAR 5540
ENCODING 21824
SWIDTH 1040 0
DWIDTH 13 0
BBX 13 13 0 -2
BITMAP
0FF8
0840
E840
ABF0
A840
AFF8
A840
A840
A870
EBF0
8840
1040
17F8
ENDCHAR
STARTCHAR 5544
ENCODING 21828
SWIDTH 1040 0
DWIDTH 13 0
BBX 13 12 0 -2
BITMAP
1FF8
E080
A388
AE90
A0A0
A340
AE60
AE50
E0D0
8748
1848
0780
ENDCHAR
STARTCHAR 5545
ENCODING 21829
SWIDTH 1040 0
DWIDTH 13 0
BBX 13 13 0 -2
BITMAP
0080
E0F0
A080
AFF0
A810
AFF0
A810
EFF0
8F80
8080
1FF8
0080
0080
ENDCHAR
STARTCHAR 5546
ENCODING 21830
SWIDTH 1040 0
DWIDTH 13 0
BBX 13 13 0 -2
BITMAP
0700
FFF8
1040
0880
7FF0
4890
5090
6070
4FF0
4F90
4890
4890
4FB0
ENDCHAR
STARTCHAR 554C
ENCODING 21836
SWIDTH 1040 0
DWIDTH 13 0
BBX 13 13 0 -2
BITMAP
0080
0080
EFF8
A808
AB28
A320
AE38
A000
A7F0
E7F0
8080
0080
0FF8
ENDCHAR
STARTCHAR 554F
ENCODING 21839
SWIDTH 1040 0
DWIDTH 13 0
BBX 13 13 0 -2
BITMAP
F8F8
8888
F8F8
8888
F8F8
8008
8008
9FC8
9048
9048
9048
9FC8
8018
ENDCHAR
STARTCHAR 5553
ENCODING 21843
SWIDTH 1040 0
DWIDTH 13 0
BBX 13 13 0 -2
BITMAP
FB00
03F8
7B10
4E90
7860
4090
4708
8008
BFE8
3FE0
2020
2020
3FE0
ENDCHAR
STARTCHAR 5556
ENCODING 21846
SWIDTH 1040 0
DWIDTH 13 0
BBX 13 13 0 -2
BITMAP
0080
0688
E688
A8D0
A320
AE98
A080
A690
A690
E690
88C0
0720
1818
ENDCHAR
STARTCHAR 5557
ENCODING 21847
SWIDTH 1040 0
DWIDTH 13 0
BBX 13 13 0 -2
BITMAP
0300
F3F8
9308
9608
9870
9000
9080
F7B8
8638
8608
07B8
0608
07F8
ENDCHAR
STARTCHAR 555C
ENCODING 21852
SWIDTH 1040 0
DWIDTH 13 0
BBX 13 13 0 -2
BITMAP
0FF8
0088
EB50
A730
A8C8
A000
AFF8
A088
ABD0
EB50
8620
0730
08C8
ENDCHAR
STARTCHAR 555D
ENCODING 21853
SWIDTH 1040 0
DWIDTH 13 0
BBX 13 13 0 -2
BITMAP
0780
1E78
E648
A648
BFC8
A648
AE48
AE48
B748
F778
96C0
2630
0600
ENDCHAR
STARTCHAR 5563
ENCODING 21859
SWIDTH 1040 0
DWIDTH 13 0
BBX 13 13 0 -2
BITMAP
0800
0838
EFA8
B328
AFE8
A328
ABA8
AB28
AB28
EBE8
9F38
0020
0020
ENDCHAR
STARTCHAR 557B
ENCODING 21883
SWIDTH 1040 0
DWIDTH 13 0
BBX 12 13 0 -2
BITMAP
0600
7FE0
30C0
FFF0
8610
3FC0
2640
26C0
26C0
0600
7FE0
4020
7FE0
ENDCHAR
STARTCHAR 557C
ENCODING 21884
SWIDTH 1040 0
DWIDTH 13 0
BBX 13 13 0 -2
BITMAP
0080
0FF0
E620
A340
BFF8
B088
BFF8
A890
A890
E890
8890
08B0
0080
ENDCHAR
STARTCHAR 557E
ENCODING 21886
SWIDTH 1040 0
DWIDTH 13 0
BBX 13 13 0 -2
BITMAP
0720
1E20
E6A8
BFA8
A6A8
A670
AF20
AF20
B670
F650
9650
2688
0708
ENDCHAR
STARTCHAR 5580
ENCODING 21888
SWIDTH 1040 0
DWIDTH 13 0
BBX 13 13 0 -2
BITMAP
0080
1FF8
F308
B3E8
A620
AB40
A080
A340
A378
EFF8
8610
0610
07F0
ENDCHAR
STARTCHAR 5583
ENCODING 21891
SWIDTH 1040 0
DWIDTH 13 0
BBX 13 13 0 -2
BITMAP
0040
0FF8
E040
AFF8
AB28
A8C8
ABF8
A848
A848
EBF8
8848
0848
0858
ENDCHAR
STARTCHAR 5584
ENCODING 21892
SWIDTH 1040 0
DWIDTH 13 0
BBX 12 13 0 -2
BITMAP
1080
7FE0
0600
3FC0
0600
7FE0
1080
0B00
0BF0
FFF0
2040
2040
3FC0
ENDCHAR
STARTCHAR 5587
ENCODING 21895
SWIDTH 1040 0
DWIDTH 13 0
BBX 13 13 0 -2
BITMAP
0608
0608
FFA8
A628
BFA8
A6A8
A6A8
BFA8
A628
E628
8F08
1688
6618
ENDCHAR
STARTCHAR 5589
ENCODING 21897
SWIDTH 1040 0
DWIDTH 13 0
BBX 13 13 0 -2
BITMAP
06F0
E610
A610
ABF8
A880
B880
ABF0
AE20
A838
EBF8
8820
0850
0B88
ENDCHAR
STARTCHAR 558A
ENCODING 21898
SWIDTH 1040 0
DWIDTH 13 0
BBX 13 13 0 -2
BITMAP
0050
0048
EFF8
A840
AFC0
A848
AFC8
A8D0
A8B0
EFA0
8828
08D8
1708
ENDCHAR
STARTCHAR 558B
ENCODING 21899
SWIDTH 1040 0
DWIDTH 13 0
BBX 13 13 0 -2
BITMAP
0B20
EB20
BFF8
AB20
ABE0
A800
AFF8
E080
A0F8
9FF8
03C0
06A0
1898
ENDCHAR
STARTCHAR 5598
ENCODING 21912
SWIDTH 1040 0
DWIDTH 13 0
BBX 13 13 0 -2
BITMAP
0080
0890
E890
AFF0
A000
BFF8
A300
AFF0
AB50
EB50
8B50
0B50
0830
ENDCHAR
STARTCHAR 5599
ENCODING 21913
SWIDTH 1040 0
DWIDTH 13 0
BBX 13 13 0 -2
BITMAP
0300
03E0
E640
A7C0
A080
AFF8
A0C0
AF40
AF58
E0D8
8F60
00D0
0748
ENDCHAR
STARTCHAR 559A
ENCODING 21914
SWIDTH 1040 0
DWIDTH 13 0
BBX 13 13 0 -2
BITMAP
03E0
0E20
E040
AFF0
AB50
AB50
AE70
E890
A898
9FF8
0340
0620
1818
ENDCHAR
STARTCHAR 559C
ENCODING 21916
SWIDTH 1040 0
DWIDTH 13 0
BBX 12 13 0 -2
BITMAP
0600
FFF0
0600
7FE0
2040
3FC0
1B80
FFF0
FFF0
0000
3FC0
2040
3FC0
ENDCHAR
STARTCHAR 559D
ENCODING 21917
SWIDTH 1040 0
DWIDTH 13 0
BBX 13 13 0 -2
BITMAP
0FF0
0810
EFF0
A810
AFF0
A600
A7F8
E708
8FE8
8BE8
0B08
00E8
0010
ENDCHAR
STARTCHAR 559E
ENCODING 21918
SWIDTH 1040 0
DWIDTH 13 0
BBX 13 13 0 -2
BITMAP
0778
0848
EFC8
A8C8
AFC8
A8C8
AFC8
A848
AF48
EF48
8858
0F40
0040
ENDCHAR
STARTCHAR 559F
ENCODING 21919
SWIDTH 1040 0
DWIDTH 13 0
BBX 13 13 0 -2
BITMAP
07F8
F648
97F8
9648
97F8
9310
93F0
F310
8310
83F0
0310
0310
0630
ENDCHAR
STARTCHAR 55A7
ENCODING 21927
SWIDTH 1040 0
DWIDTH 13 0
BBX 13 13 0 -2
BITMAP
00C0
EFF8
A808
A7F0
A000
A7F0
A610
E7F0
8610
8610
07F0
0000
1FF8
ENDCHAR
STARTCHAR 55A8
ENCODING 21928
SWIDTH 1040 0
DWIDTH 13 0
BBX 13 13 0 -2
BITMAP
0040
F7F8
9000
93F0
9310
9310
97F8
F608
86A8
86A8
00A0
0328
0E18
ENDCHAR
STARTCHAR 55A9
ENCODING 21929
SWIDTH 1040 0
DWIDTH 13 0
BBX 13 13 0 -2
BITMAP
0080
0340
E620
BBD8
A000
AF28
AB28
AF50
AB50
AB50
EF50
8B28
1728
ENDCHAR
STARTCHAR 55AA
ENCODING 21930
SWIDTH 1040 0
DWIDTH 13 0
BBX 13 13 0 -2
BITMAP
0600
FFF0
0600
76E0
56A0
76E0
0600
FFF8
E810
2810
2660
2380
F870
ENDCHAR
STARTCHAR 55AB
ENCODING 21931
SWIDTH 1040 0
DWIDTH 13 0
BBX 13 13 0 -2
BITMAP
0678
EF28
A628
AF28
A628
AFD8
A080
E080
A0F8
9FF8
0340
0620
1818
ENDCHAR
STARTCHAR 55AC
ENCODING 21932
SWIDTH 1040 0
DWIDTH 13 0
BBX 13 13 0 -2
BITMAP
03E0
3F00
0600
FFF8
1FC0
28A0
CF98
7FF0
4010
4010
4F90
4890
4FB0
ENDCHAR
STARTCHAR 55AE
ENCODING 21934
SWIDTH 1040 0
DWIDTH 13 0
BBX 12 13 0 -2
BITMAP
7BE0
4B20
7BE0
3FC0
2640
3FC0
2640
3FC0
3E00
0600
FFF0
0600
0600
ENDCHAR
STARTCHAR 55B0
ENCODING 21936
SWIDTH 1040 0
DWIDTH 13 0
BBX 13 13 0 -2
BITMAP
0080
0340
E620
BFF8
A620
A7E0
A620
A7E0
A680
E680
86B0
0640
0F30
ENDCHAR
STARTCHAR 55B6
ENCODING 21942
SWIDTH 1040 0
DWIDTH 13 0
BBX 13 13 0 -2
BITMAP
2620
1340
FFF8
8008
9FC8
1040
1FC0
0E00
0FE0
3FE0
2020
2020
3FE0
ENDCHAR
STARTCHAR 55C4
ENCODING 21956
SWIDTH 1040 0
DWIDTH 13 0
BBX 13 13 0 -2
BITMAP
1FF8
0080
E7F0
A610
A7F0
A610
A7F0
A300
A3F0
E7F0
9B10
00E0
1F18
ENDCHAR
STARTCHAR 55C5
ENCODING 21957
SWIDTH 1040 0
DWIDTH 13 0
BBX 13 13 0 -2
BITMAP
00C0
0FF0
E810
AFF0
A810
AFF0
A810
AFF0
AFB0
E0B0
9FF8
0760
1818
ENDCHAR
STARTCHAR 55C7
ENCODING 21959
SWIDTH 1040 0
DWIDTH 13 0
BBX 12 13 0 -2
BITMAP
0600
FFF0
2640
56A0
56A0
FFF0
0000
7FE0
50A0
50A0
5FA0
4020
7FE0
ENDCHAR
STARTCHAR 55D4
ENCODING 21972
SWIDTH 1040 0
DWIDTH 13 0
BBX 13 13 0 -2
BITMAP
0618
07E0
E608
A7F8
A310
ABF0
AB10
ABF0
AB10
EB10
8FF8
00A0
0F18
ENDCHAR
STARTCHAR 55DA
ENCODING 21978
SWIDTH 1040 0
DWIDTH 13 0
BBX 13 13 0 -2
BITMAP
00C0
F7F0
9610
9610
97F0
9600
97F8
F600
87F8
87F8
16A8
16A8
26B8
ENDCHAR
STARTCHAR 55DC
ENCODING 21980
SWIDTH 1040 0
DWIDTH 13 0
BBX 13 13 0 -2
BITMAP
0080
0FF0
F0A0
9FF8
9380
9FF0
9308
F0F8
80F8
8000
0FF0
0810
0FF0
ENDCHAR
STARTCHAR 55DF
ENCODING 21983
SWIDTH 1040 0
DWIDTH 13 0
BBX 13 13 0 -2
BITMAP
0310
00A0
EFF8
A040
A7F8
A040
AFF8
A300
A3F8
E3F8
8640
1840
07F8
ENDCHAR
STARTCHAR 55E3
ENCODING 21987
SWIDTH 1040 0
DWIDTH 13 0
BBX 13 13 0 -2
BITMAP
F000
97F8
9008
F3E8
0008
FBE8
AB28
AB28
AB28
FBE8
AB08
A808
A838
ENDCHAR
STARTCHAR 55E4
ENCODING 21988
SWIDTH 1040 0
DWIDTH 13 0
BBX 13 13 0 -2
BITMAP
0080
E890
AFF0
A600
BFF8
A080
AFF0
E890
8890
8FF0
0090
00F8
1F88
ENDCHAR
STARTCHAR 55F7
ENCODING 22007
SWIDTH 1040 0
DWIDTH 13 0
BBX 13 13 0 -2
BITMAP
0640
E640
AF40
A678
BF88
A6C8
BF50
A850
AF70
EF20
8B30
0B48
1788
ENDCHAR
STARTCHAR 55F9
ENCODING 22009
SWIDTH 1040 0
DWIDTH 13 0
BBX 13 13 0 -2
BITMAP
0020
F3F8
AE20
B0F8
AEA8
A0F8
BEA8
A6F8
A6E0
E620
07F8
0620
1BF8
ENDCHAR
STARTCHAR 55FD
ENCODING 22013
SWIDTH 1040 0
DWIDTH 13 0
BBX 13 13 0 -2
BITMAP
0640
1FC0
E678
BFC8
B690
B6A0
BFA0
E620
8720
8F20
16D0
6648
0688
ENDCHAR
STARTCHAR 55FE
ENCODING 22014
SWIDTH 1040 0
DWIDTH 13 0
BBX 13 13 0 -2
BITMAP
0620
0620
FFB8
A840
A820
AF38
AB50
AB10
AB18
EB78
8B10
0B28
1748
ENDCHAR
STARTCHAR 5606
ENCODING 22022
SWIDTH 1040 0
DWIDTH 13 0
BBX 13 13 0 -2
BITMAP
0620
1FF8
E620
AFF0
A890
AFF0
A080
AFF0
AF80
E080
8FF8
0340
1E38
ENDCHAR
STARTCHAR 5609
ENCODING 22025
SWIDTH 1040 0
DWIDTH 13 0
BBX 13 13 0 -2
BITMAP
0600
FFF8
0600
3FE0
2020
7FF0
0880
FFF8
F000
1000
FEF8
2688
CEF8
ENDCHAR
STARTCHAR 5614
ENCODING 22036
SWIDTH 1040 0
DWIDTH 13 0
BBX 13 13 0 -2
BITMAP
0FF8
E800
A8F0
A890
A8F0
A800
AFB8
AEA8
AEA8
EEA8
8FB8
0800
0FF8
ENDCHAR
STARTCHAR 5616
ENCODING 22038
SWIDTH 1040 0
DWIDTH 13 0
BBX 13 13 0 -2
BITMAP
0080
EFF8
A080
A7F0
A080
BFF8
A810
EFF0
8810
8810
0FF0
0620
1818
ENDCHAR
STARTCHAR 5617
ENCODING 22039
SWIDTH 1040 0
DWIDTH 13 0
BBX 12 13 0 -2
BITMAP
2640
1680
FFF0
9090
9F90
0000
47C0
7E00
4010
4010
3FF0
2020
3FE0
ENDCHAR
STARTCHAR 5618
ENCODING 22040
SWIDTH 1040 0
DWIDTH 13 0
BBX 13 13 0 -2
BITMAP
0300
03E0
E300
AFF8
AB00
AFF8
AB00
A8F0
A8F0
E800
8EA8
13B0
07F8
ENDCHAR
STARTCHAR 561B
ENCODING 22043
SWIDTH 1040 0
DWIDTH 13 0
BBX 13 13 0 -2
BITMAP
0300
3FF8
E000
A840
BFF8
A840
AB50
EB50
EB50
2B50
4B50
5B58
AE40
ENDCHAR
STARTCHAR 5629
ENCODING 22057
SWIDTH 1040 0
DWIDTH 13 0
BBX 13 13 0 -2
BITMAP
0620
1FF8
E620
AFF0
A6A0
BFF8
A6A0
EFF0
8F80
8080
1FF8
0080
0080
ENDCHAR
STARTCHAR 562F
ENCODING 22063
SWIDTH 1040 0
DWIDTH 13 0
BBX 13 13 0 -2
BITMAP
0FF0
E090
AFF8
A090
AFF0
B6A8
BEB8
F088
9088
9FF8
1088
3EB8
26A8
ENDCHAR
STARTCHAR 5631
ENCODING 22065
SWIDTH 1040 0
DWIDTH 13 0
BBX 13 13 0 -2
BITMAP
0FF8
E808
AFF8
A840
ABF8
AB48
ABF8
E840
8878
8FF8
16A8
17E8
2638
ENDCHAR
STARTCHAR 5632
ENCODING 22066
SWIDTH 1040 0
DWIDTH 13 0
BBX 13 13 0 -2
BITMAP
0678
EFC8
A648
AFC8
A8F8
AFC8
A8C8
AFF8
AE48
E648
9FC8
0648
0698
ENDCHAR
STARTCHAR 5634
ENCODING 22068
SWIDTH 1040 0
DWIDTH 13 0
BBX 13 13 0 -2
BITMAP
0320
EBB8
AB20
AFB8
A3E0
A640
BFF0
E890
8890
8FF0
0890
0FF0
1010
ENDCHAR
STARTCHAR 5636
ENCODING 22070
SWIDTH 1040 0
DWIDTH 13 0
BBX 13 13 0 -2
BITMAP
0B18
EB70
BFC0
AB40
AF78
AB50
AF50
AB50
AB50
FFD0
8B50
08D0
1090
ENDCHAR
STARTCHAR 5638
ENCODING 22072
SWIDTH 1040 0
DWIDTH 13 0
BBX 13 13 0 -2
BITMAP
0800
0800
EFF8
BB50
AB50
BFF8
AB50
AB50
AB58
FFF8
9690
1648
2648
ENDCHAR
STARTCHAR 5642
ENCODING 22082
SWIDTH 1040 0
DWIDTH 13 0
BBX 13 13 0 -2
BITMAP
0620
1FF8
E340
AFF0
AB50
AE70
A810
AFF0
AFE0
E020
8FF8
0620
0360
ENDCHAR
STARTCHAR 564C
ENCODING 22092
SWIDTH 1040 0
DWIDTH 13 0
BBX 12 13 0 -2
BITMAP
0620
0340
EFF0
A890
AFF0
A890
AFF0
E620
8620
87E0
0620
0620
07E0
ENDCHAR
STARTCHAR 564E
ENCODING 22094
SWIDTH 1040 0
DWIDTH 13 0
BBX 13 13 0 -2
BITMAP
0080
EFF0
A080
BFF8
B008
AFF0
A000
EFF0
8810
8810
0FF0
0760
1FF8
ENDCHAR
STARTCHAR 5650
ENCODING 22096
SWIDTH 1040 0
DWIDTH 13 0
BBX 12 13 0 -2
BITMAP
FBF0
8B10
FBF0
0000
7FE0
0600
FFF0
0000
FBF0
FBF0
8B10
8B10
FBF0
ENDCHAR
STARTCHAR 565B
ENCODING 22107
SWIDTH 1040 0
DWIDTH 13 0
BBX 13 13 0 -2
BITMAP
0080
06F0
E680
BFF8
A888
AEA8
ABC8
AFF8
A888
E888
8BC8
0EB8
0FF8
ENDCHAR
STARTCHAR 5664
ENCODING 22116
SWIDTH 1040 0
DWIDTH 13 0
BBX 13 13 0 -2
BITMAP
0620
1FF8
E620
AF70
B6A8
A620
AFF0
A000
BFF8
BFF8
E890
8888
1388
ENDCHAR
STARTCHAR 5668
ENCODING 22120
SWIDTH 1040 0
DWIDTH 13 0
BBX 13 13 0 -2
BITMAP
78F0
4890
4890
78F0
0700
FFF8
0880
3060
3878
F8F8
4890
4890
78F0
ENDCHAR
STARTCHAR 566A
ENCODING 22122
SWIDTH 1040 0
DWIDTH 13 0
BBX 13 13 0 -2
BITMAP
07E0
0620
E7E0
A000
BF78
B348
BF78
E080
80F8
9FF8
03C0
06A0
1898
ENDCHAR
STARTCHAR 566B
ENCODING 22123
SWIDTH 1040 0
DWIDTH 13 0
BBX 13 13 0 -2
BITMAP
00C0
07F0
E320
AFF8
A610
A7F0
A610
A7F0
A7C0
E040
8B48
0B28
10E8
ENDCHAR
STARTCHAR 566C
ENCODING 22124
SWIDTH 1040 0
DWIDTH 13 0
BBX 13 13 0 -2
BITMAP
0820
EF38
B650
A610
BFF8
A080
A6A0
E6A0
8AF0
8BD0
1088
0080
1FF8
ENDCHAR
STARTCHAR 5674
ENCODING 22132
SWIDTH 1040 0
DWIDTH 13 0
BBX 13 13 0 -2
BITMAP
0080
0FF0
E6A0
BFF8
A620
AFF0
A810
AFF0
A810
E810
8FF0
0340
1E38
ENDCHAR
STARTCHAR 5678
ENCODING 22136
SWIDTH 1040 0
DWIDTH 13 0
BBX 13 13 0 -2
BITMAP
06F8
E620
BFC0
A678
B6C8
B6F8
BFC8
B678
A648
E648
86F8
0750
0088
ENDCHAR
STARTCHAR 567A
ENCODING 22138
SWIDTH 1040 0
DWIDTH 13 0
BBX 13 13 0 -2
BITMAP
0618
1FE0
EB40
AB40
BFF8
A650
BFD0
A650
A750
EF50
96D0
2690
0710
ENDCHAR
STARTCHAR 5680
ENCODING 22144
SWIDTH 1040 0
DWIDTH 13 0
BBX 13 13 0 -2
BITMAP
0080
1FF8
F648
A750
A8E8
AFF0
AB50
AFF0
AFF0
E000
9FF8
0040
03C0
ENDCHAR
STARTCHAR 5686
ENCODING 22150
SWIDTH 1040 0
DWIDTH 13 0
BBX 13 13 0 -2
BITMAP
0320
EFF8
A320
A080
BFF8
A620
A7E0
E000
9FF8
9FF8
17E8
1628
17F8
ENDCHAR
STARTCHAR 5687
ENCODING 22151
SWIDTH 1040 0
DWIDTH 13 0
BBX 13 13 0 -2
BITMAP
0620
E620
AF70
A620
BFF8
A6A0
AEB0
AFF0
B7E8
F7E8
96A8
26A8
0F60
ENDCHAR
STARTCHAR 568A
ENCODING 22154
SWIDTH 1040 0
DWIDTH 13 0
BBX 13 13 0 -2
BITMAP
0080
07E0
E620
A7E0
A620
AFF0
A890
AFF0
AE20
E620
9FF8
0620
1820
ENDCHAR
STARTCHAR 568F
ENCODING 22159
SWIDTH 1040 0
DWIDTH 13 0
BBX 13 13 0 -2
BITMAP
0080
EFF0
A080
BFF8
B6A8
A7E0
A6A0
EFF8
9F88
9088
10E0
1880
27F8
ENDCHAR
STARTCHAR 5694
ENCODING 22164
SWIDTH 1040 0
DWIDTH 13 0
BBX 13 13 0 -2
BITMAP
0080
EFF0
A080
BFF8
B6A8
A7E0
A310
EFF8
9F88
9088
10E0
1880
27F8
ENDCHAR
STARTCHAR 56A0
ENCODING 22176
SWIDTH 1040 0
DWIDTH 13 0
BBX 13 13 0 -2
BITMAP
1F88
F6A8
B6A8
BEA8
A628
AB28
BFA8
A628
A7A8
FFA8
9688
0F08
1F98
ENDCHAR
STARTCHAR 56A2
ENCODING 22178
SWIDTH 1040 0
DWIDTH 13 0
BBX 13 13 0 -2
BITMAP
0600
FFF8
2640
FFF0
9090
7FE0
1080
FFF8
F600
3600
5670
9380
7878
ENDCHAR
STARTCHAR 56A5
ENCODING 22181
SWIDTH 1040 0
DWIDTH 13 0
BBX 13 13 0 -2
BITMAP
0620
1FF8
E620
A7E0
A620
BFF8
A660
BFE8
A628
E638
8B50
0B48
1328
ENDCHAR
STARTCHAR 56AE
ENCODING 22190
SWIDTH 1040 0
DWIDTH 13 0
BBX 13 13 0 -2
BITMAP
2F78
FB50
6F70
F850
2F48
CB50
0600
FFF8
8008
8008
9FC8
9048
9FD8
ENDCHAR
STARTCHAR 56B4
ENCODING 22196
SWIDTH 1040 0
DWIDTH 13 0
BBX 13 13 0 -2
BITMAP
3EF0
2690
7FF8
4040
5F40
4878
7F90
56D0
5760
5F20
5620
BE50
8690
ENDCHAR
STARTCHAR 56B6
ENCODING 22198
SWIDTH 1040 0
DWIDTH 13 0
BBX 13 13 0 -2
BITMAP
0F70
0B50
EF70
AB50
AF70
AB50
AF70
BB58
AB58
EFF8
8320
00C0
0F30
ENDCHAR
STARTCHAR 56BC
ENCODING 22204
SWIDTH 1040 0
DWIDTH 13 0
BBX 13 13 0 -2
BITMAP
0070
EF90
B088
BEF8
A648
BEF8
A610
BEF8
A0F0
E010
A890
3E90
6630
ENDCHAR
STARTCHAR 56C0
ENCODING 22208
SWIDTH 1040 0
DWIDTH 13 0
BBX 13 13 0 -2
BITMAP
0620
1FF8
E620
BFF8
B6A8
BFF8
B690
BFE8
A618
E610
9FF8
0650
0630
ENDCHAR
STARTCHAR 56C1
ENCODING 22209
SWIDTH 1040 0
DWIDTH 13 0
BBX 13 13 0 -2
BITMAP
0FF8
0320
E3E0
A320
A7F0
A020
BFF8
AB50
AB50
EF70
8B50
1FF0
0310
ENDCHAR
STARTCHAR 56C2
ENCODING 22210
SWIDTH 1040 0
DWIDTH 13 0
BBX 13 13 0 -2
BITMAP
78F0
4890
FFF8
0E00
3FE0
2020
3FE0
2020
2020
3FE0
F8F8
4890
78F0
ENDCHAR
STARTCHAR 56C3
ENCODING 22211
SWIDTH 1040 0
DWIDTH 13 0
BBX 13 13 0 -2
BITMAP
0648
1FD0
EB78
AB50
AB50
B6F8
A650
BFD0
A658
E678
8F50
16D0
2678
ENDCHAR
STARTCHAR 56C8
ENCODING 22216
SWIDTH 1040 0
DWIDTH 13 0
BBX 13 13 0 -2
BITMAP
0620
1FF8
E620
BF78
AB28
BBE8
A628
BFD8
A018
E000
9FF8
0710
1FE8
ENDCHAR
STARTCHAR 56CE
ENCODING 22222
SWIDTH 1040 0
DWIDTH 13 0
BBX 13 13 0 -2
BITMAP
1E50
1688
F688
BFF8
B6A8
B6F8
BEA8
B6F8
B690
F690
9EF0
1690
23F0
ENDCHAR
STARTCHAR 56D1
ENCODING 22225
SWIDTH 1040 0
DWIDTH 13 0
BBX 13 13 0 -2
BITMAP
1FF8
1080
FEB8
B080
B7F8
B6A8
B7F8
FEA8
96A8
97E8
1088
20A8
27D8
ENDCHAR
STARTCHAR 56D3
ENCODING 22227
SWIDTH 1040 0
DWIDTH 13 0
BBX 13 13 0 -2
BITMAP
0600
E678
BFA8
A628
BFA8
A6D8
BF80
AFF8
AB50
EB50
8EB0
0810
0FF0
ENDCHAR
STARTCHAR 56D7
ENCODING 22231
SWIDTH 1040 0
DWIDTH 13 0
BBX 13 13 0 -2
BITMAP
FFF8
8008
8008
8008
8008
8008
8008
8008
8008
8008
8008
FFF8
8000
ENDCHAR
STARTCHAR 56D8
ENCODING 22232
SWIDTH 1040 0
DWIDTH 13 0
BBX 13 13 0 -2
BITMAP
FFF8
8008
9FC8
9048
9048
9FC8
9008
9008
9028
9028
8FE8
8008
8018
ENDCHAR
STARTCHAR 56DA
ENCODING 22234
SWIDTH 1040 0
DWIDTH 13 0
BBX 12 13 0 -2
BITMAP
FFF0
8010
8610
8610
8610
8610
8B10
8B10
9390
9090
A050
8010
FFF0
ENDCHAR
STARTCHAR 56DB
ENCODING 22235
SWIDTH 1040 0
DWIDTH 13 0
BBX 12 12 0 -2
BITMAP
FFF0
8B10
8B10
8B10
8B10
9310
E0F0
80F0
8010
8010
FFF0
8000
ENDCHAR
STARTCHAR 56DE
ENCODING 22238
SWIDTH 1040 0
DWIDTH 13 0
BBX 12 13 0 -2
BITMAP
FFF0
8010
8010
9F90
9090
9090
9090
9F90
9010
9010
8010
FFF0
8000
ENDCHAR
STARTCHAR 56E0
ENCODING 22240
SWIDTH 1040 0
DWIDTH 13 0
BBX 13 13 0 -2
BITMAP
FFF8
8008
8608
8608
BFE8
8608
8608
8B08
9388
9088
A068
8008
FFF8
ENDCHAR
STARTCHAR 56E3
ENCODING 22243
SWIDTH 1040 0
DWIDTH 13 0
BBX 13 13 0 -2
BITMAP
FFF8
8088
8088
BFE8
8088
9088
8888
8888
8888
8088
8788
8008
FFF8
ENDCHAR
STARTCHAR 56EE
ENCODING 22254
SWIDTH 1040 0
DWIDTH 13 0
BBX 13 13 0 -2
BITMAP
FFF8
8008
8B08
8B08
9368
B3C8
9308
9308
9328
9328
93E8
8008
FFF8
ENDCHAR
STARTCHAR 56F0
ENCODING 22256
SWIDTH 1040 0
DWIDTH 13 0
BBX 12 13 0 -2
BITMAP
FFF0
8010
8610
BFD0
8610
8F10
8F10
9690
B6D0
A650
8610
8010
FFF0
ENDCHAR
STARTCHAR 56F2
ENCODING 22258
SWIDTH 1040 0
DWIDTH 13 0
BBX 13 13 0 -2
BITMAP
FFF8
8888
8888
BFE8
8888
8888
BFE8
8888
8888
8888
9088
8008
FFF8
ENDCHAR
STARTCHAR 56F3
ENCODING 22259
SWIDTH 1040 0
DWIDTH 13 0
BBX 13 13 0 -2
BITMAP
FFF8
8008
A628
9328
8048
9888
8708
8688
8EC8
8848
B048
8008
FFF8
ENDCHAR
STARTCHAR 56F9
ENCODING 22265
SWIDTH 1040 0
DWIDTH 13 0
BBX 13 13 0 -2
BITMAP
FFF8
8608
8608
8B08
9088
E068
BFC8
8848
8848
8848
8BC8
8808
FFF8
ENDCHAR
STARTCHAR 56FA
ENCODING 22266
SWIDTH 1040 0
DWIDTH 13 0
BBX 12 13 0 -2
BITMAP
FFF0
8010
8610
BFF0
8610
8610
9FD0
9050
9050
9050
9FD0
8010
FFF0
ENDCHAR
STARTCHAR 56FD
ENCODING 22269
SWIDTH 1040 0
DWIDTH 13 0
BBX 12 13 0 -2
BITMAP
FFF0
8010
BFD0
8610
8610
9F90
8610
8690
86D0
8650
BFD0
8010
FFF0
ENDCHAR
STARTCHAR 56FF
ENCODING 22271
SWIDTH 1040 0
DWIDTH 13 0
BBX 13 13 0 -2
BITMAP
FFF8
8608
BFE8
8808
8FC8
B848
8FC8
8848
8848
8FC8
8848
88C8
FFF8
ENDCHAR
STARTCHAR 5700
ENCODING 22272
SWIDTH 1040 0
DWIDTH 13 0
BBX 13 13 0 -2
BITMAP
FFF8
8888
8888
B0E8
8608
BFE8
8608
87C8
8848
8848
8848
9388
FFF8
ENDCHAR
STARTCHAR 5703
ENCODING 22275
SWIDTH 1040 0
DWIDTH 13 0
BBX 12 13 0 -2
BITMAP
FFF0
8690
BFD0
8610
BFD0
A650
BFD0
A650
A650
BFD0
A650
A650
FFF0
ENDCHAR
STARTCHAR 5704
ENCODING 22276
SWIDTH 1040 0
DWIDTH 13 0
BBX 13 13 0 -2
BITMAP
FFF8
8008
BFE8
8608
9FC8
8648
BFE8
9FC8
9048
9048
9FC8
8008
FFF8
ENDCHAR
STARTCHAR 5708
ENCODING 22280
SWIDTH 1040 0
DWIDTH 13 0
BBX 12 13 0 -2
BITMAP
FFF0
9690
A650
DFB0
8B10
FFF0
90D0
BFB0
D0D0
D050
8FD0
8010
FFF0
ENDCHAR
STARTCHAR 5709
ENCODING 22281
SWIDTH 1040 0
DWIDTH 13 0
BBX 12 13 0 -2
BITMAP
FFF0
8610
9F90
8610
BFD0
9090
BFD0
8610
8790
9F90
8610
8610
FFF0
ENDCHAR
STARTCHAR 570B
ENCODING 22283
SWIDTH 1040 0
DWIDTH 13 0
BBX 13 13 0 -2
BITMAP
FFF8
8348
8328
FFF8
8308
BB28
AB28
B8C8
B8A8
80A8
FB68
8628
FFF8
ENDCHAR
STARTCHAR 570D
ENCODING 22285
SWIDTH 1040 0
DWIDTH 13 0
BBX 12 13 0 -2
BITMAP
FFF0
8610
9F90
8690
BFF0
9090
9F90
BFF0
A610
A610
FFF0
8610
FFF0
ENDCHAR
STARTCHAR 570F
ENCODING 22287
SWIDTH 1040 0
DWIDTH 13 0
BBX 13 13 0 -2
BITMAP
FFF8
9648
BFE8
8608
FFF8
8888
9FC8
E0B8
80B8
9F88
9048
8FC8
FFF8
ENDCHAR
STARTCHAR 5712
ENCODING 22290
SWIDTH 1040 0
DWIDTH 13 0
BBX 13 13 0 -2
BITMAP
FFF8
8608
9FC8
8608
BFE8
9048
9FC8
8E08
97A8
97A8
A648
8628
FFF8
ENDCHAR
STARTCHAR 5713
ENCODING 22291
SWIDTH 1040 0
DWIDTH 13 0
BBX 12 13 0 -2
BITMAP
FFF0
8010
9F90
9090
BFD0
A050
BFD0
A050
A050
BFD0
8B10
B0D0
FFF0
ENDCHAR
STARTCHAR 5716
ENCODING 22294
SWIDTH 1040 0
DWIDTH 13 0
BBX 12 13 0 -2
BITMAP
FFF0
BFD0
A050
BFD0
8610
FFF0
A050
AF50
AB50
AB50
BFD0
8010
FFF0
ENDCHAR
STARTCHAR 5718
ENCODING 22296
SWIDTH 1040 0
DWIDTH 13 0
BBX 12 13 0 -2
BITMAP
FFF0
8610
FFF0
A650
BFD0
A650
FFF0
8650
8650
FFF0
8890
8690
FFF0
ENDCHAR
STARTCHAR 571C
ENCODING 22300
SWIDTH 1040 0
DWIDTH 13 0
BBX 12 13 0 -2
BITMAP
FFF0
8010
BFD0
AB50
FFF0
9090
9F90
B6D0
B710
9710
B8D0
8010
FFF0
ENDCHAR
STARTCHAR 571F
ENCODING 22303
SWIDTH 1040 0
DWIDTH 13 0
BBX 12 13 0 -2
BITMAP
0600
0600
0600
0600
7FE0
0600
0600
0600
0600
0600
0600
0600
FFF0
ENDCHAR
STARTCHAR 5726
ENCODING 22310
SWIDTH 1040 0
DWIDTH 13 0
BBX 13 13 0 -2
BITMAP
27C0
2040
2040
F040
2040
2040
20C0
30A0
2120
E320
0310
0610
1808
ENDCHAR
STARTCHAR 5727
ENCODING 22311
SWIDTH 1040 0
DWIDTH 13 0
BBX 13 13 0 -2
BITMAP
7FF8
4000
4080
4080
4080
4080
4FF0
4080
4080
4080
4080
8080
9FF8
ENDCHAR
STARTCHAR 5728
ENCODING 22312
SWIDTH 1040 0
DWIDTH 13 0
BBX 13 13 0 -2
BITMAP
0600
0600
FFF8
0800
1080
2080
EFF0
2080
2080
2080
2080
2080
2FF8
ENDCHAR
STARTCHAR 572D
ENCODING 22317
SWIDTH 1040 0
DWIDTH 13 0
BBX 12 13 0 -2
BITMAP
0600
0600
7FE0
0600
0600
FFF0
0600
0600
07E0
7FE0
0600
0600
FFF0
ENDCHAR
STARTCHAR 5730
ENCODING 22320
SWIDTH 1040 0
DWIDTH 13 0
BBX 13 13 0 -2
BITMAP
0040
2640
2640
2678
2FC8
F648
2648
2648
2648
2658
3640
C608
03F8
ENDCHAR
STARTCHAR 5737
ENCODING 22327
SWIDTH 1040 0
DWIDTH 13 0
BBX 13 13 0 -2
BITMAP
2000
2FF8
2080
F080
2080
20E0
2090
3088
F088
C080
0080
0080
0080
ENDCHAR
STARTCHAR 5738
ENCODING 22328
SWIDTH 1040 0
DWIDTH 13 0
BBX 13 13 0 -2
BITMAP
2040
2040
2040
F648
2648
2648
2648
2648
3648
3648
C648
07F8
0600
ENDCHAR
STARTCHAR 573B
ENCODING 22331
SWIDTH 1040 0
DWIDTH 13 0
BBX 13 13 0 -2
BITMAP
2070
27C0
2600
F600
27F8
2640
2640
3640
2640
E640
0840
0840
1040
ENDCHAR
STARTCHAR 5740
ENCODING 22336
SWIDTH 1040 0
DWIDTH 13 0
BBX 13 13 0 -2
BITMAP
2040
2040
2040
F040
2678
2640
2640
2640
3640
3640
E640
0640
1FF8
ENDCHAR
STARTCHAR 5742
ENCODING 22338
SWIDTH 1040 0
DWIDTH 13 0
BBX 13 13 0 -2
BITMAP
27F8
2600
2600
F7F0
2710
2710
26A0
36A0
26C0
E640
0840
08A0
0718
ENDCHAR
STARTCHAR 5747
ENCODING 22343
SWIDTH 1040 0
DWIDTH 13 0
BBX 13 13 0 -2
BITMAP
2300
2300
2300
F3F8
2608
2008
2388
3028
2068
E048
0388
0010
0070
ENDCHAR
STARTCHAR 574A
ENCODING 22346
SWIDTH 1040 0
DWIDTH 13 0
BBX 13 13 0 -2
BITMAP
2080
2080
2FF8
2080
F080
20F0
2090
2090
3110
3310
E310
0610
1860
ENDCHAR
STARTCHAR 574E
ENCODING 22350
SWIDTH 1040 0
DWIDTH 13 0
BBX 13 13 0 -2
BITMAP
0300
2300
2300
23F8
F648
2650
2840
2040
3060
3060
E0A0
0310
0E08
ENDCHAR
STARTCHAR 574F
ENCODING 22351
SWIDTH 1040 0
DWIDTH 13 0
BBX 13 13 0 -2
BITMAP
2000
27F8
2040
F040
20E0
2350
2E48
2048
3048
3040
E040
0040
0040
ENDCHAR
STARTCHAR 5750
ENCODING 22352
SWIDTH 1040 0
DWIDTH 13 0
BBX 12 13 0 -2
BITMAP
0600
2640
2640
2640
56A0
4F20
8610
0600
07E0
7FE0
0600
0600
FFF0
ENDCHAR
STARTCHAR 5751
ENCODING 22353
SWIDTH 1040 0
DWIDTH 13 0
BBX 13 13 0 -2
BITMAP
0040
2040
27F8
2000
FBE0
2320
2320
2320
3320
3320
E328
0628
1838
ENDCHAR
STARTCHAR 5761
ENCODING 22369
SWIDTH 1040 0
DWIDTH 13 0
BBX 13 13 0 -2
BITMAP
2040
2040
27F8
F648
2650
27F0
2610
3710
F6A0
C6A0
0640
08A0
0718
ENDCHAR
STARTCHAR 5764
ENCODING 22372
SWIDTH 1040 0
DWIDTH 13 0
BBX 13 13 0 -2
BITMAP
2040
2040
27F8
F648
2648
27F8
2648
2648
3648
37F8
E640
0040
0040
ENDCHAR
STARTCHAR 5766
ENCODING 22374
SWIDTH 1040 0
DWIDTH 13 0
BBX 13 13 0 -2
BITMAP
27F0
2610
2610
2610
F7F0
2610
2610
2610
3610
37F0
C000
0000
0FF8
ENDCHAR
STARTCHAR 5769
ENCODING 22377
SWIDTH 1040 0
DWIDTH 13 0
BBX 13 13 0 -2
BITMAP
2620
2620
2620
FFF8
2620
2620
27E0
3620
2620
E620
0620
07E0
0600
ENDCHAR
STARTCHAR 576A
ENCODING 22378
SWIDTH 1040 0
DWIDTH 13 0
BBX 13 13 0 -2
BITMAP
2000
2FF8
2648
F348
2348
2350
2FF8
2040
3040
3040
E040
0040
0040
ENDCHAR
STARTCHAR 577F
ENCODING 22399
SWIDTH 1040 0
DWIDTH 13 0
BBX 13 13 0 -2
BITMAP
2310
2310
2610
F610
2EF8
2610
2690
3650
2650
E650
0610
0610
0630
ENDCHAR
STARTCHAR 5782
ENCODING 22402
SWIDTH 1040 0
DWIDTH 13 0
BBX 13 13 0 -2
BITMAP
00E0
7F00
0600
7FE0
2640
FFF8
2640
2640
2660
7FE0
0600
0600
FFF0
ENDCHAR
STARTCHAR 5788
ENCODING 22408
SWIDTH 1040 0
DWIDTH 13 0
BBX 12 13 0 -2
BITMAP
1340
1320
3FF0
6300
A300
2090
2070
0600
07E0
7FE0
0600
0600
FFF0
ENDCHAR
STARTCHAR 5789
ENCODING 22409
SWIDTH 1040 0
DWIDTH 13 0
BBX 13 13 0 -2
BITMAP
2300
2300
27F0
F610
2BD0
2050
2050
37D0
F650
C630
0600
0608
03F8
ENDCHAR
STARTCHAR 578B
ENCODING 22411
SWIDTH 1040 0
DWIDTH 13 0
BBX 13 13 0 -2
BITMAP
7F48
2648
2648
FF48
2648
2608
4E38
0300
03F0
7FF0
0300
0300
FFF8
ENDCHAR
STARTCHAR 5793
ENCODING 22419
SWIDTH 1040 0
DWIDTH 13 0
BBX 13 13 0 -2
BITMAP
0040
2040
27F8
2080
F320
2EC0
2090
2320
3760
3640
C080
0340
0E30
ENDCHAR
STARTCHAR 57A0
ENCODING 22432
SWIDTH 1040 0
DWIDTH 13 0
BBX 13 13 0 -2
BITMAP
27F0
2610
27F0
F610
27F0
2610
2680
3698
26A0
E6A0
0640
07A0
0E18
ENDCHAR
STARTCHAR 57A2
ENCODING 22434
SWIDTH 1040 0
DWIDTH 13 0
BBX 13 13 0 -2
BITMAP
2038
27C0
2600
F600
27F8
2600
2600
26F8
3688
3688
E688
0688
08F8
ENDCHAR
STARTCHAR 57A3
ENCODING 22435
SWIDTH 1040 0
DWIDTH 13 0
BBX 13 13 0 -2
BITMAP
0FF8
2000
27F0
2610
F610
27F0
2610
2610
3610
37F0
E600
0000
1FF8
ENDCHAR
STARTCHAR 57A4
ENCODING 22436
SWIDTH 1040 0
DWIDTH 13 0
BBX 13 13 0 -2
BITMAP
2FF8
2080
2090
F308
27F8
2008
2040
3040
F078
C7F8
0040
0040
0FF8
ENDCHAR
STARTCHAR 57AA
ENCODING 22442
SWIDTH 1040 0
DWIDTH 13 0
BBX 13 13 0 -2
BITMAP
2610
2310
2320
FFF8
2320
2320
2FF8
3320
F320
C320
0620
0620
0820
ENDCHAR
STARTCHAR 57B0
ENCODING 22448
SWIDTH 1040 0
DWIDTH 13 0
BBX 13 13 0 -2
BITMAP
2080
20F0
2080
F080
27F8
2000
27F8
3080
F0E0
C0E0
0090
0080
0080
ENDCHAR
STARTCHAR 57B3
ENCODING 22451
SWIDTH 1040 0
DWIDTH 13 0
BBX 13 13 0 -2
BITMAP
0300
2378
2600
2B00
F378
2610
2E10
2610
3610
3610
C610
0610
0630
ENDCHAR
STARTCHAR 57C0
ENCODING 22464
SWIDTH 1040 0
DWIDTH 13 0
BBX 12 13 0 -2
BITMAP
00E0
7F00
0600
7FE0
1690
F6E0
1680
F690
F690
1670
7FE0
0600
FFF0
ENDCHAR
STARTCHAR 57C3
ENCODING 22467
SWIDTH 1040 0
DWIDTH 13 0
BBX 13 13 0 -2
BITMAP
2080
2090
2308
F7F8
2308
23F0
2640
3040
F078
C7F8
0040
00A0
0718
ENDCHAR
STARTCHAR 57C6
ENCODING 22470
SWIDTH 1040 0
DWIDTH 13 0
BBX 13 13 0 -2
BITMAP
20F0
2710
2020
F7F8
2648
27F8
2648
3648
F648
C7F8
0608
0608
0818
ENDCHAR
STARTCHAR 57CB
ENCODING 22475
SWIDTH 1040 0
DWIDTH 13 0
BBX 13 13 0 -2
BITMAP
27F8
2648
27F8
2648
F648
27F8
2040
3040
F078
C7F8
0040
0040
0FF8
ENDCHAR
STARTCHAR 57CE
ENCODING 22478
SWIDTH 1040 0
DWIDTH 13 0
BBX 13 13 0 -2
BITMAP
0050
2048
2040
2FF8
F840
2840
2F50
3B50
FB70
CB20
1328
1668
2098
ENDCHAR
STARTCHAR 57D2
ENCODING 22482
SWIDTH 1040 0
DWIDTH 13 0
BBX 13 13 0 -2
BITMAP
2038
2FC0
2650
2648
F888
2020
2FF8
2020
3620
3620
C320
0020
00E0
ENDCHAR
STARTCHAR 57D3
ENCODING 22483
SWIDTH 1040 0
DWIDTH 13 0
BBX 13 13 0 -2
BITMAP
2060
27C0
2328
20B0
F7C0
2020
2FF8
2020
3620
3620
C320
0020
00E0
ENDCHAR
STARTCHAR 57D4
ENCODING 22484
SWIDTH 1040 0
DWIDTH 13 0
BBX 13 13 0 -2
BITMAP
2050
2048
27F8
F040
27F8
2648
27F8
2648
3648
37F8
C648
0648
0658
ENDCHAR
ENDFONT
